<?xml version="1.0" encoding="utf-8"?>
<!-- Generator: Adobe Illustrator 23.0.1, SVG Export Plug-In . SVG Version: 6.00 Build 0)  -->
<svg version="1.1" id="Layer_1" xmlns="http://www.w3.org/2000/svg" xmlns:xlink="http://www.w3.org/1999/xlink" x="0px" y="0px"
	 viewBox="0 0 512 512" style="enable-background:new 0 0 512 512;" xml:space="preserve">
<style type="text/css">
	.st0{fill:#0F296A;}
	.st1{fill:#0E234F;}
	.st2{fill:#EAB883;}
	.st3{fill:#DDA36F;}
	.st4{fill:#BF462E;}
	.st5{fill:#AD3825;}
	.st6{fill:#0EE5C3;}
	.st7{fill:#087C6A;}
	.st8{fill:#15544A;}
	.st9{fill:#D4D1DA;}
	.st10{fill:#BCB7C6;}
	.st11{fill:#ECEBED;}
	.st12{opacity:0.1;}
</style>
<g>
	<path class="st0" d="M512,256c0,141.4-114.6,256-256,256S0,397.4,0,256S114.6,0,256,0S512,114.6,512,256z"/>
	<path class="st0" d="M93.6,453.9C137.8,490.2,194.4,512,256,512s118.2-21.8,162.4-58.1H93.6z"/>
	<path class="st1" d="M242.6,453.9h-149c40.4,33.2,91.1,54.2,146.6,57.6C203.6,508.8,205.6,453.9,242.6,453.9z"/>
	<path class="st2" d="M247.2,109.7c-37.1-23-84.3-23-121.3,0c-19.1,11.8-35.2,29.4-35.2,55c0,33.3,15.1,58.3,33.3,76.4h125.3
		c18.2-18.1,33.3-43.1,33.3-76.4C282.5,139.1,266.3,121.5,247.2,109.7z"/>
	<path class="st3" d="M184.7,92.5c-43,0.7-94.1,28.3-94.1,72.2c0,33.3,15.1,58.3,33.3,76.4h51.4c-18.2-19.8-33.3-47.2-33.3-83.7
		C142.1,128.5,159.4,106.9,184.7,92.5z"/>
	<path class="st4" d="M282.5,166.7c0-0.7,0-1.3,0-2c0-25.6-16.2-43.2-35.2-55c-63.3-39.2-141.3-4.9-154.3,39.1
		c47,24.4,106,12.6,139.8-31c2.2-2.9,6.7-2.3,8.2,1C249.9,138.4,264.4,155.1,282.5,166.7z"/>
	<path class="st5" d="M184.7,92.5c-51.4,2.2-83.9,29.6-91.8,56.3c14.8,7.7,31.5,12.1,49.2,12.5C141.2,130,157.7,107.9,184.7,92.5z"
		/>
	<path class="st6" d="M373.3,447.8c0-1.3-1.3-2.3-2.9-2.3h-16.7c0.7-1.5,1.2-3.2,1.4-5L367.8,301l89.7,99.9
		c27.7,30.8,5.8,79.8-35.6,79.8h-81.5C358.6,480.7,373.3,466,373.3,447.8z"/>
	<path class="st7" d="M410.5,400.9l-47.1-52.4l-8.3,91.9c-0.2,1.8-0.7,3.5-1.4,5h16.7c1.6,0,2.9,1,2.9,2.3c0,18.2-14.8,33-33,33
		h34.6C416.3,480.7,438.2,431.7,410.5,400.9z"/>
	<path class="st6" d="M204.4,2.9c-11.6-3.8-24.1-3.8-35.6,0C134,14.3,60.6,49.1,60.6,138.7c0,48.5,21.5,80.9,46.7,102.3H125
		c-17.9-17.8-32.7-42.4-32.7-75.2c0-25.2,15.9-42.5,34.7-54.1c36.5-22.6,82.9-22.6,119.4,0c18.8,11.6,34.7,28.9,34.7,54.1
		c0,32.7-14.8,57.3-32.7,75.2h17.6c25.2-21.4,46.7-53.8,46.7-102.3C312.5,49.1,239.1,14.3,204.4,2.9z"/>
	<path class="st7" d="M180.2,95c-18.3-8.5-31-27-31-48.5c0-19,9.9-35.6,24.8-45.1c-1.7,0.4-3.5,0.9-5.2,1.4
		C134,14.3,60.6,49.1,60.6,138.7c0,48.5,21.5,80.9,46.7,102.3H125c-17.9-17.8-32.7-42.4-32.7-75.2C92.2,124.5,139,97.3,180.2,95z"/>
	<path class="st2" d="M373.3,447.8c0-1.3-1.3-2.3-2.9-2.3h-16.7c0.7-1.5,1.2-3.2,1.4-5l3.3-36.5h41.2c21.2,0,38.4,17.2,38.4,38.4
		c0,21.2-17.2,38.4-38.4,38.4h-59.3C358.6,480.7,373.3,466,373.3,447.8z"/>
	<path class="st3" d="M399.7,442.2h-44.8c-0.2,1.2-0.6,2.3-1.1,3.3h16.7c1.6,0,2.9,1,2.9,2.3c0,18.2-14.8,33-33,33h59.3
		c21.2,0,38.4-17.2,38.4-38.4c0-7-1.9-13.6-5.2-19.3C426.2,434.5,413.9,442.2,399.7,442.2z"/>
	<path class="st7" d="M280.8,162.5c0.1-1.8,0.1-3.5,0.1-5.3c0-29.3-15.9-49.5-34.7-63c-36.5-26.3-82.9-26.3-119.4,0
		c-26.3,19-35.6,41.7-34.6,68.3c1.4-23.4,16.7-39.6,34.6-50.8c36.5-22.6,82.9-22.6,119.4,0C264.2,122.9,279.5,139.1,280.8,162.5z"/>
	<path class="st8" d="M92.3,162.5L92.3,162.5c2.3-40,48.2-65.3,87.9-67.5c-8.2-3.8-15.3-9.6-20.6-16.8c-11.4,3.2-22.5,8.6-32.7,16
		C100.6,113.2,91.3,135.9,92.3,162.5z"/>
	<path class="st9" d="M374.4,445.5H83.9c15,13.6,31.6,25.5,49.4,35.2h211c18.2,0,33-14.8,33-33C377.3,446.5,376,445.5,374.4,445.5z"
		/>
	<path class="st10" d="M135.8,447.8c0-1.3,1.3-2.3,2.9-2.3H83.9c15,13.6,31.6,25.5,49.5,35.2h35.4
		C150.5,480.7,135.8,466,135.8,447.8z"/>
	<path class="st11" d="M361.1,239.8h-349c-4.9,0-9.2,2.3-11.8,5.9C0.1,249.1,0,252.6,0,256c0,79.7,36.5,150.9,93.6,197.9h250.8
		c7.6,0,14-5.8,14.7-13.5l16.7-184.5C376.6,247.2,369.8,239.8,361.1,239.8z"/>
	<path class="st9" d="M60.6,255.9c-0.8-8.7,6-16.1,14.7-16.1H12.1c-4.9,0-9.2,2.3-11.8,5.9C0.1,249.1,0,252.6,0,256
		c0,71.8,29.6,136.8,77.3,183.2L60.6,255.9z"/>
	<path class="st6" d="M240.6,428.5c-0.7,0-1.4-0.1-2.1-0.3l-119.3-33.7c-4.2-1.2-6.6-5.5-5.5-9.7c1.2-4.2,5.5-6.6,9.7-5.5L242.8,413
		c4.2,1.2,6.6,5.5,5.5,9.7C247.2,426.2,244.1,428.5,240.6,428.5z"/>
	<path class="st7" d="M213.3,415.2c0-4.3,3.2-7.8,7.3-8.5l-97.1-27.4c-4.2-1.2-8.6,1.3-9.7,5.5c-1.2,4.2,1.3,8.6,5.5,9.7l97.6,27.5
		C214.7,420.5,213.3,418,213.3,415.2z"/>
	<path class="st6" d="M132.5,428.5c-3.4,0-6.6-2.3-7.6-5.8c-1.2-4.2,1.3-8.6,5.5-9.7l119.3-33.7c4.2-1.2,8.6,1.3,9.7,5.5
		c1.2,4.2-1.3,8.6-5.5,9.7l-119.3,33.7C134,428.4,133.2,428.5,132.5,428.5z"/>
	<path class="st7" d="M217,394.6c0-2.9,1.5-5.5,3.7-7.1L130.4,413c-4.2,1.2-6.6,5.5-5.5,9.7c1,3.5,4.1,5.8,7.6,5.8
		c0.7,0,1.4-0.1,2.1-0.3L224,403C220,402.3,217,398.8,217,394.6z"/>
	<path class="st6" d="M234.7,352.3c-1.8-2-2.2-4.9-1.1-7.4c2.7-5.9,4.1-12.4,4.1-19.2c0-26.9-22.9-48.8-51.1-48.8
		s-51.1,21.8-51.1,48.8c0,6.8,1.5,13.3,4.1,19.2c1.1,2.5,0.7,5.3-1.1,7.4c-4,4.5-4.4,11.1-1.1,16.2l2.8,4.2
		c2.9,4.3,7.3,7.3,12.4,8.4l6,1.2c2.3,0.5,3.9,2.4,3.9,4.8v5.8c0,1.9,0.9,3.8,2.4,5c12.7,10.1,30.7,10.1,43.5,0c1.5-1.2,2.4-3,2.4-5
		V387c0-2.3,1.6-4.3,3.9-4.8l6-1.2c5.1-1,9.5-4.1,12.4-8.4l2.8-4.2C239.1,363.4,238.6,356.8,234.7,352.3z"/>
	<path class="st7" d="M185.7,397.8c-1.1-1.2-1.7-3-1.7-5V387c0-2.3-1.2-4.3-2.8-4.8L177,381c-3.6-1-6.8-4.1-8.8-8.4l-2-4.2
		c-2.4-5-2-11.6,0.8-16.2c1.3-2,1.6-4.9,0.8-7.4c-1.9-5.9-2.9-12.4-2.9-19.2c0-24.2,13.1-44.2,30.4-48.1c-2.8-0.4-5.6-0.7-8.6-0.7
		c-28.2,0-51.1,21.8-51.1,48.8c0,6.8,1.5,13.3,4.1,19.2c1.1,2.5,0.7,5.3-1.1,7.4c-4,4.5-4.4,11.1-1.1,16.2l2.8,4.2
		c2.9,4.3,7.3,7.3,12.4,8.4l6,1.2c2.3,0.5,3.9,2.4,3.9,4.8v5.8c0,1.9,0.9,3.8,2.4,5c8.8,6.9,20,9.1,30.3,6.5
		C191.8,403.1,188.6,401,185.7,397.8z"/>
	<path class="st7" d="M195.9,373.5l-7-9.2c-1.2-1.6-3.4-1.6-4.6,0l-7,9.2c-2.1,2.8,0.1,7,3.3,6.4l3.9-1.6c1.4-0.6,3-0.6,4.4,0
		l3.9,1.6C195.9,380.5,198.1,376.3,195.9,373.5z"/>
	<path class="st8" d="M184,374.7l3.2-11.1c0-0.1,0.1-0.2,0.1-0.3c-1.1-0.3-2.2,0.1-3,1.1l-7,9.2c-2.1,2.8,0.1,7,3.3,6.4l3.9-1.6
		c0.1,0,0.1,0,0.2-0.1C183.9,377.3,183.6,376,184,374.7z"/>
	<path class="st7" d="M197.4,349.2c-3.3,2.7-4,7.4-1.8,11c2.2,3.6,7.2,7.8,18.7,7.8c19.5,0,14.9-26,1.2-24.7
		C207.2,344.1,200.9,346.2,197.4,349.2z"/>
	<path class="st8" d="M217.6,343.4c-0.7-0.1-1.4-0.1-2.1,0c-8.3,0.8-14.6,2.9-18.1,5.8c-3.3,2.7-4,7.4-1.8,11
		c2.2,3.6,7.2,7.8,18.7,7.8c1.2,0,2.3-0.1,3.4-0.3C203,365.1,206.5,344.7,217.6,343.4z"/>
	<path class="st7" d="M175.8,349.2c3.3,2.7,4,7.4,1.8,11c-2.2,3.6-7.2,7.8-18.7,7.8c-19.5,0-14.9-26-1.2-24.7
		C166,344.1,172.2,346.2,175.8,349.2z"/>
	<path class="st8" d="M167.9,345.3c-2.9-0.9-6.3-1.6-10.2-1.9C144,342,139.4,368,158.9,368c2.6,0,4.9-0.2,6.9-0.6
		C157.3,362.3,159.9,348.5,167.9,345.3z"/>
</g>
<g>
	<path class="st6" d="M488.2,125.9c-12.1,42.8-56.9,68-99.8,55.9c-6.1-1.7-11.5-3.8-16.6-7.1l-43,14.3l16.4-36.8
		c-14.3-19.6-19.7-45.1-12.6-70.2c12.1-42.8,56.9-68,99.8-55.9S500.3,83.1,488.2,125.9z"/>
	<g class="st12">
		<path class="st6" d="M490.9,109.8c-10.5-16.1-26.2-28.4-46.2-34C401.9,63.7,357,88.9,345,131.7c-1.6,5.6-2.4,10.7-2.7,16
			c-12.1-19-16.3-42.4-9.8-65.2c12.1-42.8,56.9-68,99.8-55.9C470.1,36.8,493.7,72.2,490.9,109.8z"/>
	</g>
	<path class="st6" d="M345.2,152.2l-3.1,6.9c-0.2-3.6-0.2-7.9,0.2-11.3C343.6,149.3,344.4,150.8,345.2,152.2z"/>
	<path class="st6" d="M324.8,192.6c-1.4-1.6-1.8-4.1-1.2-6.3l15.6-34c-14.4-21.4-19.1-47.4-12-72.4C340.2,33.8,387.9,7,434,20
		s72.9,60.7,59.9,106.9s-60.7,72.9-106.9,59.9c-5.6-1.6-11-3.7-15.7-6.2l-40.3,13.2C328.4,194.9,326,194.8,324.8,192.6z M430.8,31.7
		c-40-11.3-81.4,11.9-92.6,51.9c-6.3,22.2-2.2,46.2,11.7,65.1c1.4,1.6,1.3,4,0.8,5.6l-11.3,25l30.4-10c1.4-0.8,3.1-0.3,4.6,0.7
		c5.2,2.7,10.1,4.6,15.7,6.2c40,11.3,81.4-11.9,92.6-51.9S470.8,42.9,430.8,31.7z"/>
	<g>
	</g>
	<g>
	</g>
	<g>
	</g>
	<g>
	</g>
	<g>
	</g>
	<g>
	</g>
	<g>
	</g>
	<g>
	</g>
	<g>
	</g>
	<g>
	</g>
	<g>
	</g>
	<g>
	</g>
	<g>
	</g>
	<g>
	</g>
	<g>
	</g>
</g>
<g>
	<g>
		<path class="st0" d="M457.5,99.7h-5.1v-9.2c0-2.2-1.8-4-4-4h-1.9V60.2H388v2.9h-4.4V66h-4.4v10.2h-1.9c-2.2,0-4,1.8-4,4v64h0
			c0,0.8,0.2,1.6,0.8,2.3c0.7,0.9,1.8,1.5,3,1.5h65.5c1.7,0,3.2-1.1,3.6-2.7l15-41.1V104C461.2,101.5,459.7,99.7,457.5,99.7z
			 M448.4,89.4c0.6,0,1.1,0.5,1.1,1.1v9.2h-2.9V89.4H448.4z M443.6,63.1v23.4v13.2H392c-0.3,0-0.7,0.1-1,0.1c0,0-0.1,0-0.1,0V63.1
			H443.6z M388,66v37.5l-0.1,0.3l-1.4,3.8V66H388z M382.1,68.9h1.5v46.6l-1.5,4V76.3V68.9z M376.3,80.3c0-0.6,0.5-1.1,1.1-1.1h1.9
			v48.2l-2.9,8V80.3z M443.4,144.5c-0.1,0.4-0.4,0.6-0.8,0.6h-65.5c-0.4,0-0.6-0.2-0.7-0.3c-0.1-0.1-0.2-0.4-0.2-0.6l2.9-8.1v0
			l4.4-12l0,0l4.4-12v0l2.8-7.8l0.1-0.3l0,0l0.2-0.6l0-0.1c0.1-0.4,0.4-0.6,0.8-0.6h51.6h2.9h5.9h5.1c0.6,0,0.7,0.8,0.7,1.2
			L443.4,144.5z"/>
		<path class="st0" d="M399.7,85h35.1c0.8,0,1.5-0.7,1.5-1.5c0-0.8-0.7-1.5-1.5-1.5h-35.1c-0.8,0-1.5,0.7-1.5,1.5S398.9,85,399.7,85
			z"/>
		<path class="st0" d="M399.7,74.8h14.6c0.8,0,1.5-0.7,1.5-1.5s-0.7-1.5-1.5-1.5h-14.6c-0.8,0-1.5,0.7-1.5,1.5
			S398.9,74.8,399.7,74.8z"/>
		<path class="st0" d="M399.7,95.3h35.1c0.8,0,1.5-0.7,1.5-1.5s-0.7-1.5-1.5-1.5h-35.1c-0.8,0-1.5,0.7-1.5,1.5
			S398.9,95.3,399.7,95.3z"/>
	</g>
	<g>
	</g>
	<g>
	</g>
	<g>
	</g>
	<g>
	</g>
	<g>
	</g>
	<g>
	</g>
	<g>
	</g>
	<g>
	</g>
	<g>
	</g>
	<g>
	</g>
	<g>
	</g>
	<g>
	</g>
	<g>
	</g>
	<g>
	</g>
	<g>
	</g>
</g>
</svg>
