<?xml version="1.0" encoding="utf-8"?>
<!-- Generator: Adobe Illustrator 23.0.1, SVG Export Plug-In . SVG Version: 6.00 Build 0)  -->
<svg version="1.1" id="Capa_1" xmlns="http://www.w3.org/2000/svg" xmlns:xlink="http://www.w3.org/1999/xlink" x="0px" y="0px"
	 viewBox="0 0 512 512" style="enable-background:new 0 0 512 512;" xml:space="preserve">
<style type="text/css">
	.st0{fill:none;}
	.st1{fill:#0EE5C3;}
	.st2{fill:#2E52A9;}
	.st3{fill:#396CE1;}
	.st4{fill:#0F7666;}
	.st5{fill:#1EB29D;}
	.st6{fill:#0F296A;}
	.st7{fill:#FEC9A3;}
	.st8{fill:#FABD91;}
</style>
<g>
	<path class="st1" d="M387.9,73.7l-44.4,94.1l-131.5,34.3L168,167.8l-26.5-12L81.6,68.5C127.3,26,188.6,0,256,0
		c40.2,0,78.2,9.3,112,25.8L387.9,73.7z"/>
	<path class="st2" d="M512,256c0,12.6-0.9,25-2.7,37.1c-2.5,17.3-6.8,34.1-12.6,50.1c-2.7,7.4-5.7,14.6-9,21.7L423,410l-79.6-66.8
		l-81.6-93.8l81.6-81.6l68.5-96l69.1,62.1c5.9,10.9,11.1,22.2,15.4,34c5.9,16,10.2,32.7,12.8,50C511,230.3,512,243,512,256z"/>
	<path class="st3" d="M388.4,427.7l-31.5,63.6c-4.4,1.9-8.9,3.7-13.5,5.3c-16,5.8-32.8,10.1-50.1,12.6c-12.2,1.8-24.6,2.7-37.3,2.7
		c-12.9,0-25.5-1-37.9-2.8c-17.3-2.6-34.1-6.9-50.1-12.7c-10.8-4-21.3-8.6-31.4-14l-50.2-57.7l81.6-81.6l68.5-96l106.9,96
		L388.4,427.7z"/>
	<path class="st4" d="M213,252.3l-45,90.9L72.2,410l-43.9-36.8c-5-9.6-9.3-19.6-13.1-29.9C5.4,316,0,286.6,0,256
		c0-31,5.5-60.7,15.6-88.2c12.1-33,30.8-62.9,54.6-87.9l97.8,87.9L213,252.3z"/>
	<path class="st4" d="M496.8,343.2c-25.8,71.1-82.2,127.6-153.3,153.5v-32.3c-5.9,3.6-12.8,5.6-20.2,5.6
		c-21.6,0-39.1-17.5-39.1-39.1s17.5-39.1,39.1-39.1c7.4,0,14.3,2,20.2,5.6v-54.2h54.2c-3.6-5.9-5.6-12.8-5.6-20.2
		c0-21.6,17.5-39.1,39.1-39.1c21.6,0,39.1,17.5,39.1,39.1c0,7.4-2,14.3-5.6,20.2L496.8,343.2z"/>
	<path class="st5" d="M323.2,216.4c7.4,0,14.3,2.1,20.2,5.6v-54.2h-54.2c3.6-5.9,5.6-12.8,5.6-20.2c0-21.6-17.5-39.1-39.1-39.1
		s-39.1,17.5-39.1,39.1c0,7.4,2.1,14.3,5.6,20.2H168V222c-5.9-3.6-12.8-5.6-20.2-5.6c-21.6,0-39.1,17.5-39.1,39.1
		c0,21.6,17.5,39.1,39.1,39.1c7.4,0,14.3-2.1,20.2-5.6v54.2h54.2c-3.6-5.9-5.6-12.8-5.6-20.2c0-21.6,17.5-39.1,39.1-39.1
		s39.1,17.5,39.1,39.1c0,7.4-2.1,14.3-5.6,20.2h54.2V289c-5.9,3.6-12.8,5.6-20.2,5.6c-21.6,0-39.1-17.5-39.1-39.1
		C284.1,233.9,301.6,216.4,323.2,216.4L323.2,216.4z"/>
	<path class="st6" d="M108.7,80.1c0,21.6,17.5,39.1,39.1,39.1c7.4,0,14.3-2.1,20.2-5.6v54.2h-54.2c3.6-5.9,5.6-12.8,5.6-20.2
		c0-21.6-17.5-39.1-39.1-39.1S41.2,126,41.2,147.6c0,7.4,2.1,14.3,5.6,20.2H15.6c14-38.2,36.8-72.1,66-99.3c24.7-23,54-41.2,86.4-53
		v31.1c-5.9-3.6-12.8-5.6-20.2-5.6C126.2,41,108.7,58.5,108.7,80.1z"/>
	<path class="st2" d="M108.7,430.9c0,21.6,17.5,39.1,39.1,39.1c7.4,0,14.3-2.1,20.2-5.6v32.1C97.2,470.6,41,414.2,15.2,343.2h31.6
		c-3.6-5.9-5.6-12.8-5.6-20.2c0-21.6,17.5-39.1,39.1-39.1c21.6,0,39.1,17.5,39.1,39.1c0,7.4-2.1,14.3-5.6,20.2H168v54.2
		c-5.9-3.5-12.8-5.6-20.2-5.6C126.2,391.8,108.7,409.3,108.7,430.9L108.7,430.9z"/>
	<path class="st6" d="M294.9,498.4c0,3.8-0.5,7.4-1.5,10.9c-12.2,1.8-24.6,2.7-37.3,2.7c-12.9,0-25.5-1-37.9-2.8
		c-1-3.4-1.5-7.1-1.5-10.8c0-21.6,17.5-39.1,39.1-39.1S294.9,476.8,294.9,498.4z"/>
	<path class="st1" d="M512,256c0,12.6-0.9,25-2.7,37.1c-3.4,1-7,1.5-10.7,1.5c-21.6,0-39.1-17.5-39.1-39.1
		c0-21.6,17.5-39.1,39.1-39.1c3.6,0,7.2,0.5,10.5,1.4C511,230.3,512,243,512,256z"/>
	<path class="st3" d="M464.6,167.8c3.6-5.9,5.6-12.8,5.6-20.2c0-21.6-17.5-39.1-39.1-39.1c-21.6,0-39.1,17.5-39.1,39.1
		c0,7.4,2.1,14.3,5.6,20.2h-54.2v-54.2c-5.9,3.6-12.8,5.6-20.2,5.6c-21.6,0-39.1-17.5-39.1-39.1c0-21.6,17.5-39.1,39.1-39.1
		c7.4,0,14.3,2.1,20.2,5.6V15.3c8.4,3.1,16.6,6.5,24.6,10.4c59.1,28.8,105.5,79.8,128.4,142.1H464.6z"/>
</g>
</svg>
