<?xml version="1.0" encoding="utf-8"?>
<!-- Generator: Adobe Illustrator 23.0.1, SVG Export Plug-In . SVG Version: 6.00 Build 0)  -->
<svg version="1.1" id="Layer_1" xmlns="http://www.w3.org/2000/svg" xmlns:xlink="http://www.w3.org/1999/xlink" x="0px" y="0px"
	 viewBox="0 0 512 512" style="enable-background:new 0 0 512 512;" xml:space="preserve">
<style type="text/css">
	.st0{fill:#4E4F4E;}
	.st1{fill:#3D3D3D;}
	.st2{fill:#C0C0C0;}
	.st3{fill:#8E8E8E;}
	.st4{fill:#A2A3A1;}
	.st5{fill:#E0E1DE;}
	.st6{fill:#5F5E5E;}
	.st7{fill:#6F726F;}
	.st8{fill:#0EE5C3;}
</style>
<g>
	<path class="st0" d="M117.5,367.6c-43.9,0-79.4-15.8-79.4-35.3v70.6c0,19.5,35.6,35.3,79.4,35.3s79.4-15.8,79.4-35.3v-70.6
		C197,351.8,161.4,367.6,117.5,367.6z"/>
	<path class="st1" d="M197,385.2v17.7c0,19.5-35.6,35.3-79.4,35.3s-79.4-15.8-79.4-35.3v-17.7c0,19.5,35.6,35.3,79.4,35.3
		S197,404.8,197,385.2z"/>
	<path class="st2" d="M117.5,226.3c43.9,0,79.4-15.8,79.4-35.3v-70.6c0,19.5-35.6,35.3-79.4,35.3s-79.4-15.8-79.4-35.3V191
		C38.1,210.5,73.7,226.3,117.5,226.3z"/>
	<path class="st3" d="M117.5,297c-43.9,0-79.4-15.8-79.4-35.3v70.6c0,19.5,35.6,35.3,79.4,35.3s79.4-15.8,79.4-35.3v-70.6
		C197,281.2,161.4,297,117.5,297z"/>
	<path class="st4" d="M117.5,226.3c-43.9,0-79.4-15.8-79.4-35.3v70.6c0,19.5,35.6,35.3,79.4,35.3s79.4-15.8,79.4-35.3V191
		C197,210.5,161.4,226.3,117.5,226.3z"/>
	<path class="st5" d="M197,120.4c0-19.5-35.6-35.3-79.4-35.3s-79.4,15.8-79.4,35.3s35.6,35.3,79.4,35.3S197,139.9,197,120.4z"/>
	<path class="st4" d="M197,120.4c0,19.5-35.6,35.3-79.4,35.3s-79.4-15.8-79.4-35.3c0.1-3.1,0.9-6.1,2.5-8.8
		c8.8,15.3,40,26.5,77,26.5s68.2-11.2,77-26.5C196.1,114.3,196.9,117.3,197,120.4z"/>
	<path class="st6" d="M197,314.6v17.7c0,19.5-35.6,35.3-79.4,35.3s-79.4-15.8-79.4-35.3v-17.7c0,19.5,35.6,35.3,79.4,35.3
		S197,334.1,197,314.6z"/>
	<path class="st7" d="M197,244v17.7c0,19.5-35.6,35.3-79.4,35.3s-79.4-15.8-79.4-35.3V244c0,19.5,35.6,35.3,79.4,35.3
		S197,263.5,197,244z"/>
	<path class="st3" d="M197,173.4V191c0,19.5-35.6,35.3-79.4,35.3S38.1,210.5,38.1,191v-17.7c0,19.5,35.6,35.3,79.4,35.3
		S197,192.9,197,173.4z"/>
	<path class="st8" d="M254,221.6l-12.5,12.5l18.7,18.7H211v17.7h49.3l-18.7,18.7l12.5,12.5l40-40L254,221.6z"/>
	<path class="st0" d="M394.5,367.6c-43.9,0-79.4-15.8-79.4-35.3v70.6c0,19.5,35.6,35.3,79.4,35.3s79.4-15.8,79.4-35.3v-70.6
		C473.9,351.8,438.3,367.6,394.5,367.6z"/>
	<path class="st1" d="M473.9,385.2v17.7c0,19.5-35.6,35.3-79.4,35.3S315,422.4,315,402.9v-17.7c0,19.5,35.6,35.3,79.4,35.3
		S473.9,404.8,473.9,385.2z"/>
	<path class="st2" d="M394.5,226.3c43.9,0,79.4-15.8,79.4-35.3v-70.6c0,19.5-35.6,35.3-79.4,35.3S315,139.9,315,120.4V191
		C315,210.5,350.6,226.3,394.5,226.3z"/>
	<path class="st3" d="M394.5,297c-43.9,0-79.4-15.8-79.4-35.3v70.6c0,19.5,35.6,35.3,79.4,35.3s79.4-15.8,79.4-35.3v-70.6
		C473.9,281.2,438.3,297,394.5,297z"/>
	<path class="st4" d="M394.5,226.3c-43.9,0-79.4-15.8-79.4-35.3v70.6c0,19.5,35.6,35.3,79.4,35.3s79.4-15.8,79.4-35.3V191
		C473.9,210.5,438.3,226.3,394.5,226.3z"/>
	<path class="st5" d="M473.9,120.4c0-19.5-35.6-35.3-79.4-35.3S315,100.9,315,120.4s35.6,35.3,79.4,35.3S473.9,139.9,473.9,120.4z"
		/>
	<path class="st4" d="M473.9,120.4c0,19.5-35.6,35.3-79.4,35.3S315,139.9,315,120.4c0.1-3.1,0.9-6.1,2.5-8.8
		c8.8,15.3,40,26.5,77,26.5s68.2-11.2,77-26.5C473,114.3,473.9,117.3,473.9,120.4z"/>
	<path class="st6" d="M473.9,314.6v17.7c0,19.5-35.6,35.3-79.4,35.3S315,351.8,315,332.3v-17.7c0,19.5,35.6,35.3,79.4,35.3
		S473.9,334.1,473.9,314.6z"/>
	<path class="st7" d="M473.9,244v17.7c0,19.5-35.6,35.3-79.4,35.3S315,281.2,315,261.7V244c0,19.5,35.6,35.3,79.4,35.3
		S473.9,263.5,473.9,244z"/>
	<path class="st3" d="M473.9,173.4V191c0,19.5-35.6,35.3-79.4,35.3S315,210.5,315,191v-17.7c0,19.5,35.6,35.3,79.4,35.3
		S473.9,192.9,473.9,173.4z"/>
</g>
</svg>
