<?xml version="1.0" encoding="UTF-8"?>
<svg xmlns="http://www.w3.org/2000/svg" xmlns:xlink="http://www.w3.org/1999/xlink" width="512" height="512" viewBox="0 0 58 58" version="1.1"><!-- Generator: Sketch 51.3 (57544) - http://www.bohemiancoding.com/sketch --><title>010 - Jigsaw</title><desc>Created with Sketch.</desc><defs/><g id="Page-1" stroke="none" stroke-width="1" fill="none" fill-rule="evenodd"><g id="010---Jigsaw" fill-rule="nonzero"><path d="M29.03,29 L21.49,36.54 C20.4485076,37.5800046 18.7614924,37.5800046 17.72,36.54 L17.62,36.44 C17.3619829,36.1676862 17.2471453,35.7898337 17.31,35.42 C17.5732642,33.7599058 17.0226062,32.0744456 15.83,30.89 C14.6711274,29.7289702 13.0424432,29.165812 11.4139222,29.363031 C9.78540121,29.56025 8.3382279,30.4959041 7.49,31.9 C6.46075632,33.5750809 6.44919152,35.6837305 7.46,37.37 C8.56376553,39.2234762 10.6751277,40.2298263 12.81,39.92 C13.1942697,39.8493655 13.5890067,39.9685314 13.87,40.24 L13.95,40.31 C14.9898947,41.3554403 14.9898947,43.0445597 13.95,44.09 L8.5,49.54 C3.04795924,44.1032688 -0.0112686201,36.717047 -6.51791216e-06,29.0175231 C0.0112555843,21.3179993 3.09207798,13.9407586 8.56,8.52 L13.95,13.91 L14.05,14.01 C14.08,14.04 14.12,14.07 14.15,14.1 C14.22,14.15 14.29,14.21 14.37,14.26 C14.513524,14.3575402 14.6678916,14.4380799 14.83,14.5 C15.474776,14.7600008 16.195224,14.7600008 16.84,14.5 C17.003019,14.4401209 17.1576292,14.3594548 17.3,14.26 C17.38,14.21 17.45,14.15 17.52,14.1 C17.5555714,14.072584 17.5890015,14.0424969 17.62,14.01 C17.6557414,13.979165 17.689165,13.9457414 17.72,13.91 L17.79,13.84 C17.9003676,13.7236639 17.9884889,13.5880928 18.05,13.44 C18.1284202,13.225901 18.1524727,12.9956849 18.12,12.77 C17.7879866,10.4926947 18.9529939,8.25899948 21.010502,7.22797432 C23.0680101,6.19694916 25.5546874,6.60077128 27.180202,8.22989821 C28.8057167,9.85902513 29.204018,12.3465927 28.1684282,14.4018071 C27.1328385,16.4570215 24.8965627,17.6170677 22.62,17.28 C22.4010377,17.2424928 22.1759557,17.2667324 21.97,17.35 C21.8987166,17.3731661 21.8313029,17.406873 21.77,17.45 C21.7040442,17.4884589 21.6435109,17.5355405 21.59,17.59 L21.49,17.69 C20.4499954,18.7314924 20.4499954,20.4185076 21.49,21.46 L28.97,28.94 L29.03,29 Z" id="Shape" fill="#FF5364"/><path d="M50.57,26.1 C49.7635591,27.4349562 48.4130531,28.3498919 46.8742267,28.6037982 C45.3354003,28.8577046 43.7625538,28.4251221 42.57,27.42 C42.44,27.3 42.3,27.18 42.17,27.05 C42.0620759,26.9439127 41.9618237,26.8302935 41.87,26.71 C41.6788203,26.4879851 41.511252,26.2466868 41.37,25.99 C40.7970828,24.9513293 40.5793616,23.7538626 40.75,22.58 C40.8164383,22.2117156 40.7052486,21.8336706 40.45,21.56 L40.35,21.46 C39.3045597,20.4201053 37.6154403,20.4201053 36.57,21.46 L29.03,29 L28.97,28.94 L21.49,21.46 C20.4499954,20.4185076 20.4499954,18.7314924 21.49,17.69 L21.59,17.59 C21.6435109,17.5355405 21.7040442,17.4884589 21.77,17.45 C21.8313029,17.406873 21.8987166,17.3731661 21.97,17.35 C22.1759557,17.2667324 22.4010377,17.2424928 22.62,17.28 C24.8933171,17.6145448 27.1252194,16.4548989 28.1582964,14.4024265 C29.1913734,12.3499541 28.793169,9.86648881 27.1701824,8.2398956 C25.5471958,6.61330238 23.0646206,6.20958631 21.0098601,7.23810476 C18.9550996,8.26662321 17.7905022,10.4959459 18.12,12.77 C18.1524727,12.9956849 18.1284202,13.225901 18.05,13.44 C17.9884889,13.5880928 17.9003676,13.7236639 17.79,13.84 L17.72,13.91 C17.689165,13.9457414 17.6557414,13.979165 17.62,14.01 C17.5890015,14.0424969 17.5555714,14.072584 17.52,14.1 C17.45,14.15 17.38,14.21 17.3,14.26 C17.1576292,14.3594548 17.003019,14.4401209 16.84,14.5 C16.195224,14.7600008 15.474776,14.7600008 14.83,14.5 C14.6678916,14.4380799 14.513524,14.3575402 14.37,14.26 C14.29,14.21 14.22,14.15 14.15,14.1 C14.12,14.07 14.08,14.04 14.05,14.01 L13.95,13.91 L8.56,8.52 C19.8720171,-2.72863501 38.1576459,-2.68835829 49.42,8.61 L44.12,13.91 C43.0801053,14.9554403 43.0801053,16.6445597 44.12,17.69 L44.19,17.76 C44.4749757,18.0316314 44.8726831,18.1505719 45.26,18.08 C46.749526,17.8672358 48.2597549,18.2919877 49.42,19.25 C49.4681836,19.2844031 49.5118583,19.3247182 49.55,19.37 C49.6002882,19.4017382 49.6443466,19.4424075 49.68,19.49 C49.7683065,19.5682072 49.8517928,19.6516935 49.93,19.74 C50.0718089,19.8997058 50.2053182,20.0665925 50.33,20.24 C50.4312032,20.3618758 50.5215478,20.4923735 50.6,20.63 C51.6107631,22.3162819 51.5991985,24.4249062 50.57,26.1 Z" id="Shape" fill="#955BA5"/><path d="M57.89,29.06 C57.9015691,36.7030046 54.876386,44.0375448 49.48,49.45 L44.05,44.02 C44.0051233,43.971086 43.9547958,43.9274689 43.9,43.89 C43.8383126,43.8336843 43.7713356,43.7834515 43.7,43.74 C42.6424417,43.0441269 41.2408836,43.1905583 40.35,44.09 L40.27,44.16 C39.9983252,44.4449504 39.8793779,44.8426804 39.95,45.23 C40.2503312,47.2681434 39.3450924,49.296142 37.627326,50.4334661 C35.9095597,51.5707902 33.6890841,51.6123107 31.93,50.54 C31.7970922,50.4591231 31.6701051,50.3688955 31.55,50.27 C31.1843141,50.0116032 30.8547396,49.7055698 30.57,49.36 C30.5,49.27 30.42,49.18 30.36,49.09 C29.1033949,47.3577675 29.009247,45.0405583 30.1211815,43.2120924 C31.2331159,41.3836265 33.3338613,40.4011852 35.45,40.72 C35.8202116,40.7892281 36.2009187,40.673523 36.47,40.41 L36.58,40.31 C37.6198944,39.2684621 37.6198944,37.5815379 36.58,36.54 L36.51,36.48 L29.03,29 L36.57,21.46 C37.6154403,20.4201053 39.3045597,20.4201053 40.35,21.46 L40.45,21.56 C40.7052486,21.8336706 40.8164383,22.2117156 40.75,22.58 C40.5793616,23.7538626 40.7970828,24.9513293 41.37,25.99 C41.511252,26.2466868 41.6788203,26.4879851 41.87,26.71 C41.9618237,26.8302935 42.0620759,26.9439127 42.17,27.05 C42.3,27.18 42.44,27.3 42.57,27.42 C43.7625538,28.4251221 45.3354003,28.8577046 46.8742267,28.6037982 C48.4130531,28.3498919 49.7635591,27.4349562 50.57,26.1 C51.5991985,24.4249062 51.6107631,22.3162819 50.6,20.63 C50.5215478,20.4923735 50.4312032,20.3618758 50.33,20.24 C50.2053182,20.0665925 50.0718089,19.8997058 49.93,19.74 C49.8517928,19.6516935 49.7683065,19.5682072 49.68,19.49 C49.6443466,19.4424075 49.6002882,19.4017382 49.55,19.37 C49.5118583,19.3247182 49.4681836,19.2844031 49.42,19.25 C48.2597549,18.2919877 46.749526,17.8672358 45.26,18.08 C44.8726831,18.1505719 44.4749757,18.0316314 44.19,17.76 L44.12,17.69 C43.0801053,16.6445597 43.0801053,14.9554403 44.12,13.91 L49.42,8.61 C54.8539978,14.0267212 57.9026438,21.3873837 57.89,29.06 Z" id="Shape" fill="#2FA8CC"/><path d="M49.48,49.45 C44.0632312,54.9066718 36.6973953,57.9830423 29.0086785,57.9999282 C21.3199616,58.0168141 13.9406842,54.9728268 8.5,49.54 L13.95,44.09 C14.9898947,43.0445597 14.9898947,41.3554403 13.95,40.31 L13.87,40.24 C13.5890067,39.9685314 13.1942697,39.8493655 12.81,39.92 C10.6751277,40.2298263 8.56376553,39.2234762 7.46,37.37 C6.44919152,35.6837305 6.46075632,33.5750809 7.49,31.9 C8.3382279,30.4959041 9.78540121,29.56025 11.4139222,29.363031 C13.0424432,29.165812 14.6711274,29.7289702 15.83,30.89 C17.0226062,32.0744456 17.5732642,33.7599058 17.31,35.42 C17.2471453,35.7898337 17.3619829,36.1676862 17.62,36.44 L17.72,36.54 C18.7614924,37.5800046 20.4485076,37.5800046 21.49,36.54 L29.03,29 L36.51,36.48 L36.58,36.54 C37.6198944,37.5815379 37.6198944,39.2684621 36.58,40.31 L36.47,40.41 C36.2009187,40.673523 35.8202116,40.7892281 35.45,40.72 C33.3338613,40.4011852 31.2331159,41.3836265 30.1211815,43.2120924 C29.009247,45.0405583 29.1033949,47.3577675 30.36,49.09 C30.42,49.18 30.5,49.27 30.57,49.36 C30.8547396,49.7055698 31.1843141,50.0116032 31.55,50.27 C31.6701051,50.3688955 31.7970922,50.4591231 31.93,50.54 C33.6890841,51.6123107 35.9095597,51.5707902 37.627326,50.4334661 C39.3450924,49.296142 40.2503312,47.2681434 39.95,45.23 C39.8793779,44.8426804 39.9983252,44.4449504 40.27,44.16 L40.35,44.09 C41.2408836,43.1905583 42.6424417,43.0441269 43.7,43.74 C43.7713356,43.7834515 43.8383126,43.8336843 43.9,43.89 C43.9547958,43.9274689 44.0051233,43.971086 44.05,44.02 L49.48,49.45 Z" id="Shape" fill="#F0C419"/></g></g></svg>
