<svg id="Capa_1" data-name="Capa 1" xmlns="http://www.w3.org/2000/svg" viewBox="0 0 512 512"><defs><style>.cls-1{fill:#4067b5;}.cls-2{fill:#0ee5c3;}.cls-3{fill:#0ac6a2;}.cls-4{fill:#0f296a;}</style></defs><title>employee (2)</title><path class="cls-1" d="M350.7,227.93a8.48,8.48,0,0,1-4.49-1.29l-86-53.73-86,53.73a8.48,8.48,0,0,1-9-14.38l90.46-56.54a8.48,8.48,0,0,1,9,0l90.46,56.54a8.48,8.48,0,0,1-4.5,15.67Z"/><path class="cls-2" d="M381.8,211H138.69a25.47,25.47,0,0,0-25.44,25.44V338.18a25.47,25.47,0,0,0,25.44,25.44H381.8a25.47,25.47,0,0,0,25.44-25.44V236.41A25.47,25.47,0,0,0,381.8,211Z"/><path class="cls-2" d="M265.9,120.51H254.59a25.44,25.44,0,0,0,0,50.88H265.9a25.44,25.44,0,1,0,0-50.88Z"/><path class="cls-1" d="M355.2,212.26l-90.46-56.54a8.46,8.46,0,0,0-5.06-1.27v18.82l.57-.36,86,53.73a8.48,8.48,0,1,0,9-14.38Z"/><path class="cls-3" d="M381.8,211H259.68V363.62H381.8a25.47,25.47,0,0,0,25.44-25.44V236.41A25.47,25.47,0,0,0,381.8,211Z"/><path class="cls-3" d="M265.9,120.51h-6.22v50.88h6.22a25.44,25.44,0,1,0,0-50.88Z"/><path class="cls-4" d="M175.44,244.89h-11.3a19.81,19.81,0,0,0-19.79,19.79v45.23a19.81,19.81,0,0,0,19.79,19.79h11.3a19.82,19.82,0,0,0,19.79-19.79V264.68A19.82,19.82,0,0,0,175.44,244.89Zm2.83,65a2.83,2.83,0,0,1-2.83,2.82h-11.3a2.83,2.83,0,0,1-2.83-2.82V264.68a2.83,2.83,0,0,1,2.83-2.83h11.3a2.83,2.83,0,0,1,2.83,2.83Z"/><path class="cls-4" d="M234.81,244.89H212.19a8.48,8.48,0,0,0-8.48,8.48v67.85a8.48,8.48,0,0,0,17,0V295.77h14.14A19.8,19.8,0,0,0,254.59,276V264.68A19.81,19.81,0,0,0,234.81,244.89Zm2.82,31.1a2.83,2.83,0,0,1-2.82,2.82H220.67v-17h14.14a2.83,2.83,0,0,1,2.82,2.83Z"/><path class="cls-4" d="M367.67,244.89a8.48,8.48,0,0,0-8.48,8.48v31.92l-17.86-35.71a8.48,8.48,0,0,0-16.07,3.79v67.85a8.49,8.49,0,0,0,17,0V289.3L360.08,325a8.49,8.49,0,0,0,7.59,4.69,8.64,8.64,0,0,0,1.94-.23,8.48,8.48,0,0,0,6.54-8.25V253.37A8.48,8.48,0,0,0,367.67,244.89Z"/><path class="cls-4" d="M308.3,261.85a8.48,8.48,0,0,0,0-17H274.38a8.48,8.48,0,0,0-8.48,8.48v67.85a8.48,8.48,0,0,0,8.48,8.48H308.3a8.49,8.49,0,0,0,0-17H282.86v-17h22.62a8.48,8.48,0,0,0,0-17H282.86v-17Z"/></svg>