<svg id="Capa_1" data-name="Capa 1" xmlns="http://www.w3.org/2000/svg" viewBox="0 0 512 512"><defs><style>.cls-1{fill:#4067b5;}.cls-2{fill:#0ee5c3;}.cls-3{fill:#1b9e85;}</style></defs><title>employee (2)</title><path class="cls-1" d="M253.84,147.8a97.14,97.14,0,1,1-97.19,97.09A97.06,97.06,0,0,1,253.84,147.8Z"/><path class="cls-1" d="M253.84,147.8a97.32,97.32,0,0,1,87.49,54.8A107.83,107.83,0,0,1,345,230.26,106.18,106.18,0,0,1,238.8,336.43a111.2,111.2,0,0,1-25.33-3,97.19,97.19,0,0,1,40.37-185.6Z"/><path class="cls-2" d="M314.59,169.1a96.79,96.79,0,0,1,35,59,6.89,6.89,0,0,1-.91-1.92,16.91,16.91,0,0,1-4.24,1l-.1.1c-.91,1.31,0,.71-1.51,2-1.82,1.61-3.13,3.73-5.15,4.94-.2,2.22.2,2.73-.4,5.35-.2,1-1.31,3.64-2.63,3.43-.4-.1-2.12-4.34-2.52-5.45a43,43,0,0,1-1.92-5.75c-.3-1.21-.5-3.53-.7-4.34-1.32.2-1.32,1-2.53.2-.91-.6-.5-1-1-2-1-1-2.12-2-3.23-3-.8-.31-4,.2-5.44.1-2.43-.2-2.63-.1-4.14-2-2.63.1-2.32,1.11-4.85-1.11-1.61-1.41-1.31-3.63-3.73-2.32-.1,2,.91,2.52,1.82,3.43a8,8,0,0,1,1.81,2.22s.2.91.2,1.11c2.33.1,2.93-1,4.14-1.92,1.21,1.21,0,1.42,1.82,2.32,1.41.71,1.11.31,2.12,1.52.5,1.61-3.23,5.85-4.44,6.56-.91.6-1.42.2-2.22.91-1.21,1,.2.9-2,1.71s-4.64,2.62-7.07,2.83c-.5-1.42-1-2.93-1.61-4.34-1.51-5.05-1.51-3-3.13-5.65-.71-1.11-.4-1.82-.91-2.83-.3-.71-.91-1.11-1.31-2-.71-1.41-1.51-3.63-3.23-3.43-.3,1.11,1.51,5,2,5.85s1.21,1.32,1.41,2.63c.31,1.81-.1,1.61.91,2.82,2.12,2.53-.1,2.12,3.13,4.54,2.42,1.82,1.82,2.43,2.83,4.85,1.61.4,6.35-1.72,7.16-1,1,1.72-1.11,4.44-1.61,5.95-1.72,5.05-4.75,5-7.17,8.78-1.31,2.12-1.82,2.32-3,4.85-1.31,2.82,2.73,10.6.31,13.82-.51.71-2.22,1.22-4.34,3.44-2.22,2.42.1,2-.81,6.15-.71.91-1.51,1-2.32,1.72a18,18,0,0,1-.61,2.92c-.6,1.42-.6.71-1.41,1.82-.61.91-.5,1.31-1.21,2.12a10.74,10.74,0,0,1-1.41,1.51c-2.73,2.53-8.48,2.53-9,2.22-1.41-1.21-.4-1.51-.8-3.13a14.19,14.19,0,0,0-1.72-3.73l-.1-.1a5.72,5.72,0,0,1-.71-1.62c-1.11-3.53-.7-6.25-2.62-9.79-2.42-4.64,1.41-7.06,1.21-9.68-.1-.71-.3-1.11-.4-1.72-.51-2.93-.71-5.45-2.63-7.77-2.12-2.42-1.81-1.62-1.11-5.65.91-4.64-1.11-3.43-3.93-3.63-1.42-4.24-4-2.12-6.76-.91-1.72.8-2.32-.21-4.24,0-4.24.6-.91,2.42-6.56-2.12-2.32-1.92-.81-.91-2.22-3.23-.51-.81-1.92-2-2.53-2.83-2.12-2.72.41-5.45,0-8.47-.6-5.76-1.61-.71,1.62-7.67,1.71-3.74,4.24-3.74,4.84-5.35s.2-2.53,1.21-3.84c.91-1.11,2.22-.91,2.83-2.62.71-2.12-.71-2.43-2.22-2.43-.61-2.22-.61-1.71-.2-3.73.3-1.11,0-1.71.3-2.82.61-2.83,5.55,0,6.86-1.22a3.57,3.57,0,0,0,0-3.63c-.8-1.21-1.81-1-2.32-2.12,1.21-.81.31-.1,1.31-.3,1.22-.31,1-.61,2.53-.91,1.31-.2,2.12-1.41,3.33-2.22,1.82-1.11.91-2.22,3.13-2.52,3.43-.61,1.21-.51,1.61-3.74l1.52-.6c1.11,1.41-.31.8,1,1.81a11.37,11.37,0,0,1,1.12-.6c-.21-1.52-.91-1.21-1.42-3.13-1.71.3-2.32,1.71-3.73,1.21s-1.42-2.42-1.31-4c.5-1.21,3-1.81,3.93-2.12,1.52-.5,1.31-1.61,2.73-3,1.81-1.92.5,0,1.41-2.42,2-.11,1.11-.21,2.32-.81h.2c.71-.31,1.62-.41,2.63-.71,3.43-1.11,4.84-.6,7.26.4,1.92.81,7.77.81,8.18,3.23-1.41,1.52-2.73.41-4.74.51.4,1.92.5,1.92,2.22,2.42.3-.91-.11-.5.3-1.11l1.71.3c.61-1.91,1.22-1.61,3.13-1.91-.3-1.32-.6-.91.1-2,1.92.2.41,0,1.32,1.61,1.41-.2,2.72-1.71,4.64-1.91,1.21-.11,1.11.3,2.82.1,1.42-.1,1.32-.61,2.73-.1.5-.91,0-.91,1.21-1.11,1.82-.31,3.53.8,5.25,1.11-1.31-1.62-2.63-1.32-1-4,2.12-.4,2.22-.1,3.13,1.41.5-.3.71-.6,1-.7ZM159.07,224a96.61,96.61,0,0,1,29.37-50.77c1.11.41,2.62.11,3.73.11.41-.71.61-1.42,1.42-1.72a3.46,3.46,0,0,1,1.11-.1,4.33,4.33,0,0,1,.2,1.11s.1.3,0,.2.1.1.1.2c1.92-1.11.3-1.21,1.41-3.23-1.61-.3-1.41-.1-2.42-1.21a5.69,5.69,0,0,1,4.34-1.41c-.1,1-.61,1-.2,1.82,1.11-.71,1.92-2.53,3.73-2.22a11.94,11.94,0,0,0,1.11.7c-.91.91-2.32.91-3.53,1.41-.5,5.45,1.72.91,1,4.55a4.38,4.38,0,0,0,3.13-2c-.51-.61-1.21-.61-1.62-1.42a3.85,3.85,0,0,1,1.92-2.22,5.31,5.31,0,0,1,2.32-.5c9.89.1,5.15.5,8.28,1.92.7.3,1.91.4,2.32,1,.6.9,0,1.81,1,2.62.9.6,1,0,2.11,1.41a2.07,2.07,0,0,1-2,1.72c-1.72,0-.71-1.11-2.53-.91,0,1.71,1.72,2.32.2,3.23s-.5-.3-1.51.3a.35.35,0,0,1-.2.1l-.2.2c-.2.21-.31.41-.51.51-2.52-.71-2-.4-3.53-2-.61-.6-.61-.81-1.62-.71-.6,0-1.41.31-2-.2,1.21-1.51,1.81-.1,3.53-.91.3-.1,2.22-1.71,2.62-2-.5-1.22-.1-.21-.8-1-1.72-1.82-2.22-1.32-4.65-1.32-1.11,1.32-1.91,2.83-3.13,3.54a2.88,2.88,0,0,1-2.72,0c.5,2.12,1.92.5,2,3.13-.91-.21-1.42-.61-2.32-.31-2,.71-.2.71-.1,1.11,0,0,.9.1,0,.51s-.21-.2-2.12-1.42a10.48,10.48,0,0,0,.8-1.51,46.39,46.39,0,0,0-5.55,2.22,27.59,27.59,0,0,0-5.35,3.43c0,1.92.31.61.51,2.83,2.93.2,1.92,1,4.84,1.81a10.63,10.63,0,0,0,2.12.41c0,1.41-1.21,2.42-.4,3.93,2,1.42,2.12-1.31,2.62-3.12,6.87-1.42,3.53-3.44,5.35-7.17a6.4,6.4,0,0,1,1.21-1.82,29.88,29.88,0,0,1,3.13.31c1.52.3.71.6,2.42,1.41,0,1.31-.7,3.13,1.32,2.72,1.51-.3,1.21-1.51,3-1.81.81,2,.61,2.82,1,5.14,4.44,1.72,2.53,3.13,1.62,6.46.6.31,1.11.51,1.71.81,0,.91-.1,1.92-.1,2.83-.1,0-4.74-1-5.15-1.11.71-2,2-2,2.83-4.14-1.72.3-1.51.81-2.73,1.21a15.85,15.85,0,0,1-3.12.2c-.41,1.31,0-1.21.1.51.1.6.4,0-.1.7-1.52-.7-1-2.42-3.94-.8a11.81,11.81,0,0,0,2,.8c-.1,1.92-.2.51-.61,1.72-1,3.23,2.73,1.21,3.64,1.11-.21,1.71-1.32,1.71-2.83,2.22s-2.12,1.21-3.43,1.51c0-2-.3-.3.61-1.71a12,12,0,0,0-3.54,1.21h-.1c-1.61.6-1.82.7-2,2.82a9.05,9.05,0,0,0-3.93,1.92c-1,.91-1.92,1.82-2.83,2.73-.1.1-.2.1-.2.2.3,2.52,0,2.62-1.51,3.63a13.2,13.2,0,0,0-2.93,1.92c-3.94,3.53-2,1.82-1.82,7.87a15.1,15.1,0,0,1-2.32-.81c-.6-4,.2-2.62-3-3.63-3.43-1-3,.71-4.44,1-1.61.3-2.32-1.41-4.64,0-1.31.91-2.52,1.41-2.82,3-.41,1.91-1.22,3.23-1.11,5.35.2,5.65,5.34,5.95,6.66,3.33.9-1.72.6-2.73,3.53-2.22a7.27,7.27,0,0,1-.51,3.73c-.2.71-.9,1.92-.6,2.83,2,.8,2.12-.71,4.74.9.2,2.63-1.21,5.65.81,7.17,1.61,1.21,1.71.1,3.13-.1s1.31.7,2.72.91c.81-1,.51-.41,1-1.62.91-2.12,1.21-1.11,3.43-2.42a2.13,2.13,0,0,0,.61-.4,11.64,11.64,0,0,0,.8,1.51c1.62-1.92,1.82,0,3.64.5a7.92,7.92,0,0,0,1.81.31c1.32,0,1.52-.61,3.34,0a1.85,1.85,0,0,0,.7.2.1.1,0,0,1,.1.1.35.35,0,0,0,.21.1c.3.3.3.71.6,1.11,1.31,1.21,2.52,2.42,3.84,3.64,2.42,1,2.42-.81,5.24,1.81,1.21,1.11.61,1.11,1.32,2.53a4.35,4.35,0,0,1,.4.7,10.35,10.35,0,0,0,.81,1.92c1.31,1.72,3,.6,4.74,2.32,1,1,.2.71,2.52,1.11,3.53.61,2.12.2,4.85,2.22,1,.71,1.31.3,2.22,1a4.69,4.69,0,0,1-.1,5.55c-3.44,5.05-2.33,4.24-2.43,8.18-.1,2.32-.8,7.06-2.92,7.56-7.77,2.22-3.23,3.74-5.35,7.57-.61,1.11-1,1.42-1.42,2.22-1.51,3.64-.5,4.85-5,4,.4.81.2.2.6.91,1.42,2.12,1.62,3.73-1.21,4.24-2.32.4-1.31,0-1.51,2.62-.91.41-1.31,0-1.92.61.81,1.51.1.2,1.41,1.11l-.6,2.42c-.51,1.92-.71.2-.91,2.42.81.41,1.41.31,2.12,1.31-.1.71-.81,2.83-1,3.94,1.11,1.72,2.12,3.53,4.54,3.73,0,1.42.3,1.32-.91,1.62-1,.2-3.33-.71-4.24-1.21a12.17,12.17,0,0,1-4.23-3.64c-.61-.9-.41-.5-1-1.31-1.21-1.51-.71-2.22-1-3.23-.2-.6-1.11-1.21-.71-3.23.1-.5,1-3.12-.1-2.72s.81.2-.61.91a26.41,26.41,0,0,1-.8-3.54c-.41-2-.81-2-1.11-3.22-.51-2.73.7-3-.61-7.67-.8-3-.5-10.3-1.41-13.93a5.11,5.11,0,0,0-.51-1.52c-.8-1.41-2.92-2-4.54-3.12a.34.34,0,0,1-.2-.11c-2.22-1.61-4.44-7.87-6.26-10.19-.8-1.11-1.41-.6-1.71-2.42-.41-1.62.2-1.31.7-2.73-2.72-5,3.54-5,2.33-11.1a7.22,7.22,0,0,0-1.82-3.23c-1.31.61-.71.91-1.41,2-1-.6-2.12-1.21-3.13-1.81-3.23-3.13-1.52-.81-2.43-2.83-1.91-4.24-3.73-1.82-6-3.94-1-.9-1.21-2.22-2.93-2-2.62.3-1.11.7-3.83-.51a28.55,28.55,0,0,1-6.26-3.73c-.1-3,.81-2.73-1.41-5.55Zm30.48-51.77,1.82-1.52.1.1a1.54,1.54,0,0,1,.3.71C190.15,171.92,190.15,172.12,189.55,172.23Zm83.16,28.86a18,18,0,0,1,2.52,1.51c.81,2.22-.2,1.11,1.42,3.43.9,1.21.7,2.12,1.61,2.83,1.72-.2.2.3,1.31-.81a9.84,9.84,0,0,0,.91-1.11,13.1,13.1,0,0,1-1.41-1.81c1.91-2.53,2.72-1.12,3.23.6,1.21,4.74,3.13,3.33,4.64,3.13s.2.1,1.61.4.71,0,1.72-.2c3.23-.81.71,5.55.4,6.26-1.81.2-1.41-.2-2.72-.3-2.63-.31.2,1.51-6-.41-5.85-1.82-4.64-2.32-5.85,1.82a5.63,5.63,0,0,1-2.52-.81,3.06,3.06,0,0,0-.91-.3h-.1c-.51-.2,0,0-1-1-.91-.81-3.13-1-4.64-1.82,0-1.31,1.21-2.42-.21-4a79.5,79.5,0,0,0-8.17.4c-2.12.4-2.52,2.22-5.45,1.92-1.62-.21-1-.1-1.51-1,.5-.51,0-.2.9-.61a2.28,2.28,0,0,1,.81-.1c4.74-.71,2.32-3.13,5.35-5.45,2.52-2,.51,0,1.92-2.42,1.71-.1,1.41.71,2.92,0,1.22-.61.81-1.11,2.53-1.21,1.51,1.51,1.21,2.42,3.63,3.53A4.85,4.85,0,0,1,271.9,205c1.11,1.62.2,1.11.61,2.12a.37.37,0,0,1,.3-.1h.1c1.31-.6-.6-.81,1.42-2.72-.61-.41-1.12-.81-1.42-1h-.1c-1.61-1-1-.1-3.13-2.73a2.08,2.08,0,0,1-.7-1.91c1.51-.31,1.81.8,3.12,2,.21.21.41.31.61.51h.1Zm33.2,67c-1.41.71-1.51,2.32-2.62,3.23s-2.63.5-3,2.42c-.61,2.32.91,1.62-.71,4.74-.6,1.11-.6,4,.31,4.85,2.72,2.62,4.13-3.94,4.74-6.06.5-1.51.91-3.13,1.41-4.54S307.22,270,305.91,268.1Zm-4.44-69.53c.2,3,2,4.23,3.33,5.65-.2,1.41-.5,1.11-.5,3.13,1.51,1.11,2.62,1.81,4.64,1.21.3-2.43-.51-2.32-1.21-3.94.1-.2.5-.4.5-.5.61-.71.31.3.61-1-1.42-.51-3.84-2-4-3.94.71-.6.51-.2,1-.6,1.11-.71.3.4,1-.91-.61-1.11-1.21-1.31-2.63-.81a12.78,12.78,0,0,0-2.62,1.72Zm-12.72.8c-1-1.31-.9-2-2.72-2a10.26,10.26,0,0,0-2,3.23c-.6,1.82-.2.61-.1,2.53v.2c0,1.21-.3-.2-.1.91,1.41-.31.3-.31,1.41-.61s4.14-1.31,5-1.11c2.12.51,3.93,2.22,6.36.51-.11-2.12-2.73-3-4.55-3.94.11-2,.61-.4.51-2.32a4.44,4.44,0,0,0-1.62.1c-1.41.61-.6.81-.6,1,.1,1.11,1.41-.2,0,1.11a3.75,3.75,0,0,1-1.51.4Zm-36.33-15.14c-.1,3.54,1.11,2.33,2.32,4-.5,1.52-.6.3-1.21,1.82-.5,1.31.1.1-.2,2.32a24.16,24.16,0,0,0,3.43-.4c1.72-.11,1.62-.31,2.22-2-.91-1.11-1.81-2.32-2.82-3.43-1.21-1.82,0-.61-.41-2.12-.3-.51-.5-1.11-.8-1.62A4.25,4.25,0,0,0,252.42,184.23Z"/><path class="cls-2" d="M225.58,84.22c-140.69-26.64-119.09,95.57-49.66,64C207.82,133.77,207.51,94,225.58,84.22Z"/><path class="cls-3" d="M212.26,89.57c-33,3-75.9,29.07-88.81,71.76l-4.55-1c15.75-44.91,50.77-68.53,93.36-70.65v-.1Z"/><path class="cls-2" d="M93.88,221.68c-68.73,125.54,54.09,142.8,45.51,67C135.46,253.87,97.61,242,93.88,221.68Z"/><path class="cls-3" d="M94.88,236.11c-7.26,32.39,4.24,81.14,40.78,106.67l-2.43,4C95.39,318,83.68,277.39,94.88,236.21Z"/><path class="cls-2" d="M184,389.51c98.2,104.25,152.49-7.27,77.81-22.61C227.5,359.84,204.38,392.23,184,389.51Z"/><path class="cls-3" d="M198,393c28.56,17,78.41,21.09,114-5.85l3,3.53C275.94,417.77,233.75,416.35,198,393Z"/><path class="cls-2" d="M371.41,355.7c129.48-61.16,40.17-147.34,2.52-80.94C356.67,305.24,380.29,337.13,371.41,355.7Z"/><path class="cls-3" d="M379.08,343.39c24.93-21.9,44.3-68.12,29.67-110.21l4.24-1.81c13.62,45.61-.81,85.27-34,112Z"/><path class="cls-2" d="M397.14,167C379,25,269.48,83.21,321,139.53,344.56,165.36,382.21,152.75,397.14,167Z"/><path class="cls-3" d="M387.86,155.88c-13.12-30.48-51.07-63.18-95.67-62.37l-.41-4.65C339.42,90,372.62,116,387.86,155.78Z"/></svg>