<svg id="Capa_1" data-name="Capa 1" xmlns="http://www.w3.org/2000/svg" viewBox="0 0 512 512"><defs><style>.cls-1{fill:#fcc69d;}.cls-2{fill:#0f296a;}</style></defs><title>employee (2)</title><polygon class="cls-1" points="239.09 152.64 293.75 152.64 268.61 183.5 268.61 183.5 239.09 152.64"/><path class="cls-1" d="M313,138.66l-4.14-4.44A35.24,35.24,0,0,0,283,123H234v8.19a22.1,22.1,0,0,0,22.21,22.09l41-.08Z"/><path class="cls-1" d="M257.48,355.7h0a52,52,0,0,0,36.33,10.92l2-.17L330,400.69l83.59-72.09-47.41-47.2Z"/><path class="cls-1" d="M172.3,285.35l-65.72,65.72,106,49.66,55.93-56.15h0A91,91,0,0,0,329.63,318l60.56-60.55a17.28,17.28,0,0,0,0-24.44h0a17.28,17.28,0,0,0-24.44,0l-7.67,7.67,16.06-16.05a17.3,17.3,0,0,0,0-24.44h0a17.28,17.28,0,0,0-24.44,0l-16.06,16.06,22.17-22.17a17.28,17.28,0,0,0,0-24.44h0a17.28,17.28,0,0,0-24.44,0L309.2,191.78l28.28-28.28a17.27,17.27,0,0,0,0-24.43h0a17.28,17.28,0,0,0-24.44,0L268.61,183.5"/><path class="cls-1" d="M196.73,260.92l-16.86-16.87a17.28,17.28,0,0,0-24.44,0h0a17.28,17.28,0,0,0,0,24.44l16.87,16.86a17.27,17.27,0,0,0,24.43,0h0A17.27,17.27,0,0,0,196.73,260.92Z"/><path class="cls-1" d="M221.17,236.48l-25.25-25.25a17.28,17.28,0,0,0-24.44,0h0a17.27,17.27,0,0,0,0,24.43l25.25,25.26a17.3,17.3,0,0,0,24.44,0h0A17.28,17.28,0,0,0,221.17,236.48Z"/><path class="cls-1" d="M245.61,212l-31.36-31.36a17.28,17.28,0,0,0-24.44,0h0a17.28,17.28,0,0,0,0,24.44l31.36,31.36a17.28,17.28,0,0,0,24.44,0h0A17.28,17.28,0,0,0,245.61,212Z"/><path class="cls-1" d="M270.05,187.6l-37.48-37.47a17.29,17.29,0,0,0-24.43,0h0a17.28,17.28,0,0,0,0,24.44L245.61,212a17.28,17.28,0,0,0,24.44,0h0A17.3,17.3,0,0,0,270.05,187.6Z"/><path class="cls-2" d="M418,324.17l-15.24-15.11a6.24,6.24,0,0,0-8.79,8.87L409.22,333a6.24,6.24,0,0,0,8.8-8.86Z"/><path class="cls-2" d="M378.43,293.6h0a6.24,6.24,0,1,0,8.84,0A6.25,6.25,0,0,0,378.42,293.61Z"/><path class="cls-2" d="M300.2,362a6.24,6.24,0,0,0-4.92-1.81l-2,.16a45.53,45.53,0,0,1-26.05-5.67l4-4a97,97,0,0,0,62.79-28.32l60.55-60.55a23.54,23.54,0,0,0,0-33.26,23.27,23.27,0,0,0-11.35-6.28,23.51,23.51,0,0,0-17.33-33.09,23.49,23.49,0,0,0-18.32-30.53,23.72,23.72,0,0,0,1.18-7.39A23.53,23.53,0,0,0,314,130.61l-.6-.65A41.63,41.63,0,0,0,283,116.73H234a6.24,6.24,0,0,0-6.24,6.24v8.19a28.61,28.61,0,0,0,1.61,9.46A23.52,23.52,0,0,0,198,169.73a23.51,23.51,0,0,0-19.52,23.17,23.64,23.64,0,0,0,1.18,7.37,23.31,23.31,0,0,0-12.62,6.54,23.59,23.59,0,0,0-4.71,26.54A23.52,23.52,0,0,0,151,272.9l12.45,12.45-61.3,61.31a6.24,6.24,0,1,0,8.82,8.82l61.9-61.89A23.5,23.5,0,0,0,208,272.19l.95,0a23.51,23.51,0,0,0,23.52-23.51c0-.32,0-.64,0-.95l.94,0a23.51,23.51,0,0,0,23.52-23.51c0-.32,0-.63,0-.95l.93,0A23.5,23.5,0,0,0,276,184.92l41.43-41.44a11,11,0,0,1,15.61,15.61L327,165.2l-22.16,22.16a6.24,6.24,0,1,0,8.82,8.83L335.78,174a11,11,0,1,1,15.61,15.61l-6.11,6.11L329.22,211.8a6.24,6.24,0,1,0,8.83,8.83l16.06-16.06a11,11,0,1,1,15.6,15.61l-8.38,8.39-7.67,7.67a6.24,6.24,0,1,0,8.83,8.83l7.67-7.68A11,11,0,0,1,385.77,253l-60.56,60.55a84.52,84.52,0,0,1-56.9,24.79,6.23,6.23,0,0,0-4.19,1.83l-55.94,56.14a6.24,6.24,0,0,0,0,8.83,6.24,6.24,0,0,0,8.82,0l41.15-41.3a58,58,0,0,0,35.23,9.07l32.2,32.2a6.24,6.24,0,0,0,8.83-8.83ZM240.25,129.21H283a29.13,29.13,0,0,1,21.25,9.26l.26.27L267.27,176l-17.14-17.15a28.23,28.23,0,0,0,6,.64h.13l17.13-.09a6.24,6.24,0,0,0,0-12.48h0l-17.12.08h-.08a15.86,15.86,0,0,1-15.86-15.85v-1.95ZM192.32,280.94a11,11,0,0,1-15.61,0l-16.87-16.87a11,11,0,0,1,15.61-15.61l16.87,16.87A11.06,11.06,0,0,1,192.32,280.94ZM220,248.7a11,11,0,0,1-18.84,7.8l-16.87-16.86-8.39-8.39a11,11,0,0,1,7.81-18.84,10.92,10.92,0,0,1,7.8,3.23l25.26,25.25h0A11,11,0,0,1,220,248.7Zm24.44-24.44a10.93,10.93,0,0,1-3.24,7.8,11,11,0,0,1-15.61,0L194.22,200.7a11,11,0,0,1,15.61-15.61l14.29,14.29,17.07,17.08h0A10.93,10.93,0,0,1,244.43,224.26Zm21.2-16.63a11.06,11.06,0,0,1-15.61,0l-31.36-31.36h0l-6.1-6.1a11,11,0,0,1,15.61-15.61L265.63,192a11,11,0,0,1,0,15.61Z"/></svg>