<svg
   xmlns:dc="http://purl.org/dc/elements/1.1/"
   xmlns:cc="http://creativecommons.org/ns#"
   xmlns:rdf="http://www.w3.org/1999/02/22-rdf-syntax-ns#"
   xmlns:svg="http://www.w3.org/2000/svg"
   xmlns="http://www.w3.org/2000/svg"
   version="1.1"
   id="svg3449"
   viewBox="0 0 602.7 208"
   height="100%"
   width="100%">
  <metadata
     id="metadata3463">
    <rdf:RDF>
      <cc:Work
         rdf:about="">
        <dc:format>image/svg+xml</dc:format>
        <dc:type
           rdf:resource="http://purl.org/dc/dcmitype/StillImage" />
        <dc:title></dc:title>
      </cc:Work>
    </rdf:RDF>
  </metadata>
  <defs
     id="defs3461" />
  <g
     id="g3451"
     fill="#686363">
    <path
       id="path3453"
       d="M176.8 87c-2.8 0-5.3.6-7.7 1.7-2.3 1.1-4.4 2.6-6.3 4.6-1.9 1.9-3.5 4.2-4.8 6.8-1.4 2.6-2.5 5.3-3.4 8.2-.9 2.9-1.6 5.9-2.1 9-.5 3.1-.7 6.1-.7 9.1 0 4.8 1.1 8.6 3.4 11.4 2.2 2.8 5.8 4.2 10.6 4.2 2.8 0 5.3-.5 7.7-1.7 2.3-1.1 4.4-2.6 6.3-4.6 1.9-1.9 3.5-4.2 4.9-6.7 1.4-2.6 2.5-5.3 3.4-8.2.9-2.9 1.6-6 2-9.1.5-3.1.7-6.1.7-9.1 0-4.8-1.1-8.5-3.4-11.3-2.3-2.9-5.9-4.3-10.6-4.3m1.7-17c5 0 9.5.7 13.6 2 4 1.3 7.5 3.3 10.4 6 2.9 2.6 5.1 6 6.7 10 1.6 4 2.4 8.7 2.4 14.1 0 7.4-1 14.6-3.1 21.4-2 6.8-5 12.9-9 18.1-4 5.2-8.9 9.4-14.9 12.5-5.9 3.1-12.8 4.7-20.6 4.7-4.9 0-9.4-.7-13.5-2s-7.5-3.3-10.4-6c-2.9-2.6-5.1-6-6.7-10-1.6-4-2.4-8.7-2.4-14.1 0-7.4 1-14.6 3-21.4 2-6.8 5-12.9 9-18.1 4-5.2 8.9-9.4 14.9-12.5 6-3.1 12.8-4.7 20.6-4.7M319.6 114.6c.8-5 2.1-9.9 3.7-14.5 1.6-4.7 3.7-9.1 6.1-13.2 2.5-4.2 5.4-7.9 8.8-11 1.5-1.4 3-2.6 4.7-3.8h-17.5l-16.5 31c-4 7.7-8.3 16.9-12.9 27.8h-.5c-.5-10.1-1-19.2-1.7-27.2l-2.5-31.6h-20.7l-14.3 34.7c-3.2 8.1-6 16.1-8.5 24h-.5c-.8-8.2-1.9-16.5-3.2-24.8l-5.8-33.8h-20.7l16.3 84.5H254l14-35.1c3.9-10 6.8-18.1 8.8-24.4h.5c.3 8.3.7 16.6 1.2 25l2.5 34.4h19.5l17.9-31.5c.3-3.5.7-7 1.2-10.5M118.4 140.2c-1.9 0-3.4-.3-4.4-1s-1.5-1.9-1.5-3.6c0-1 .2-2.7.7-5l20.2-97.2c-4-1.5-9-2.7-15-3.7s-11.9-1.5-17.7-1.5c-3 0-6.1.2-9.4.7-3.2.4-6.4 1.2-9.5 2.3-3.1 1.1-6.1 2.5-9 4.3-2.9 1.8-5.6 4-8.1 6.8s-4.6 6-6.5 9.8c-1.9 3.8-3.3 8.2-4.4 13.2l-1.5 7.1h-15l-.8 3.7-2.8 13.3h15.2L34 160.8c-.8 3.8-1.7 7-2.7 9.8-1 2.7-2.4 5-4 6.8-1.6 1.8-3.5 3.1-5.8 4-2.3.9-5 1.3-8.3 1.3h-.7L8.7 199c1.8.2 3.6.3 5.5.3 6.7 0 12.8-1.1 18.3-3.2s10.1-5.8 13.8-11c1.6-2.3 3-4.9 4.2-8 1.2-3.1 2.2-6.8 3.1-11.1l16-76.9h19.7l3.6-17h-20l1.3-6.1c.9-4.4 2.4-7.9 4.3-10.6 1.9-2.7 4.1-4.9 6.5-6.4 2.4-1.5 4.9-2.6 7.5-3.1 2.6-.5 5.1-.8 7.5-.8 3.5 0 6.9.4 10.2 1.1l-17.9 85.9c-.8 3.5-1.1 6.7-1.1 9.5 0 5.3 1.5 9.4 4.6 12.2 3.1 2.8 7.7 4.1 13.9 4.1 3.7 0 7.4-.4 11.2-1.1l3.8-17.3c-.9.2-2 .4-3.2.5-1.3.2-2.3.2-3.1.2M412.3 21.2H408V40c0 1.9.2 3.8 2.7 3.8.8 0 1.2-.1 1.7-.2v3.8c-.7.2-1.4.4-2.6.4-4.1 0-5.4-1.4-6-2.8-.6-1.4-.6-1.9-.6-7.4V21.2h-3.5v-3.6h3.7V9.7h4.7v7.9h4.3v3.6zM427.1 29.5v-3.7c-.1-1.6-.1-5.1-3.7-5.1-2.4 0-3.1 1.5-3.4 2.5-.4 1.1-.4 2.1-.4 6.3h7.5zm4.4 8.5c0 2 0 3.5-.5 5-1.7 4.7-6.3 4.7-7.8 4.7-1.8 0-5.8-.2-7.6-4.5-.5-1.4-.8-2-.8-13.9 0-6.3.5-12.1 8.1-12.1 1.9 0 7.3 0 8.3 6.4.2 1.5.2 2.3.2 9.7h-11.9c0 2.3-.1 5.3.1 6.4.1 1.1.3 4.2 3.7 4.2 3.4 0 3.7-2.9 3.7-5.9h4.5zM452.5 36.2c0 5.4 0 11.5-8.6 11.5-3.6 0-6.5-1.3-7.5-4.7-.6-1.9-.7-5.1-.7-9.9 0-10.5.3-16 8.7-16 8.1 0 8.1 5.4 8.1 11.2H448c0-5.1 0-7.6-3.7-7.6s-3.8 2.5-3.8 10.8c0 1.2 0 5.4.1 7.9.1 1.5.2 4.5 3.7 4.5s3.8-2.9 3.8-7.8h4.4zM473.5 47.1h-4.7V29.4c0-5.7 0-8.6-3.7-8.6-4 0-4 3.9-4 8.6v17.7h-4.7V5.5h4.7v14.8c.9-1.2 2.4-3.2 5.9-3.2 2 0 3.7.8 4.8 2.1 1.6 1.9 1.6 4.8 1.6 7.6v20.3zM495.6 47.1h-4.8V27.9c0-4.2 0-7.1-3.5-7.1-4 0-4 4-4 7.3v19.1h-4.7V17.6h4.5v2.7c.9-1.1 2.7-3.2 6.3-3.2 6.1 0 6.1 5.2 6.1 9.3v20.7zM512 25.2c-.1-1.7-.4-4.2-3.2-4.2-3.5 0-3.5 2.9-3.5 9 0 .9 0 6.6.1 8.6.1 2.6.1 5.4 3.2 5.4 3.5 0 3.5-3.1 3.5-11.3 0-2.5 0-6-.1-7.5m4.4 17.2c-.5 1.9-1.7 5.2-7.8 5.2-2.9 0-5.7-.9-7.1-3.4-1.1-2-1.2-3.7-1.2-11.1 0-4.1.1-8.7.7-10.8.5-1.8 1.8-5.3 7.8-5.3 3.6 0 6 1.3 7.3 3.8 1 2.1 1 3 1 11.8-.1 2.4-.2 7.8-.7 9.8" />
  </g>
  <path
     id="path3455"
     d="M521.6 5.5h4.8v41.6h-4.8zM542.8 25.2c-.1-1.7-.4-4.2-3.2-4.2-3.5 0-3.5 2.9-3.5 9 0 .9 0 6.6.1 8.6.1 2.6.1 5.4 3.2 5.4 3.5 0 3.5-3.1 3.5-11.3-.1-2.5-.1-6-.1-7.5m4.3 17.2c-.5 1.9-1.7 5.2-7.8 5.2-2.9 0-5.7-.9-7.1-3.4-1.1-2-1.2-3.7-1.2-11.1 0-4.1.1-8.7.7-10.8.5-1.8 1.8-5.3 7.8-5.3 3.6 0 6 1.3 7.3 3.8 1 2.1 1 3 1 11.8 0 2.4-.1 7.8-.7 9.8M564.6 25.3c-.1-2.8-1.3-4.8-4-4.8-3.9 0-3.9 4.2-3.9 8.9 0 2.9 0 8.2.2 10.3.1 2.3 1.1 4.1 3.6 4.1 2.2 0 3.7-1.4 4.1-3.6.2-1.4.2-5.7.2-7.3 0-.2-.1-6.8-.2-7.6m4.8-7.7v28c0 3.8 0 5-.5 6.6-1.4 4.2-6.1 4.8-8.7 4.8-3.5 0-8-1.5-8-7.5h4.3c.1 1.2.2 3.8 4 3.8 4.1 0 4.1-3.2 4.1-5.8v-3.4c-1.6 2.3-3.7 3.2-6 3.2-2.1 0-4.8-.9-6-3.9-.8-2.2-.8-4.3-.8-11.6 0-5.2.1-7.3.5-9.2.2-1.1 1.3-5.5 6.8-5.5 3.8 0 5.1 2.1 5.8 3.2v-2.7h4.5zM590.8 17.6l-5.1 25.7c-1.4 6.8-1.7 8-2.5 9.6-1.8 3.5-4.5 3.9-7.1 3.9H573v-4.1c3.9.1 6.4.1 6.4-3.4 0-1.2-.5-3.4-.6-3.6l-6.7-28.1h5.1l4.7 23.8 3.8-23.8h5.1z"
     fill="#686363" />
  <path
     id="path3457"
     d="M467.7 93.2c0-1.9-.8-3.6-2.3-5-1.5-1.4-3.8-2.1-6.9-2.1-2.3 0-4.7.5-7.1 1.4-2.4.9-4.7 2.3-6.8 4.1-2.1 1.8-4 4.1-5.7 6.7-1.7 2.6-3 5.7-4 9.1 6.2 0 11.3-.4 15.5-1.2 4.2-.8 7.6-1.9 10.1-3.2 2.6-1.3 4.4-2.9 5.5-4.6 1.1-1.7 1.7-3.4 1.7-5.2m20.7 0c0 4.7-1.1 8.9-3.4 12.7-2.3 3.7-5.7 6.9-10.2 9.6-4.5 2.6-10 4.7-16.6 6.1-6.6 1.4-14.1 2.1-22.7 2.1-1 0-2.2 0-3.7-.1v.5c0 3.1.4 5.8 1.3 8.1s2.2 4.2 3.9 5.6c1.7 1.5 3.8 2.5 6.2 3.2 2.4.7 5.2 1 8.2 1 4.5 0 9.3-.5 14.3-1.7 5-1.1 9.4-2.6 13.1-4.4l-3.7 18.1c-3.6 1.5-7.7 2.6-12.3 3.5-4.6.9-9.6 1.4-14.8 1.4-6.2 0-11.6-.8-16.2-2.5s-8.4-4-11.4-7.1c-3-3-5.2-6.7-6.7-10.9s-2.2-8.8-2.2-13.9c0-4.5.5-8.9 1.4-13.3.9-4.4 2.3-8.6 4.1-12.7 1.8-4 4-7.8 6.7-11.2 2.7-3.5 5.8-6.5 9.3-9 3.5-2.5 7.4-4.5 11.8-6s9.1-2.2 14.2-2.2c4.5 0 8.5.5 12.1 1.7 3.6 1.1 6.7 2.7 9.2 4.7 2.5 2 4.5 4.4 5.9 7.3 1.5 2.7 2.2 5.9 2.2 9.4M508.9 156.6h-20.6l17.5-84.5h17.5v10.6h.3c1.4-1.7 3-3.3 4.9-4.8 1.9-1.5 4-2.9 6.2-4.1 2.3-1.2 4.7-2.1 7.4-2.8 2.6-.7 5.4-1 8.3-1 3.3 0 6.4.5 9.4 1.4 2.9 1 5.5 2.4 7.8 4.2 2.2 1.9 4 4.1 5.3 6.8 1.3 2.7 1.9 5.8 1.9 9.2 0 2.2-.2 4.5-.6 7.2-.4 2.6-.9 5.2-1.4 7.8l-10.4 49.9h-20.6l10.6-51.4c.3-1.8.6-3.4.8-4.8.2-1.4.3-2.6.3-3.6 0-3-.8-5.3-2.5-6.9-1.7-1.6-4.2-2.4-7.6-2.4-4.2 0-8.2 1.2-11.9 3.5-3.7 2.3-6.7 5.5-9.2 9.4-.5.8-.9 1.6-1.4 2.4-.4.9-.9 1.9-1.3 3s-.8 2.4-1.2 3.8c-.4 1.4-.8 3.1-1.2 5l-8.3 42.1zM386.6 93.5c-.5-.8-1.2-1.5-2.1-2.3-.8-.8-1.8-1.5-3-2.1-1.1-.6-2.4-1.1-3.7-1.5-1.4-.4-2.8-.6-4.4-.6-2.8 0-5.3.7-7.5 2s-4.2 3.1-6 5.2c-1.8 2.2-3.3 4.7-4.6 7.5-1.3 2.8-2.3 5.7-3.1 8.8-.8 3-1.4 6-1.8 8.9-.4 2.9-.6 5.7-.6 8.2 0 4.9.8 8.6 2.3 10.9 1.5 2.3 3.8 3.5 6.8 3.5 2.8 0 5.6-.9 8.4-2.7 2.8-1.8 5.4-4.2 7.6-7.4 3.4-4.7 6-11.2 7.8-19.4l3.9-19zm-10.8 53.8c-2.9 3.8-6.3 6.7-10.1 8.6-3.8 1.9-8 2.9-12.4 2.9-3.8 0-7.2-.7-10.2-2.1-3-1.4-5.6-3.4-7.7-5.9-2.1-2.6-3.7-5.6-4.8-9.2-1.1-3.6-1.6-7.6-1.6-12 0-4.7.4-9.5 1.2-14.2.8-4.8 1.9-9.3 3.5-13.7 1.5-4.4 3.5-8.5 5.8-12.3 2.3-3.8 5-7.2 8-10s6.4-5.1 10.1-6.7c3.7-1.6 7.8-2.4 12.2-2.4 4 0 7.8.8 11.4 2.5 3.6 1.7 6.7 4.3 9.4 7.9h.3l3.1-8.4h17.6l-17.7 85.3c-1.5 7.1-3.5 13.3-6.2 18.5-2.7 5.3-6.1 9.6-10.1 13.1s-8.8 6-14.4 7.7c-5.6 1.7-11.9 2.5-19.1 2.5-4.9 0-9.9-.4-14.9-1.2s-9.6-2-14-3.7l3.6-17c3.5 1.5 7.3 2.6 11.4 3.6 4 .9 8.1 1.4 12.2 1.4 5 0 9.3-.6 12.8-1.8 3.5-1.2 6.6-3 9-5.4 2.5-2.4 4.5-5.4 6.1-8.9 1.6-3.6 2.9-7.7 4-12.4.6-2.8 1.3-5 1.9-6.6h-.4z"
     fill="#9FB65D" />
</svg>
