<?xml version="1.0"?>
<svg xmlns="http://www.w3.org/2000/svg" height="512px" viewBox="0 0 512 512" width="512px" class=""><g><path d="m512 256c0 141.386719-114.613281 256-256 256s-256-114.613281-256-256 114.613281-256 256-256 256 114.613281 256 256zm0 0" fill="#f03049" data-original="#F03049" class="" style="fill:#0F296A" data-old_color="#0f296a"/><path d="m512 256c0-7.40625-.332031-14.730469-.949219-21.976562l-118.34375-118.34375-275 279.207031 116.148438 116.148437c7.296875.625 14.679687.964844 22.144531.964844 141.386719 0 256-114.613281 256-256zm0 0" fill="#d1093a" data-original="#D1093A" class="" style="fill:#071027" data-old_color="#0F296A"/><path d="m452 256c0 108.246094-87.753906 196-196 196s-196-87.753906-196-196 87.753906-196 196-196 196 87.753906 196 196zm0 0" fill="#414952" data-original="#414952" class="" style="fill:#21BAA1" data-old_color="#0F7666"/><path d="m256 60c-.117188 0-.238281.003906-.355469.003906v391.992188c.117188 0 .234375.003906.355469.003906 108.246094 0 196-87.753906 196-196 0-108.25-87.753906-196-196-196zm0 0" fill="#333940" data-original="#333940" class="" style="fill:#0F7666" data-old_color="#0f7666"/><path d="m416.652344 256c0-88.726562-71.925782-160.652344-160.652344-160.652344s-160.652344 71.925782-160.652344 160.652344c0 26.203125 6.273438 50.941406 17.402344 72.796875h286.5c11.125-21.855469 17.402344-46.59375 17.402344-72.796875zm0 0" fill="#fff" data-original="#FFF" class=""/><path d="m416.652344 256c0-88.726562-71.925782-160.652344-160.652344-160.652344-.117188 0-.238281.003906-.355469.003906v233.445313h143.605469c11.125-21.855469 17.402344-46.59375 17.402344-72.796875zm0 0" fill="#dce1eb" data-original="#DCE1EB" class=""/><path d="m177.5 356h157v43h-157zm0 0" fill="#ffd400" data-original="#FFD400" class="active-path" style="fill:#56D3BF" data-old_color="#39E4C9"/><path d="m255.644531 356h78.855469v43h-78.855469zm0 0" fill="#fdba12" data-original="#FDBA12" class="" style="fill:#39E4C9" data-old_color="#0F7666"/><path d="m246 102.5h20v44.125h-20zm0 0" fill="#414952" data-original="#414952" class="" style="fill:#21BAA1" data-old_color="#0F7666"/><path d="m255.644531 102.5h10.355469v44.125h-10.355469zm0 0" fill="#333940" data-original="#333940" class="" style="fill:#0F7666" data-old_color="#0f7666"/><path d="m326.265625 171.597656 31.203125-31.203125 14.140625 14.144531-31.199219 31.199219zm0 0" fill="#333940" data-original="#333940" class="" style="fill:#0F7666" data-old_color="#0f7666"/><path d="m140.386719 154.53125 14.140625-14.140625 31.203125 31.199219-14.144531 14.144531zm0 0" fill="#414952" data-original="#414952" class="" style="fill:#21BAA1" data-old_color="#0F7666"/><path d="m102.5 246h44.125v20h-44.125zm0 0" fill="#414952" data-original="#414952" class="" style="fill:#21BAA1" data-old_color="#0F7666"/><path d="m365.375 246h44.125v20h-44.125zm0 0" fill="#333940" data-original="#333940" class="" style="fill:#0F7666" data-old_color="#0f7666"/><path d="m270.140625 345.136719-37.945313-19.226563 100.644532-141.960937zm0 0" fill="#f03049" data-original="#F03049" class="" style="fill:#0F296A" data-old_color="#0f296a"/><path d="m286.160156 320.324219c0 16.65625-13.503906 30.160156-30.160156 30.160156s-30.160156-13.503906-30.160156-30.160156c0-16.660157 13.503906-30.164063 30.160156-30.164063s30.160156 13.503906 30.160156 30.164063zm0 0" fill="#414952" data-original="#414952" class="" style="fill:#21BAA1" data-old_color="#0F7666"/><path d="m256 290.160156c-.121094 0-.238281.011719-.355469.011719v60.304687c.117188 0 .234375.007813.355469.007813 16.65625 0 30.160156-13.503906 30.160156-30.160156 0-16.660157-13.503906-30.164063-30.160156-30.164063zm0 0" fill="#333940" data-original="#333940" class="" style="fill:#0F7666" data-old_color="#0f7666"/></g> </svg>
