<?xml version="1.0" encoding="utf-8"?>
<!-- Generator: Adobe Illustrator 24.0.0, SVG Export Plug-In . SVG Version: 6.00 Build 0)  -->
<svg version="1.1" id="Layer_1" xmlns="http://www.w3.org/2000/svg" xmlns:xlink="http://www.w3.org/1999/xlink" x="0px" y="0px"
	 viewBox="0 0 512 512" style="enable-background:new 0 0 512 512;" xml:space="preserve">
<style type="text/css">
	.st0{fill:#15DABD;}
	.st1{fill:#232E7A;}
	.st2{fill:#3342AE;}
	.st3{fill:#77D2FF;}
	.st4{fill:#4FBBFF;}
	.st5{fill:#0080F4;}
	.st6{fill:#1A9172;}
	.st7{fill:#27A3FF;}
	.st8{fill:#25AE88;}
	.st9{fill:#61B872;}
	.st10{fill:#4159CE;}
	.st11{fill:#2B3B89;}
	.st12{fill:#B8FFFD;}
	.st13{fill:#176EA3;}
	.st14{fill:#B5FCFF;}
	.st15{fill:#99E0E0;}
	.st16{fill:#3D3D3D;}
	.st17{fill:#AAE8DC;}
	.st18{fill:#F3F3F3;}
	.st19{fill:#E4E4E4;}
	.st20{fill:#293A8E;}
	.st21{fill:#2E4099;}
	.st22{fill:#55897F;}
	.st23{fill:#E5E5E5;}
</style>
<g>
	<circle class="st0" cx="256" cy="256" r="200"/>
	<path class="st12" d="M277,134.3c-5.7-4.3-12.5-6.6-19.7-6.6c-7.2,0-14,2.3-19.7,6.7c-2.1,1.6-2.5,4.5-0.9,6.6
		c1.6,2.1,4.5,2.5,6.6,0.9c4.1-3.1,8.9-4.7,14-4.7c5.1,0,9.9,1.6,14,4.7c2.1,1.6,5,1.2,6.6-0.9C279.5,138.8,279.1,135.9,277,134.3
		L277,134.3z"/>
	<path class="st12" d="M284.9,119.9c-8-6.1-17.5-9.3-27.6-9.3c-10.1,0-19.6,3.2-27.6,9.3c-2.1,1.6-2.5,4.5-0.9,6.6
		c1.6,2.1,4.5,2.5,6.6,0.9c6.4-4.8,13.9-7.4,21.9-7.4c8,0,15.5,2.5,21.9,7.4c2.1,1.6,5,1.2,6.6-0.9
		C287.4,124.5,287,121.5,284.9,119.9z"/>
	<path class="st12" d="M292.5,106c-10.2-7.7-22.4-11.8-35.2-11.8c-12.8,0-25,4.1-35.2,11.9c-2.1,1.6-2.5,4.5-0.9,6.6
		c1.6,2.1,4.5,2.5,6.6,0.9c8.6-6.5,18.8-10,29.5-10c10.7,0,20.9,3.4,29.5,9.9c2.1,1.6,5,1.2,6.6-0.9
		C295,110.5,294.6,107.5,292.5,106z"/>
	<path class="st7" d="M257.3,148.8c-2.6,0-4.7,2.1-4.7,4.7v41.4c0,2.6,2.1,4.7,4.7,4.7s4.7-2.1,4.7-4.7v-41.4
		C262.1,150.9,259.9,148.8,257.3,148.8z"/>
	<path class="st7" d="M276.7,218.9h-38.8v-20.7c0-2.9,2.3-5.2,5.2-5.2h28.5c2.9,0,5.2,2.3,5.2,5.2L276.7,218.9L276.7,218.9z"/>
	<path class="st13" d="M271.6,193.1h-19.4c2.9,0,5.2,2.3,5.2,5.2v20.7h19.4v-20.7C276.7,195.4,274.4,193.1,271.6,193.1z"/>
	<path class="st14" d="M354.4,284.3h-194V219c0-3.6,2.9-6.5,6.5-6.5h181.1c3.6,0,6.5,2.9,6.5,6.5L354.4,284.3L354.4,284.3z"/>
	<path class="st15" d="M347.9,212.5h-19.4c3.6,0,6.5,2.9,6.5,6.5v65.3h19.4V219C354.4,215.4,351.5,212.5,347.9,212.5z"/>
	<path class="st2" d="M354.4,231.9h-194V219c0-3.6,2.9-6.5,6.5-6.5h181.1c3.6,0,6.5,2.9,6.5,6.5L354.4,231.9L354.4,231.9z"/>
	<path class="st13" d="M347.9,212.5h-19.4c3.6,0,6.5,2.9,6.5,6.5v12.9h19.4V219C354.4,215.4,351.5,212.5,347.9,212.5z"/>
	<path class="st16" d="M171.6,397.1h-15.5c-2.9,0-5.2-2.3-5.2-5.2V355h25.9v36.9C176.8,394.7,174.5,397.1,171.6,397.1z"/>
	<path class="st16" d="M358.6,397.1H343c-2.9,0-5.2-2.3-5.2-5.2V355h25.9v36.9C363.7,394.7,361.4,397.1,358.6,397.1z"/>
	<path class="st2" d="M370.2,349.7H144.5v-59.6c0-7.1,5.8-12.9,12.9-12.9h199.9c7.1,0,12.9,5.8,12.9,12.9V349.7z"/>
	<path class="st13" d="M357.3,277.2h-19.4c7.1,0,12.9,5.8,12.9,12.9v59.6h19.4v-59.6C370.2,283,364.4,277.2,357.3,277.2L357.3,277.2
		z"/>
	<path class="st7" d="M160.3,277.2h-24c-6,0-10.9-4.9-10.9-10.9v-0.2c0-6,4.9-10.9,10.9-10.9h3.9c11.1,0,20.1,9,20.1,20.1V277.2z"/>
	<path class="st13" d="M354.4,277.2h24c6,0,10.9-4.9,10.9-10.9v-0.2c0-6-4.9-10.9-10.9-10.9h-3.9c-11.1,0-20.1,9-20.1,20.1
		L354.4,277.2L354.4,277.2z"/>
	<path class="st17" d="M180.1,327.5h-35.6v-32.3h35.6c8.9,0,16.2,7.2,16.2,16.2C196.2,320.2,189,327.5,180.1,327.5z"/>
	<path class="st17" d="M334.6,327.5h35.6v-32.3h-35.6c-8.9,0-16.2,7.2-16.2,16.2C318.5,320.2,325.7,327.5,334.6,327.5z"/>
	<path class="st17" d="M350.8,295.1h19.4v32.3h-19.4V295.1z"/>
	<path class="st18" d="M370.2,363.8H144.5c-5.4,0-9.7-4.3-9.7-9.7c0-5.4,4.3-9.7,9.7-9.7h225.7c5.4,0,9.7,4.3,9.7,9.7
		C379.9,359.5,375.6,363.8,370.2,363.8z"/>
	<path class="st19" d="M370.2,344.4h-19.4c5.4,0,9.7,4.3,9.7,9.7s-4.3,9.7-9.7,9.7h19.4c5.4,0,9.7-4.3,9.7-9.7
		C379.9,348.8,375.6,344.4,370.2,344.4z"/>
	<g>
		<path class="st14" d="M217.5,295.3c-2.6,0-4.7,2.1-4.7,4.7v22.5c0,2.6,2.1,4.7,4.7,4.7c2.6,0,4.7-2.1,4.7-4.7V300
			C222.3,297.4,220.2,295.3,217.5,295.3z"/>
		<path class="st14" d="M237.4,295.3c-2.6,0-4.7,2.1-4.7,4.7v22.5c0,2.6,2.1,4.7,4.7,4.7c2.6,0,4.7-2.1,4.7-4.7V300
			C242.2,297.4,240,295.3,237.4,295.3z"/>
		<path class="st14" d="M257.3,295.3c-2.6,0-4.7,2.1-4.7,4.7v22.5c0,2.6,2.1,4.7,4.7,4.7s4.7-2.1,4.7-4.7V300
			C262.1,297.4,259.9,295.3,257.3,295.3z"/>
		<path class="st14" d="M277.2,295.3c-2.6,0-4.7,2.1-4.7,4.7v22.5c0,2.6,2.1,4.7,4.7,4.7s4.7-2.1,4.7-4.7V300
			C282,297.4,279.8,295.3,277.2,295.3z"/>
		<path class="st14" d="M297.1,295.3c-2.6,0-4.7,2.1-4.7,4.7v22.5c0,2.6,2.1,4.7,4.7,4.7s4.7-2.1,4.7-4.7V300
			C301.8,297.4,299.7,295.3,297.1,295.3z"/>
	</g>
</g>
</svg>
