<?xml version="1.0" encoding="utf-8"?>
<!-- Generator: Adobe Illustrator 24.0.0, SVG Export Plug-In . SVG Version: 6.00 Build 0)  -->
<svg version="1.1" id="Layer_1" xmlns="http://www.w3.org/2000/svg" xmlns:xlink="http://www.w3.org/1999/xlink" x="0px" y="0px"
	 viewBox="0 0 512 512" style="enable-background:new 0 0 512 512;" xml:space="preserve">
<style type="text/css">
	.st0{fill:#15DABD;}
	.st1{fill:#232E7A;}
	.st2{fill:#3342AE;}
	.st3{fill:#77D2FF;}
	.st4{fill:#4FBBFF;}
	.st5{fill:#0080F4;}
	.st6{fill:#1A9172;}
	.st7{fill:#27A3FF;}
	.st8{fill:#25AE88;}
	.st9{fill:#61B872;}
	.st10{fill:#4159CE;}
	.st11{fill:#2B3B89;}
	.st12{fill:#B8FFFD;}
	.st13{fill:#176EA3;}
	.st14{fill:#B5FCFF;}
	.st15{fill:#99E0E0;}
	.st16{fill:#3D3D3D;}
	.st17{fill:#AAE8DC;}
	.st18{fill:#F3F3F3;}
	.st19{fill:#E4E4E4;}
	.st20{fill:#293A8E;}
	.st21{fill:#2E4099;}
	.st22{fill:#55897F;}
	.st23{fill:#E5E5E5;}
</style>
<g>
	<circle class="st0" cx="256" cy="256" r="200"/>
	<path class="st2" d="M382.6,162v31.3c-0.3,42.5-12.4,84.1-35,120.1c-14.3,23.1-31.5,44.1-51.3,62.7c-12,11.6-25.1,22.1-39,31.3
		c-13.9-9.3-26.9-19.7-39-31.3c-19.8-18.5-37.1-39.6-51.3-62.7c-22.6-36-34.8-77.6-35-120.1V162c24.4-10.6,42.7-31.8,49.7-57.5
		h151.3C339.9,130.2,358.2,151.3,382.6,162z"/>
	<path class="st20" d="M382.6,162v31.3c-0.3,42.5-12.4,84.1-35,120.1c-14.3,23.1-31.5,44.1-51.3,62.7c-12,11.6-25.1,22.1-39,31.3
		c0,0-1.9-1.2-5.2-3.6c11.9-8.4,23.2-17.7,33.7-27.8c19.8-18.5,37.1-39.6,51.3-62.7c22.6-36,34.8-77.6,35-120.1V162
		c-24.4-10.6-42.7-31.8-49.7-57.5h10.4C339.9,130.2,358.2,151.3,382.6,162z"/>
	<path class="st21" d="M408.7,313.4l-31.3,31.3l31.3,31.3H296.2c19.8-18.5,37.1-39.6,51.3-62.7H408.7z"/>
	<path class="st17" d="M199.8,209h114.9c5.8,0,10.4,4.7,10.4,10.4v88.8c0,5.8-4.7,10.4-10.4,10.4H199.8c-5.8,0-10.4-4.7-10.4-10.4
		v-88.8C189.3,213.7,194,209,199.8,209z"/>
	<path class="st22" d="M325.1,219.4v88.8c0,5.8-4.7,10.4-10.4,10.4h-10.4c5.8,0,10.4-4.7,10.4-10.4v-88.8c0-5.8-4.7-10.4-10.4-10.4
		h10.4C320.4,209,325.1,213.7,325.1,219.4z"/>
	<path class="st23" d="M299,156.7V209h-20.9v-41.8c0-5.8-4.7-10.4-10.4-10.4h-20.9c-5.8,0-10.4,4.7-10.4,10.4V209h-20.9v-52.2
		c0-11.5,9.4-20.9,20.9-20.9h41.8C289.6,135.8,299,145.2,299,156.7z"/>
	<path class="st21" d="M218.2,376.1H105.7l31.3-31.3l-31.3-31.3h61.2C181.2,336.5,198.4,357.6,218.2,376.1z"/>
	<path d="M277.4,245.5c-2.4-9.2-10.7-15.7-20.2-15.7c-11.5,0-20.9,9.3-20.9,20.8c0,9.5,6.4,17.8,15.7,20.2v26.9h10.4v-26.9
		C273.6,268,280.3,256.7,277.4,245.5z"/>
</g>
</svg>
