<?xml version="1.0" encoding="utf-8"?>
<!-- Generator: Adobe Illustrator 19.0.0, SVG Export Plug-In . SVG Version: 6.00 Build 0)  -->
<svg version="1.1" id="Layer_1" xmlns="http://www.w3.org/2000/svg" xmlns:xlink="http://www.w3.org/1999/xlink" x="0px" y="0px"
	 viewBox="175.6 346.4 150 150" style="enable-background:new 175.6 346.4 150 150;" xml:space="preserve">
<style type="text/css">
	.st0{clip-path:url(#SVGID_2_);fill:#1F2D68;}
	.st1{clip-path:url(#SVGID_4_);fill:#1F2D68;}
	.st2{clip-path:url(#SVGID_6_);fill:#1F2D68;}
	.st3{clip-path:url(#SVGID_8_);fill:#1F2D68;}
	.st4{clip-path:url(#SVGID_10_);fill:#1F2D68;}
	.st5{clip-path:url(#SVGID_12_);fill:#1F2D68;}
	.st6{clip-path:url(#SVGID_14_);fill:#1F2D68;}
	.st7{clip-path:url(#SVGID_16_);fill:#1F2D68;}
	.st8{clip-path:url(#SVGID_18_);fill:#1F2D68;}
	.st9{clip-path:url(#SVGID_20_);fill:#1F2D68;}
	.st10{clip-path:url(#SVGID_22_);fill:#1F2D68;}
	.st11{clip-path:url(#SVGID_24_);fill:#1F2D68;}
	.st12{clip-path:url(#SVGID_26_);fill:#1F2D68;}
	.st13{clip-path:url(#SVGID_28_);}
	.st14{clip-path:url(#SVGID_30_);enable-background:new    ;}
	.st15{clip-path:url(#SVGID_32_);}
	.st16{clip-path:url(#SVGID_34_);fill:#1F2D68;}
	.st17{clip-path:url(#SVGID_36_);}
	.st18{clip-path:url(#SVGID_38_);fill:#1F2D68;}
	.st19{clip-path:url(#SVGID_40_);}
	.st20{clip-path:url(#SVGID_42_);fill:#1F2D68;}
	.st21{clip-path:url(#SVGID_44_);}
	.st22{clip-path:url(#SVGID_46_);fill:#1F2D68;}
	.st23{clip-path:url(#SVGID_48_);}
	.st24{clip-path:url(#SVGID_50_);fill:#1F2D68;}
</style>
<g>
	<g>
		<defs>
			<path id="SVGID_1_" d="M321.3,444.3v-7c0-1.1-0.2-1.9-0.7-2.4c-0.5-0.5-1.2-0.7-2.1-0.7c-1.3,0-2.2,0.3-2.8,1
				c-0.6,0.6-0.9,1.7-0.9,3.2v5.9h-1v-10.8h0.8l0.2,1.5h0.1c0.7-1.1,1.9-1.7,3.7-1.7c2.4,0,3.7,1.3,3.7,3.9v7H321.3L321.3,444.3z
				 M297.5,438.9c0,1.5,0.3,2.6,1,3.5c0.7,0.8,1.6,1.2,2.8,1.2s2.1-0.4,2.8-1.2c0.7-0.8,1-2,1-3.5c0-1.5-0.3-2.6-1-3.5
				s-1.6-1.2-2.8-1.2c-1.2,0-2.1,0.4-2.7,1.2C297.8,436.3,297.5,437.5,297.5,438.9z M306,438.9c0,1.8-0.4,3.1-1.3,4.1
				s-2,1.5-3.5,1.5c-0.9,0-1.8-0.2-2.5-0.7c-0.7-0.5-1.3-1.1-1.7-2c-0.4-0.9-0.6-1.8-0.6-2.9c0-1.8,0.4-3.1,1.3-4.1
				c0.9-1,2-1.5,3.5-1.5c1.5,0,2.6,0.5,3.5,1.5C305.6,435.9,306,437.2,306,438.9z M287.5,430.6c0-0.6,0.2-0.9,0.6-0.9
				c0.2,0,0.4,0.1,0.5,0.2c0.1,0.2,0.2,0.4,0.2,0.7c0,0.3-0.1,0.5-0.2,0.7c-0.1,0.2-0.3,0.3-0.5,0.3
				C287.7,431.6,287.5,431.2,287.5,430.6z M288.7,444.3h-1v-10.8h1V444.3z M278.9,443.7c0.6,0,1.2-0.1,1.6-0.2v0.8
				c-0.5,0.2-1,0.2-1.6,0.2c-1,0-1.7-0.3-2.1-0.8c-0.5-0.5-0.7-1.3-0.7-2.4v-6.9h-1.6v-0.6l1.6-0.4l0.5-2.4h0.5v2.6h3.2v0.9h-3.2
				v6.8c0,0.8,0.1,1.4,0.4,1.8C277.8,443.5,278.3,443.7,278.9,443.7z M263.1,443.7c1.1,0,2.1-0.3,2.7-1s1-1.6,1-2.7v-1.1l-1.9,0.1
				c-1.5,0.1-2.6,0.3-3.2,0.7s-1,1-1,1.9c0,0.7,0.2,1.2,0.6,1.6C261.7,443.5,262.3,443.7,263.1,443.7z M267,444.3l-0.2-1.7h-0.1
				c-0.5,0.7-1.1,1.2-1.7,1.5c-0.6,0.3-1.2,0.4-2,0.4c-1.1,0-1.9-0.3-2.5-0.8c-0.6-0.5-0.9-1.3-0.9-2.2c0-1,0.4-1.9,1.3-2.4
				c0.9-0.6,2.1-0.9,3.8-0.9l2.1-0.1v-0.7c0-1-0.2-1.8-0.6-2.3c-0.4-0.5-1.1-0.8-2-0.8c-1,0-2,0.3-3.1,0.8l-0.4-0.9
				c1.2-0.6,2.4-0.8,3.5-0.8c1.2,0,2.1,0.3,2.6,0.9c0.6,0.6,0.9,1.6,0.9,2.9v7.2L267,444.3L267,444.3z M247.5,434.3
				c-1.2,0-2.1,0.4-2.6,1.2c-0.6,0.8-0.9,2-0.9,3.6c0,3,1.2,4.6,3.6,4.6c1.2,0,2.1-0.4,2.7-1.1c0.6-0.7,0.9-1.9,0.9-3.5V439
				c0-1.7-0.3-2.9-0.8-3.6C249.7,434.6,248.8,434.3,247.5,434.3z M247.5,433.4c0.8,0,1.5,0.1,2,0.4s1.1,0.8,1.5,1.5h0.1
				c0-0.8-0.1-1.6-0.1-2.4v-3.9h1v15.4h-0.6l-0.2-1.6h-0.1c-0.8,1.2-2,1.8-3.5,1.8c-1.5,0-2.6-0.5-3.4-1.4c-0.8-0.9-1.2-2.3-1.2-4
				c0-1.9,0.4-3.3,1.2-4.3C244.9,433.9,246.1,433.4,247.5,433.4z M234.3,444.3v-7c0-1.1-0.2-1.9-0.7-2.4c-0.5-0.5-1.2-0.7-2.1-0.7
				c-1.3,0-2.2,0.3-2.8,1c-0.6,0.6-0.9,1.7-0.9,3.2v5.9h-1v-10.8h0.8l0.2,1.5h0.1c0.7-1.1,1.9-1.7,3.7-1.7c2.4,0,3.7,1.3,3.7,3.9v7
				H234.3L234.3,444.3z M210.9,433.6v7c0,1.1,0.2,1.9,0.7,2.4c0.5,0.5,1.2,0.7,2.1,0.7c1.3,0,2.2-0.3,2.8-1c0.6-0.6,0.9-1.7,0.9-3.2
				v-5.9h1v10.8h-0.8l-0.2-1.5h-0.1c-0.7,1.1-1.9,1.7-3.7,1.7c-2.4,0-3.7-1.3-3.7-3.9v-7L210.9,433.6L210.9,433.6z M193.7,438.9
				c0,1.5,0.3,2.6,1,3.5c0.7,0.8,1.6,1.2,2.8,1.2c1.2,0,2.1-0.4,2.8-1.2c0.7-0.8,1-2,1-3.5c0-1.5-0.3-2.6-1-3.5
				c-0.7-0.8-1.6-1.2-2.8-1.2c-1.2,0-2.1,0.4-2.7,1.2C194.1,436.3,193.7,437.5,193.7,438.9z M202.2,438.9c0,1.8-0.4,3.1-1.3,4.1
				c-0.9,1-2,1.5-3.5,1.5c-0.9,0-1.8-0.2-2.5-0.7s-1.3-1.1-1.7-2c-0.4-0.9-0.6-1.8-0.6-2.9c0-1.8,0.4-3.1,1.3-4.1
				c0.9-1,2-1.5,3.5-1.5c1.5,0,2.6,0.5,3.5,1.5C201.8,435.9,202.2,437.2,202.2,438.9z M186.4,434.4h-2.5v9.9h-1v-9.9h-2v-0.6l2-0.4
				v-0.8c0-1.3,0.2-2.3,0.7-2.9c0.5-0.6,1.3-0.9,2.4-0.9c0.6,0,1.2,0.1,1.8,0.3l-0.2,0.9c-0.5-0.2-1.1-0.2-1.6-0.2
				c-0.8,0-1.3,0.2-1.6,0.7s-0.5,1.2-0.5,2.2v1h2.5V434.4z"/>
		</defs>
		<clipPath id="SVGID_2_">
			<use xlink:href="#SVGID_1_"  style="overflow:visible;"/>
		</clipPath>
		<rect x="178.3" y="426.2" class="st0" width="146.6" height="20.9"/>
	</g>
</g>
<g>
	<g>
		<defs>
			<rect id="SVGID_3_" x="245.5" y="422.1" width="10.4" height="2.6"/>
		</defs>
		<clipPath id="SVGID_4_">
			<use xlink:href="#SVGID_3_"  style="overflow:visible;"/>
		</clipPath>
		<rect x="242.9" y="419.5" class="st1" width="15.6" height="7.8"/>
	</g>
</g>
<g>
	<g>
		<defs>
			<rect id="SVGID_5_" x="230.9" y="422.1" width="10.4" height="2.6"/>
		</defs>
		<clipPath id="SVGID_6_">
			<use xlink:href="#SVGID_5_"  style="overflow:visible;"/>
		</clipPath>
		<rect x="228.3" y="419.5" class="st2" width="15.6" height="7.8"/>
	</g>
</g>
<g>
	<g>
		<defs>
			<rect id="SVGID_7_" x="245.5" y="414.1" width="10.4" height="2.6"/>
		</defs>
		<clipPath id="SVGID_8_">
			<use xlink:href="#SVGID_7_"  style="overflow:visible;"/>
		</clipPath>
		<rect x="242.9" y="411.5" class="st3" width="15.6" height="7.8"/>
	</g>
</g>
<g>
	<g>
		<defs>
			<rect id="SVGID_9_" x="230.9" y="414.1" width="10.4" height="2.6"/>
		</defs>
		<clipPath id="SVGID_10_">
			<use xlink:href="#SVGID_9_"  style="overflow:visible;"/>
		</clipPath>
		<rect x="228.3" y="411.5" class="st4" width="15.6" height="7.8"/>
	</g>
</g>
<g>
	<g>
		<defs>
			<rect id="SVGID_11_" x="245.5" y="406.2" width="10.4" height="2.6"/>
		</defs>
		<clipPath id="SVGID_12_">
			<use xlink:href="#SVGID_11_"  style="overflow:visible;"/>
		</clipPath>
		<rect x="242.9" y="403.6" class="st5" width="15.6" height="7.8"/>
	</g>
</g>
<g>
	<g>
		<defs>
			<rect id="SVGID_13_" x="230.9" y="406.2" width="10.4" height="2.6"/>
		</defs>
		<clipPath id="SVGID_14_">
			<use xlink:href="#SVGID_13_"  style="overflow:visible;"/>
		</clipPath>
		<rect x="228.3" y="403.6" class="st6" width="15.6" height="7.8"/>
	</g>
</g>
<g>
	<g>
		<defs>
			<polygon id="SVGID_15_" points="176.8,405.9 176.8,408.5 182.3,408.5 182.3,424.2 185.3,424.2 185.3,408.5 190.8,408.5 
				190.8,405.9 			"/>
		</defs>
		<clipPath id="SVGID_16_">
			<use xlink:href="#SVGID_15_"  style="overflow:visible;"/>
		</clipPath>
		<rect x="174.2" y="403.3" class="st7" width="19.3" height="23.4"/>
	</g>
</g>
<g>
	<g>
		<defs>
			<polygon id="SVGID_17_" points="208.5,424.2 205.5,424.2 205.5,415.9 197,415.9 197,424.2 193.9,424.2 193.9,405.9 196.9,405.9 
				196.9,413.4 205.4,413.4 205.4,405.9 208.5,405.9 208.5,424.2 			"/>
		</defs>
		<clipPath id="SVGID_18_">
			<use xlink:href="#SVGID_17_"  style="overflow:visible;"/>
		</clipPath>
		<rect x="191.3" y="403.3" class="st8" width="19.8" height="23.4"/>
	</g>
</g>
<g>
	<g>
		<defs>
			<path id="SVGID_19_" d="M216.8,417v7.4h-3v-18.6h5.2c2.4,0,4.1,0.5,5.3,1.4c1.1,0.9,1.7,2.2,1.7,4.1c0,2.3-1.2,4-3.6,5l5.2,8.3
				h-3.4l-4.4-7.4L216.8,417L216.8,417L216.8,417z M216.8,414.5h2.1c1.4,0,2.4-0.3,3-0.8c0.6-0.5,0.9-1.3,0.9-2.3
				c0-1.1-0.3-1.8-1-2.3c-0.7-0.5-1.7-0.7-3.1-0.7h-2V414.5L216.8,414.5z"/>
		</defs>
		<clipPath id="SVGID_20_">
			<use xlink:href="#SVGID_19_"  style="overflow:visible;"/>
		</clipPath>
		<rect x="211.2" y="403.2" class="st9" width="19" height="23.8"/>
	</g>
</g>
<g>
	<g>
		<defs>
			<polygon id="SVGID_21_" points="262.9,424.4 259.9,424.4 259.9,405.8 270.3,405.8 270.3,408.4 262.9,408.4 262.9,414.2 
				269.8,414.2 269.8,416.8 262.9,416.8 			"/>
		</defs>
		<clipPath id="SVGID_22_">
			<use xlink:href="#SVGID_21_"  style="overflow:visible;"/>
		</clipPath>
		<rect x="257.3" y="403.2" class="st10" width="15.6" height="23.8"/>
	</g>
</g>
<g>
	<g>
		<defs>
			<path id="SVGID_23_" d="M290.5,415.1c0,3-0.8,5.4-2.3,7.1c-1.5,1.7-3.6,2.5-6.4,2.5c-2.8,0-4.9-0.8-6.4-2.5
				c-1.5-1.7-2.2-4-2.2-7.1c0-3.1,0.8-5.4,2.3-7.1c1.5-1.7,3.6-2.5,6.4-2.5c2.7,0,4.9,0.8,6.3,2.5
				C289.7,409.7,290.5,412.1,290.5,415.1 M276.4,415.1c0,2.3,0.4,4,1.4,5.2c0.9,1.2,2.3,1.8,4.1,1.8c1.8,0,3.1-0.6,4-1.7
				c0.9-1.2,1.4-2.9,1.4-5.2c0-2.3-0.4-4-1.3-5.2c-0.9-1.2-2.3-1.8-4-1.8s-3.2,0.6-4.1,1.8C276.9,411.1,276.4,412.8,276.4,415.1"/>
		</defs>
		<clipPath id="SVGID_24_">
			<use xlink:href="#SVGID_23_"  style="overflow:visible;"/>
		</clipPath>
		<rect x="270.6" y="402.9" class="st11" width="22.4" height="24.3"/>
	</g>
</g>
<g>
	<g>
		<defs>
			<polygon id="SVGID_25_" points="295,424.4 295,405.8 298,405.8 298,421.8 305.8,421.8 305.8,424.5 295,424.5 			"/>
		</defs>
		<clipPath id="SVGID_26_">
			<use xlink:href="#SVGID_25_"  style="overflow:visible;"/>
		</clipPath>
		<rect x="292.4" y="403.2" class="st12" width="16" height="23.8"/>
	</g>
</g>
<g>
	<g>
		<defs>
			<rect id="SVGID_27_" x="309.4" y="405.8" width="15" height="18.6"/>
		</defs>
		<clipPath id="SVGID_28_">
			<use xlink:href="#SVGID_27_"  style="overflow:visible;"/>
		</clipPath>
		<g class="st13">
			<g>
				<g>
					<defs>
						<rect id="SVGID_29_" x="309" y="405.4" width="15.6" height="19.3"/>
					</defs>
					<clipPath id="SVGID_30_">
						<use xlink:href="#SVGID_29_"  style="overflow:visible;"/>
					</clipPath>
					<g class="st14">
						<g>
							<defs>
								<path id="SVGID_31_" d="M324.4,415c0,3.1-0.8,5.4-2.5,7c-1.7,1.6-4.1,2.4-7.3,2.4h-5.2v-18.6h5.7c2.9,0,5.2,0.8,6.8,2.4
									C323.6,409.8,324.4,412.1,324.4,415 M321.3,415.1c0-4.5-2.1-6.7-6.2-6.7h-2.6v13.5h2.2C319,421.9,321.3,419.6,321.3,415.1"
									/>
							</defs>
							<clipPath id="SVGID_32_">
								<use xlink:href="#SVGID_31_"  style="overflow:visible;"/>
							</clipPath>
							<g class="st15">
								<g>
									<defs>
										<rect id="SVGID_33_" x="309" y="405.4" width="15.6" height="19.3"/>
									</defs>
									<clipPath id="SVGID_34_">
										<use xlink:href="#SVGID_33_"  style="overflow:visible;"/>
									</clipPath>
									<rect x="306.8" y="403.2" class="st16" width="20.2" height="23.8"/>
								</g>
							</g>
						</g>
					</g>
				</g>
			</g>
			<g>
				<g>
					<defs>
						<rect id="SVGID_35_" x="245.4" y="405.9" width="10.4" height="2.4"/>
					</defs>
					<clipPath id="SVGID_36_">
						<use xlink:href="#SVGID_35_"  style="overflow:visible;"/>
					</clipPath>
					<g class="st17">
						<g>
							<defs>
								<rect id="SVGID_37_" x="176.8" y="405.4" width="147.8" height="19.3"/>
							</defs>
							<clipPath id="SVGID_38_">
								<use xlink:href="#SVGID_37_"  style="overflow:visible;"/>
							</clipPath>
							<rect x="242.8" y="403.3" class="st18" width="15.6" height="7.6"/>
						</g>
					</g>
					<g class="st17">
						<g>
							<defs>
								<rect id="SVGID_39_" x="245.4" y="413.8" width="9.9" height="2.4"/>
							</defs>
							<clipPath id="SVGID_40_">
								<use xlink:href="#SVGID_39_"  style="overflow:visible;"/>
							</clipPath>
							<g class="st19">
								<g>
									<defs>
										<rect id="SVGID_41_" x="176.8" y="405.4" width="147.8" height="19.3"/>
									</defs>
									<clipPath id="SVGID_42_">
										<use xlink:href="#SVGID_41_"  style="overflow:visible;"/>
									</clipPath>
									<rect x="242.8" y="411.2" class="st20" width="15.1" height="7.6"/>
								</g>
							</g>
							<g class="st19">
								<g>
									<defs>
										<rect id="SVGID_43_" x="230.7" y="405.9" width="10.4" height="2.4"/>
									</defs>
									<clipPath id="SVGID_44_">
										<use xlink:href="#SVGID_43_"  style="overflow:visible;"/>
									</clipPath>
									<g class="st21">
										<g>
											<defs>
												<rect id="SVGID_45_" x="176.8" y="405.4" width="147.8" height="19.3"/>
											</defs>
											<clipPath id="SVGID_46_">
												<use xlink:href="#SVGID_45_"  style="overflow:visible;"/>
											</clipPath>
											<rect x="228.1" y="403.3" class="st22" width="15.6" height="7.6"/>
										</g>
									</g>
									<g class="st21">
										<g>
											<defs>
												<rect id="SVGID_47_" x="230.7" y="413.8" width="9.9" height="2.4"/>
											</defs>
											<clipPath id="SVGID_48_">
												<use xlink:href="#SVGID_47_"  style="overflow:visible;"/>
											</clipPath>
											<g class="st23">
												<g>
													<defs>
														<rect id="SVGID_49_" x="176.8" y="405.4" width="147.8" height="19.3"/>
													</defs>
													<clipPath id="SVGID_50_">
														<use xlink:href="#SVGID_49_"  style="overflow:visible;"/>
													</clipPath>
													<rect x="228.1" y="411.2" class="st24" width="15.1" height="7.6"/>
												</g>
											</g>
										</g>
									</g>
								</g>
							</g>
						</g>
					</g>
				</g>
			</g>
		</g>
	</g>
</g>
</svg>
