<?xml version="1.0" encoding="utf-8"?>
<!-- Generator: Adobe Illustrator 19.0.0, SVG Export Plug-In . SVG Version: 6.00 Build 0)  -->
<svg version="1.1" id="Layer_1" xmlns="http://www.w3.org/2000/svg" xmlns:xlink="http://www.w3.org/1999/xlink" x="0px" y="0px"
	 viewBox="0 0 343 51" style="enable-background:new 0 0 343 51;" xml:space="preserve">
<style type="text/css">
	.st0{fill:#1E3564;}
</style>
<g id="XMLID_71_">
	<path id="XMLID_101_" class="st0" d="M30.1,2.4v2.8c0,0.4-0.3,0.7-0.7,0.7h-9c-0.1,0-0.3,0.1-0.3,0.3v42.3c0,0.4-0.3,0.7-0.7,0.7
		h-3.5c-0.4,0-0.7-0.3-0.7-0.7V6.2c0-0.1-0.1-0.3-0.3-0.3H6.7C6.3,6,6.1,5.7,6.1,5.3V2.4c0-0.4,0.3-0.7,0.7-0.7h22.7
		C29.9,1.8,30.1,2,30.1,2.4z"/>
	<path id="XMLID_99_" class="st0" d="M55.4,1.8h3.5c0.4,0,0.7,0.3,0.7,0.7v46.1c0,0.4-0.3,0.7-0.7,0.7h-3.5c-0.4,0-0.7-0.3-0.7-0.7
		V27.9c0-0.1-0.1-0.3-0.3-0.3H42.4c-0.1,0-0.3,0.1-0.3,0.3v20.7c0,0.4-0.3,0.7-0.7,0.7H38c-0.4,0-0.7-0.3-0.7-0.7V2.4
		c0-0.4,0.3-0.7,0.7-0.7h3.5c0.4,0,0.7,0.3,0.7,0.7v20.6c0,0.1,0.1,0.3,0.3,0.3h12.1c0.1,0,0.3-0.1,0.3-0.3V2.4
		C54.8,2,55,1.8,55.4,1.8z"/>
	<path id="XMLID_96_" class="st0" d="M87.5,48.7l-7-21.1c-0.1-0.2-0.1-0.2-0.3-0.2h-5.8c-0.1,0-0.3,0.1-0.3,0.3v20.9
		c0,0.4-0.3,0.7-0.7,0.7H70c-0.4,0-0.7-0.3-0.7-0.7V2.4c0-0.4,0.3-0.7,0.7-0.7h11.2c6.6,0,11.1,5.2,11.1,13c0,6-2.7,10.4-7.1,12.1
		C85,26.9,85,26.9,85,27.1l7.4,21.4c0.1,0.5-0.1,0.7-0.5,0.7h-3.5C88,49.2,87.7,49,87.5,48.7z M74.2,6.2v17.1c0,0.1,0.1,0.3,0.3,0.3
		h6.1c4.1,0,6.9-3.5,6.9-8.7c0-5.4-2.8-8.9-6.9-8.9h-6.1C74.3,5.9,74.2,6,74.2,6.2z"/>
	<path id="XMLID_94_" class="st0" d="M120.2,6h-15.7c-0.1,0-0.3,0.1-0.3,0.3v16.8c0,0.1,0.1,0.3,0.3,0.3h9.9c0.4,0,0.7,0.3,0.7,0.7
		v2.9c0,0.4-0.3,0.7-0.7,0.7h-9.9c-0.1,0-0.3,0.1-0.3,0.3v16.9c0,0.1,0.1,0.3,0.3,0.3h15.7c0.4,0,0.7,0.3,0.7,0.7v2.8
		c0,0.4-0.3,0.7-0.7,0.7h-20.1c-0.4,0-0.7-0.3-0.7-0.7V2.4c0-0.4,0.3-0.7,0.7-0.7h20.1c0.4,0,0.7,0.3,0.7,0.7v2.8
		C120.9,5.7,120.6,6,120.2,6z"/>
	<path id="XMLID_92_" class="st0" d="M149.3,6h-15.7c-0.1,0-0.3,0.1-0.3,0.3v16.8c0,0.1,0.1,0.3,0.3,0.3h9.9c0.4,0,0.7,0.3,0.7,0.7
		v2.9c0,0.4-0.3,0.7-0.7,0.7h-9.9c-0.1,0-0.3,0.1-0.3,0.3v16.9c0,0.1,0.1,0.3,0.3,0.3h15.7c0.4,0,0.7,0.3,0.7,0.7v2.8
		c0,0.4-0.3,0.7-0.7,0.7h-20.1c-0.4,0-0.7-0.3-0.7-0.7V2.4c0-0.4,0.3-0.7,0.7-0.7h20.1c0.4,0,0.7,0.3,0.7,0.7v2.8
		C150,5.7,149.7,6,149.3,6z"/>
	<path id="XMLID_90_" class="st0" d="M178.3,6h-15.6c-0.1,0-0.3,0.1-0.3,0.3v16.8c0,0.1,0.1,0.3,0.3,0.3h9.8c0.4,0,0.7,0.3,0.7,0.7
		v2.9c0,0.4-0.3,0.7-0.7,0.7h-9.8c-0.1,0-0.3,0.1-0.3,0.3v20.7c0,0.4-0.3,0.7-0.7,0.7h-3.5c-0.4,0-0.7-0.3-0.7-0.7V2.4
		c0-0.4,0.3-0.7,0.7-0.7h20c0.4,0,0.7,0.3,0.7,0.7v2.8C179,5.7,178.7,6,178.3,6z"/>
	<path id="XMLID_87_" class="st0" d="M183.9,37.9V13.1c0-7.1,4.7-11.9,11.7-11.9c7,0,11.8,4.7,11.8,11.9v24.8
		c0,7.1-4.8,11.9-11.8,11.9C188.6,49.8,183.9,45,183.9,37.9z M202.5,38.2V12.9c0-4.4-2.8-7.5-7-7.5c-4.1,0-6.9,3.1-6.9,7.5v25.3
		c0,4.3,2.8,7.4,6.9,7.4C199.7,45.6,202.5,42.5,202.5,38.2z"/>
	<path id="XMLID_85_" class="st0" d="M216,48.6V2.4c0-0.4,0.3-0.7,0.7-0.7h3.5c0.4,0,0.7,0.3,0.7,0.7v42.3c0,0.1,0.1,0.3,0.3,0.3
		h15.5c0.4,0,0.7,0.3,0.7,0.7v2.8c0,0.4-0.3,0.7-0.7,0.7h-19.9C216.2,49.2,216,49,216,48.6z"/>
	<path id="XMLID_82_" class="st0" d="M242.8,48.6V2.4c0-0.4,0.3-0.7,0.7-0.7H254c7,0,11.5,4.9,11.5,12.6v22.2
		c0,7.7-4.5,12.6-11.5,12.6h-10.4C243.1,49.2,242.8,49,242.8,48.6z M247.9,45l6-0.1c4,0,6.6-3.3,6.6-8.5V14.6c0-5.3-2.5-8.6-6.6-8.6
		h-6c-0.1,0-0.3,0.1-0.3,0.3v38.5C247.6,44.9,247.8,45,247.9,45z"/>
	<path id="XMLID_80_" class="st0" d="M269.1,46.7c0-1.4,1.2-2.5,2.4-2.5c1.2,0,2.4,1.1,2.4,2.5c0,1.4-1,2.6-2.4,2.6
		C270,49.2,269.1,48.1,269.1,46.7z"/>
	<path id="XMLID_78_" class="st0" d="M291.6,24v2.3c0,0.2-0.1,0.4-0.4,0.4h-4.8c-0.1,0-0.1,0.1-0.1,0.1v22c0,0.2-0.1,0.4-0.4,0.4
		h-2.8c-0.2,0-0.4-0.1-0.4-0.4v-22c0-0.1-0.1-0.1-0.1-0.1h-4.5c-0.2,0-0.4-0.1-0.4-0.4V24c0-0.2,0.1-0.4,0.4-0.4h13.1
		C291.5,23.6,291.6,23.8,291.6,24z"/>
	<path id="XMLID_76_" class="st0" d="M306.9,26.7h-8.2c-0.1,0-0.1,0.1-0.1,0.1v7.9c0,0.1,0.1,0.1,0.1,0.1h5c0.2,0,0.4,0.1,0.4,0.4
		v2.3c0,0.2-0.1,0.4-0.4,0.4h-5c-0.1,0-0.1,0.1-0.1,0.1v8c0,0.1,0.1,0.1,0.1,0.1h8.2c0.2,0,0.4,0.1,0.4,0.4v2.3
		c0,0.2-0.1,0.4-0.4,0.4h-11.5c-0.2,0-0.4-0.1-0.4-0.4V24c0-0.2,0.1-0.4,0.4-0.4h11.5c0.2,0,0.4,0.1,0.4,0.4v2.3
		C307.2,26.5,307.1,26.7,306.9,26.7z"/>
	<path id="XMLID_74_" class="st0" d="M310.3,42.9v-13c0-4,2.6-6.6,6.6-6.6c4,0,6.6,2.6,6.6,6.6v0.6c0,0.2-0.1,0.4-0.4,0.4l-2.8,0.1
		c-0.2,0-0.4-0.1-0.4-0.4v-1c0-2-1.2-3.3-3.1-3.3c-1.9,0-3.1,1.3-3.1,3.3v13.5c0,2,1.2,3.3,3.1,3.3c1.9,0,3.1-1.4,3.1-3.3v-1
		c0-0.2,0.1-0.4,0.4-0.4l2.8,0.1c0.2,0,0.4,0.1,0.4,0.4v0.5c0,4-2.6,6.6-6.6,6.6C312.9,49.5,310.3,46.9,310.3,42.9z"/>
	<path id="XMLID_72_" class="st0" d="M337,23.6h2.8c0.2,0,0.4,0.1,0.4,0.4v24.9c0,0.2-0.1,0.4-0.4,0.4H337c-0.2,0-0.4-0.1-0.4-0.4
		V38.1c0-0.1-0.1-0.1-0.1-0.1H331c-0.1,0-0.1,0.1-0.1,0.1v10.8c0,0.2-0.1,0.4-0.4,0.4h-2.8c-0.2,0-0.4-0.1-0.4-0.4V24
		c0-0.2,0.1-0.4,0.4-0.4h2.8c0.2,0,0.4,0.1,0.4,0.4v10.7c0,0.1,0.1,0.1,0.1,0.1h5.5c0.1,0,0.1-0.1,0.1-0.1V24
		C336.6,23.8,336.8,23.6,337,23.6z"/>
</g>
</svg>
