<?xml version="1.0" encoding="utf-8"?>
<!-- Generator: Adobe Illustrator 23.0.1, SVG Export Plug-In . SVG Version: 6.00 Build 0)  -->
<svg version="1.1" id="Capa_1" xmlns="http://www.w3.org/2000/svg" xmlns:xlink="http://www.w3.org/1999/xlink" x="0px" y="0px"
	 viewBox="0 0 512 512" style="enable-background:new 0 0 512 512;" xml:space="preserve">
<style type="text/css">
	.st0{fill:none;}
	.st1{fill:#0EE5C3;}
	.st2{fill:#2E52A9;}
	.st3{fill:#396CE1;}
	.st4{fill:#0F7666;}
	.st5{fill:#1EB29D;}
	.st6{fill:#0F296A;}
	.st7{fill:#FEC9A3;}
	.st8{fill:#FABD91;}
</style>
<g>
	<polygon class="st0" points="168,342 168,342 168,342 	"/>
	<polygon class="st0" points="343.4,342 343.4,342 343.4,342 	"/>
	<path class="st1" d="M147.8,39.8c-21.6,0-39.1,17.5-39.1,39.1c0,21.6,17.5,39.1,39.1,39.1c7.4,0,14.3-2.1,20.2-5.6v54.2h54.2
		c-3.6-5.9-5.6-12.8-5.6-20.2c0-21.6,17.5-39.1,39.1-39.1s39.1,17.5,39.1,39.1c0,7.4-2.1,14.3-5.6,20.2h54.2v-54.2
		c-5.9,3.6-12.8,5.6-20.2,5.6c-21.6,0-39.1-17.5-39.1-39.1c0-21.6,17.5-39.1,39.1-39.1c7.4,0,14.3,2.1,20.2,5.6V14.2
		C316.1,4.3,286.7-1.2,256-1.2c-30.9,0-60.5,5.5-88,15.5v31.1C162.1,41.9,155.2,39.8,147.8,39.8z"/>
	<path class="st1" d="M86.2,63.3c-1.5,1.3-3,2.7-4.5,4.1v0l0,0C83.1,66,84.6,64.6,86.2,63.3z"/>
	<path class="st2" d="M487.8,363.7c0.2-0.3,0.3-0.7,0.5-1C488,363,487.9,363.4,487.8,363.7L487.8,363.7z"/>
	<path class="st2" d="M487,144.3c1.6,3.4,3.2,6.8,4.7,10.3C490.2,151.1,488.6,147.7,487,144.3z"/>
	<path class="st2" d="M459.5,254.3c0-21.6,17.5-39.1,39.1-39.1c3.6,0,7.2,0.5,10.5,1.4c-2.6-17.3-6.9-34-12.8-50
		c-0.7-1.8-1.3-3.6-2-5.3c0.7,1.8,1.4,3.5,2,5.3h-31.8c3.6-5.9,5.6-12.8,5.6-20.2c0-21.6-17.5-39.1-39.1-39.1
		c-21.6,0-39.1,17.5-39.1,39.1c0,7.4,2.1,14.3,5.6,20.2h-54.2v54.2c-5.9-3.6-12.8-5.6-20.2-5.6c-21.6,0-39.1,17.5-39.1,39.1
		c0,21.6,17.5,39.1,39.1,39.1c7.4,0,14.3-2.1,20.2-5.6V342h0l0,0l0,0h54.2c-3.6-5.9-5.6-12.8-5.6-20.2c0-21.6,17.5-39.1,39.1-39.1
		c21.6,0,39.1,17.5,39.1,39.1c0,7.4-2.1,14.3-5.6,20.2h32.1c5.8-16,10.1-32.8,12.6-50.1c-3.4,1-7,1.5-10.7,1.5
		C477,293.5,459.5,275.9,459.5,254.3z"/>
	<path class="st3" d="M343.4,463.2c-5.9,3.6-12.8,5.6-20.2,5.6c-21.6,0-39.1-17.5-39.1-39.1s17.5-39.1,39.1-39.1
		c7.4,0,14.3,2,20.2,5.6V342l0,0l0,0h-54.2c3.6-5.9,5.6-12.8,5.6-20.2c0-21.6-17.5-39.1-39.1-39.1c-21.6,0-39.1,17.5-39.1,39.1
		c0,7.4,2.1,14.3,5.6,20.2H168l0,0l0,0h0v54.2c-5.9-3.5-12.8-5.6-20.2-5.6c-21.6,0-39.1,17.5-39.1,39.1c0,21.6,17.5,39.1,39.1,39.1
		c7.4,0,14.3-2.1,20.2-5.6v32.1c16,5.9,32.8,10.2,50.1,12.7c-1-3.4-1.5-7.1-1.5-10.8c0-21.6,17.5-39.1,39.1-39.1
		c21.6,0,39.1,17.5,39.1,39.1c0,3.8-0.5,7.4-1.5,10.9c-1.9,0.3-3.8,0.5-5.7,0.8c1.9-0.2,3.8-0.5,5.7-0.8
		c17.3-2.5,34.1-6.8,50.1-12.6c0,0,0.1,0,0.1-0.1c0,0-0.1,0-0.1,0.1V463.2z"/>
	<path class="st3" d="M136.6,481.4c1.6,0.9,3.2,1.7,4.9,2.5C139.9,483,138.3,482.2,136.6,481.4L136.6,481.4z"/>
	<path class="st3" d="M356.9,490.2L356.9,490.2c-0.1,0-0.1,0-0.2,0.1C356.8,490.2,356.9,490.2,356.9,490.2z"/>
	<polygon class="st3" points="343.4,342 343.4,342 343.4,342 	"/>
	<path class="st4" d="M70.2,78.7c-1.3,1.4-2.6,2.8-3.9,4.2C67.6,81.5,68.9,80.1,70.2,78.7L70.2,78.7z"/>
	<path class="st4" d="M28.3,372L28.3,372c-0.6-1.3-1.3-2.6-2-3.9C27,369.3,27.6,370.6,28.3,372z"/>
	<path class="st4" d="M41.2,321.8c0-21.6,17.5-39.1,39.1-39.1c21.6,0,39.1,17.5,39.1,39.1c0,7.4-2,14.3-5.6,20.2H168l0,0l0,0h0
		v-54.2c-5.9,3.6-12.8,5.6-20.2,5.6c-21.6,0-39.1-17.5-39.1-39.1c0-21.6,17.5-39.1,39.1-39.1c7.4,0,14.3,2.1,20.2,5.6v-54.2h-54.2
		c3.5-5.9,5.6-12.8,5.6-20.2c0-21.6-17.5-39.1-39.1-39.1s-39.1,17.5-39.1,39.1c0,7.4,2.1,14.3,5.6,20.2H15.6
		C5.5,194.1,0,223.8,0,254.8c0,30.6,5.4,60,15.2,87.2v0h31.6C43.3,336.1,41.2,329.2,41.2,321.8z"/>
	<path class="st4" d="M464.6,342c3.6-5.9,5.6-12.8,5.6-20.2c0-21.6-17.5-39.1-39.1-39.1c-21.6,0-39.1,17.5-39.1,39.1
		c0,7.4,2.1,14.3,5.6,20.2h-54.2l0,0l0,0v54.2c-5.9-3.6-12.8-5.6-20.2-5.6c-21.6,0-39.1,17.5-39.1,39.1s17.5,39.1,39.1,39.1
		c7.4,0,14.3-2,20.2-5.6v32.3c0,0,0.1,0,0.1-0.1c2.2-0.8,4.4-1.6,6.5-2.5c1.1-0.4,2.1-0.9,3.1-1.3c1.2-0.5,2.4-1,3.5-1.5
		c0.1,0,0.1-0.1,0.2-0.1c57.5-24.7,104.2-69.9,130.8-126.4c0.2-0.3,0.3-0.7,0.5-1c0.4-0.8,0.8-1.7,1.2-2.5c0.5-1.2,1.1-2.4,1.6-3.6
		c0.3-0.8,0.7-1.5,1-2.3c0.6-1.4,1.2-2.8,1.7-4.2c0.2-0.6,0.5-1.2,0.7-1.8c0.8-2,1.6-4.1,2.3-6.2H464.6z"/>
	<polygon class="st4" points="343.4,342 343.4,342 343.4,342 	"/>
	<polygon class="st5" points="168,166.6 168,166.6 168,166.6 	"/>
	<path class="st6" d="M168,14.4c-0.2,0.1-0.4,0.2-0.6,0.2C167.6,14.5,167.8,14.4,168,14.4L168,14.4z"/>
	<path class="st6" d="M147.8,39.8c7.4,0,14.3,2.1,20.2,5.6V14.4c-0.2,0.1-0.4,0.1-0.6,0.2c-1.4,0.5-2.7,1-4.1,1.5
		c-0.6,0.2-1.2,0.5-1.8,0.7c-1.4,0.5-2.7,1.1-4.1,1.7c-0.6,0.2-1.1,0.5-1.7,0.7c-1.5,0.6-3,1.3-4.5,2c-0.4,0.2-0.8,0.4-1.2,0.5
		c-1.9,0.9-3.8,1.8-5.7,2.7c-0.1,0-0.1,0.1-0.2,0.1c-1.8,0.9-3.6,1.8-5.3,2.7c-0.6,0.3-1.2,0.7-1.9,1c-1.2,0.6-2.4,1.3-3.6,1.9
		c-0.7,0.4-1.5,0.8-2.2,1.2c-1.1,0.6-2.1,1.2-3.1,1.8c-0.8,0.5-1.6,0.9-2.3,1.4c-1,0.6-2,1.2-2.9,1.8c-0.8,0.5-1.6,1-2.4,1.5
		c-0.9,0.6-1.9,1.2-2.8,1.8c-0.8,0.5-1.6,1-2.4,1.5c-0.9,0.6-1.8,1.2-2.8,1.8c-0.8,0.5-1.6,1.1-2.3,1.6c-0.9,0.6-1.8,1.3-2.7,1.9
		c-0.8,0.5-1.5,1.1-2.3,1.6c-0.9,0.7-1.8,1.3-2.7,2c-0.7,0.6-1.5,1.1-2.2,1.7c-0.9,0.7-1.8,1.4-2.7,2.1c-0.7,0.6-1.4,1.1-2.1,1.7
		c-0.9,0.8-1.9,1.5-2.8,2.3c-0.6,0.5-1.3,1.1-1.9,1.6c-1,0.9-2,1.7-3,2.6c-0.5,0.5-1.1,0.9-1.6,1.4c-1.5,1.3-3,2.7-4.5,4.1l0,0
		c-3.9,3.7-7.7,7.5-11.4,11.4c-1.3,1.4-2.6,2.8-3.9,4.2c-0.2,0.2-0.3,0.3-0.5,0.5c-1.6,1.7-3.1,3.5-4.7,5.3c-0.4,0.5-0.8,1-1.3,1.5
		c-1.1,1.3-2.2,2.6-3.2,3.9c-0.5,0.6-1,1.3-1.5,1.9c-1,1.2-1.9,2.4-2.8,3.7c-0.5,0.7-1,1.4-1.6,2.1c-0.9,1.2-1.8,2.5-2.7,3.7
		c-0.5,0.7-1,1.4-1.5,2.1c-0.9,1.3-1.8,2.6-2.7,4c-0.4,0.6-0.8,1.2-1.3,1.9c-1.1,1.6-2.1,3.2-3.1,4.9c-0.2,0.4-0.5,0.7-0.7,1.1
		c-1.3,2-2.5,4.1-3.7,6.2c-0.1,0.3-0.3,0.5-0.4,0.8c-1,1.8-2.1,3.6-3.1,5.4c-0.3,0.6-0.7,1.3-1,1.9c-0.8,1.5-1.6,2.9-2.3,4.4
		c-0.4,0.7-0.8,1.5-1.1,2.2c-0.7,1.4-1.4,2.8-2.1,4.2c-0.4,0.8-0.7,1.6-1.1,2.4c-0.7,1.4-1.3,2.8-1.9,4.2c-0.3,0.8-0.7,1.5-1,2.3
		c-0.7,1.5-1.3,3.1-1.9,4.6c-0.3,0.7-0.6,1.3-0.8,2c-0.9,2.2-1.7,4.4-2.6,6.7h31.2c-3.5-5.9-5.6-12.8-5.6-20.2
		c0-21.6,17.5-39.1,39.1-39.1s39.1,17.5,39.1,39.1c0,7.4-2.1,14.3-5.6,20.2H168v0v0v0h0v-54.2c-5.9,3.6-12.8,5.6-20.2,5.6
		c-21.6,0-39.1-17.5-39.1-39.1C108.7,57.3,126.2,39.8,147.8,39.8z"/>
	<rect x="168" y="166.6" class="st6" width="0" height="0"/>
	<polygon class="st6" points="168,166.6 168,166.6 168,166.6 	"/>
	<polygon class="st6" points="168,166.6 168,166.6 168,166.6 168,166.6 	"/>
	<polygon class="st2" points="168,495.3 168,495.3 168,495.3 	"/>
	<path class="st2" d="M147.8,390.6c7.4,0,14.3,2.1,20.2,5.6V342h0h-54.2c3.6-5.9,5.6-12.8,5.6-20.2c0-21.6-17.5-39.1-39.1-39.1
		c-21.6,0-39.1,17.5-39.1,39.1c0,7.4,2,14.3,5.6,20.2H15.2c0,0,0,0,0,0c0.7,2,1.5,4,2.2,5.9c0.1,0.4,0.3,0.7,0.4,1.1
		c0.7,1.9,1.5,3.7,2.3,5.6c0.2,0.4,0.3,0.8,0.5,1.2c0.8,1.9,1.6,3.7,2.5,5.6c0.1,0.2,0.2,0.5,0.3,0.7c0.9,1.9,1.8,3.7,2.7,5.6
		c0.1,0.1,0.1,0.2,0.2,0.3c0.7,1.3,1.3,2.6,2,4c24,46.6,61.9,84.9,108.3,109.3c1.6,0.9,3.3,1.7,4.9,2.5c0.4,0.2,0.9,0.4,1.3,0.7
		c1.8,0.9,3.7,1.8,5.5,2.7c0.1,0.1,0.3,0.1,0.4,0.2c1.9,0.9,3.7,1.7,5.6,2.5c0.3,0.1,0.6,0.2,0.8,0.4c1.9,0.8,3.8,1.6,5.8,2.4
		c0.3,0.1,0.7,0.3,1,0.4c2,0.8,4,1.6,6,2.3c0,0,0,0,0,0v-32.1c-5.9,3.5-12.8,5.6-20.2,5.6c-21.6,0-39.1-17.5-39.1-39.1
		C108.7,408.1,126.2,390.6,147.8,390.6z"/>
	<path class="st6" d="M218.1,508c12.4,1.8,25,2.8,37.9,2.8h0C243.1,510.8,230.5,509.9,218.1,508L218.1,508z"/>
	<path class="st6" d="M294.9,497.2c0-21.6-17.5-39.1-39.1-39.1c-21.6,0-39.1,17.5-39.1,39.1c0,3.8,0.5,7.4,1.5,10.8h0
		c12.4,1.8,25,2.8,37.9,2.8c4.8,0,9.5-0.1,14.2-0.4c3.9-0.2,7.8-0.5,11.6-0.9c1.9-0.2,3.9-0.4,5.8-0.6s3.8-0.5,5.7-0.8
		C294.3,504.7,294.9,501,294.9,497.2z"/>
	<path class="st1" d="M511.3,235.5c-0.4-4.8-0.8-9.5-1.5-14.2c-0.2-1.6-0.4-3.1-0.7-4.7c-3.3-0.9-6.9-1.4-10.5-1.4
		c-21.6,0-39.1,17.5-39.1,39.1c0,21.6,17.5,39.1,39.1,39.1c3.7,0,7.3-0.5,10.7-1.5c1.8-12.1,2.7-24.5,2.7-37.1
		C512,248.3,511.8,241.9,511.3,235.5z"/>
	<path class="st3" d="M343.4,14.2L343.4,14.2c0.9,0.3,1.8,0.7,2.7,1C345.2,14.8,344.3,14.5,343.4,14.2z"/>
	<path class="st3" d="M496.4,166.6c-0.7-1.8-1.3-3.6-2-5.3c-0.2-0.4-0.3-0.9-0.5-1.3c-0.6-1.4-1.1-2.8-1.7-4.2
		c-0.2-0.4-0.3-0.8-0.5-1.2c-1.5-3.5-3-6.9-4.7-10.3c-0.2-0.5-0.4-0.9-0.7-1.4c-0.6-1.2-1.2-2.4-1.8-3.7c-0.3-0.5-0.6-1.1-0.8-1.6
		c-0.6-1.2-1.3-2.5-2-3.7c-0.2-0.4-0.5-0.9-0.7-1.3C455.5,85.9,416,48,368,24.6c-2.1-1-4.1-2-6.2-2.9c-0.6-0.3-1.3-0.6-1.9-0.8
		c-1.5-0.6-2.9-1.3-4.4-1.9c-0.9-0.4-1.9-0.8-2.8-1.1c-1.2-0.5-2.3-1-3.5-1.4c-1-0.4-2.1-0.8-3.1-1.2c-0.9-0.3-1.8-0.7-2.7-1v31.3
		c-5.9-3.6-12.8-5.6-20.2-5.6c-21.6,0-39.1,17.5-39.1,39.1c0,21.6,17.5,39.1,39.1,39.1c7.4,0,14.3-2.1,20.2-5.6v54.2h0v0v0v0h54.2
		c-3.5-5.9-5.6-12.8-5.6-20.2c0-21.6,17.5-39.1,39.1-39.1c21.6,0,39.1,17.5,39.1,39.1c0,7.4-2.1,14.3-5.6,20.2H496.4z"/>
	<path class="st3" d="M481,132.7L481,132.7c0.2,0.4,0.4,0.8,0.7,1.2C481.5,133.5,481.3,133.1,481,132.7z"/>
	<polygon class="st3" points="343.4,166.6 343.4,166.6 343.4,166.6 	"/>
	<rect x="343.4" y="166.6" class="st3" width="0" height="0"/>
	<polygon class="st3" points="343.4,166.6 343.4,166.6 343.4,166.6 	"/>
</g>
<path class="st7" d="M511.9,515.6V412.2c0-11.3-5.5-21.9-14.8-28.4L431.8,338c-4.4-3.1-9.6-4.7-14.9-4.7h-52.5l0.9,148.5
	c0.3,15.5,10.4,29,25.2,33.8H511.9z"/>
<path class="st8" d="M459.8,515.6h-60.7c-19.2,0-34.7-15.5-34.7-34.7v-34.7h60.7L459.8,515.6z"/>
<path class="st5" d="M289.7,315c-4.1-7-5.9-14.6-5.8-22.1l-51,29.8l0,0l0,0l29.8,51c-7.5-0.1-15.1,1.8-22.1,5.8
	c-20.3,11.9-27.2,38-15.3,58.3c11.9,20.3,38,27.2,58.3,15.3c7-4.1,12.3-9.8,15.9-16.4l29.8,51l0,0l0,0v0l0,0l51-29.8
	c-0.1,7.5,1.8,15.1,5.8,22.1c11.9,20.3,38,27.2,58.3,15.3c20.3-11.9,27.2-38,15.3-58.3c-4.1-7-9.8-12.3-16.4-15.9l51-29.8l0,0l0,0
	l-29.8-51c-3.6,6.6-9,12.3-15.9,16.4c-20.3,11.9-46.4,5.1-58.3-15.3c-11.9-20.3-5-46.4,15.3-58.3c7-4.1,14.6-5.9,22.1-5.8l-29.8-51
	l0,0l0,0l-51,29.8c6.6,3.6,12.3,9,16.4,15.9c11.9,20.3,5.1,46.4-15.3,58.3C327.7,342.2,301.6,335.4,289.7,315z"/>
<path class="st7" d="M407.9,402.9c-8.3-8.5-21.9-8.6-30.4-0.3c-8.5,8.3-8.6,21.9-0.3,30.4c0.1,0.1,0.2,0.2,0.3,0.3l30.2,30.2
	c0,28.8,23.3,52.1,52.1,52.1l0,0h52.1v-8.7L407.9,402.9z"/>
</svg>
