<?xml version="1.0" encoding="utf-8"?>
<!-- Generator: Adobe Illustrator 23.0.1, SVG Export Plug-In . SVG Version: 6.00 Build 0)  -->
<svg version="1.1" id="Layer_1" xmlns="http://www.w3.org/2000/svg" xmlns:xlink="http://www.w3.org/1999/xlink" x="0px" y="0px"
	 viewBox="0 0 512 512" style="enable-background:new 0 0 512 512;" xml:space="preserve">
<style type="text/css">
	.st0{fill:#0F296A;}
	.st1{fill:#0E234F;}
	.st2{fill:#EAB883;}
	.st3{fill:#DDA36F;}
	.st4{fill:#BF462E;}
	.st5{fill:#AD3825;}
	.st6{fill:#0EE5C3;}
	.st7{fill:#087C6A;}
	.st8{fill:#15544A;}
	.st9{fill:#D4D1DA;}
	.st10{fill:#BCB7C6;}
	.st11{fill:#ECEBED;}
	.st12{opacity:0.1;}
</style>
<g>
	<path class="st0" d="M512,256c0,141.4-114.6,256-256,256S0,397.4,0,256S114.6,0,256,0S512,114.6,512,256z"/>
	<path class="st0" d="M93.6,453.9C137.8,490.2,194.4,512,256,512s118.2-21.8,162.4-58.1H93.6z"/>
	<path class="st1" d="M242.6,453.9h-149c40.4,33.2,91.1,54.2,146.6,57.6C203.6,508.8,205.6,453.9,242.6,453.9z"/>
	<path class="st2" d="M247.2,109.7c-37.1-23-84.3-23-121.3,0c-19.1,11.8-35.2,29.4-35.2,55c0,33.3,15.1,58.3,33.3,76.4h125.3
		c18.2-18.1,33.3-43.1,33.3-76.4C282.5,139.1,266.3,121.5,247.2,109.7z"/>
	<path class="st3" d="M184.7,92.5c-43,0.7-94.1,28.3-94.1,72.2c0,33.3,15.1,58.3,33.3,76.4h51.4c-18.2-19.8-33.3-47.2-33.3-83.7
		C142.1,128.5,159.4,106.9,184.7,92.5z"/>
	<path class="st4" d="M282.5,166.7c0-0.7,0-1.3,0-2c0-25.6-16.2-43.2-35.2-55c-63.3-39.2-141.3-4.9-154.3,39.1
		c47,24.4,106,12.6,139.8-31c2.2-2.9,6.7-2.3,8.2,1C249.9,138.4,264.4,155.1,282.5,166.7z"/>
	<path class="st5" d="M184.7,92.5c-51.4,2.2-83.9,29.6-91.8,56.3c14.8,7.7,31.5,12.1,49.2,12.5C141.2,130,157.7,107.9,184.7,92.5z"
		/>
	<path class="st6" d="M373.3,447.8c0-1.3-1.3-2.3-2.9-2.3h-16.7c0.7-1.5,1.2-3.2,1.4-5L367.8,301l89.7,99.9
		c27.7,30.8,5.8,79.8-35.6,79.8h-81.5C358.6,480.7,373.3,466,373.3,447.8z"/>
	<path class="st7" d="M410.5,400.9l-47.1-52.4l-8.3,91.9c-0.2,1.8-0.7,3.5-1.4,5h16.7c1.6,0,2.9,1,2.9,2.3c0,18.2-14.8,33-33,33
		h34.6C416.3,480.7,438.2,431.7,410.5,400.9z"/>
	<path class="st6" d="M204.4,2.9c-11.6-3.8-24.1-3.8-35.6,0C134,14.3,60.6,49.1,60.6,138.7c0,48.5,21.5,80.9,46.7,102.3H125
		c-17.9-17.8-32.7-42.4-32.7-75.2c0-25.2,15.9-42.5,34.7-54.1c36.5-22.6,82.9-22.6,119.4,0c18.8,11.6,34.7,28.9,34.7,54.1
		c0,32.7-14.8,57.3-32.7,75.2h17.6c25.2-21.4,46.7-53.8,46.7-102.3C312.5,49.1,239.1,14.3,204.4,2.9z"/>
	<path class="st7" d="M180.2,95c-18.3-8.5-31-27-31-48.5c0-19,9.9-35.6,24.8-45.1c-1.7,0.4-3.5,0.9-5.2,1.4
		C134,14.3,60.6,49.1,60.6,138.7c0,48.5,21.5,80.9,46.7,102.3H125c-17.9-17.8-32.7-42.4-32.7-75.2C92.2,124.5,139,97.3,180.2,95z"/>
	<path class="st2" d="M373.3,447.8c0-1.3-1.3-2.3-2.9-2.3h-16.7c0.7-1.5,1.2-3.2,1.4-5l3.3-36.5h41.2c21.2,0,38.4,17.2,38.4,38.4
		c0,21.2-17.2,38.4-38.4,38.4h-59.3C358.6,480.7,373.3,466,373.3,447.8z"/>
	<path class="st3" d="M399.7,442.2h-44.8c-0.2,1.2-0.6,2.3-1.1,3.3h16.7c1.6,0,2.9,1,2.9,2.3c0,18.2-14.8,33-33,33h59.3
		c21.2,0,38.4-17.2,38.4-38.4c0-7-1.9-13.6-5.2-19.3C426.2,434.5,413.9,442.2,399.7,442.2z"/>
	<path class="st7" d="M280.8,162.5c0.1-1.8,0.1-3.5,0.1-5.3c0-29.3-15.9-49.5-34.7-63c-36.5-26.3-82.9-26.3-119.4,0
		c-26.3,19-35.6,41.7-34.6,68.3c1.4-23.4,16.7-39.6,34.6-50.8c36.5-22.6,82.9-22.6,119.4,0C264.2,122.9,279.5,139.1,280.8,162.5z"/>
	<path class="st8" d="M92.3,162.5L92.3,162.5c2.3-40,48.2-65.3,87.9-67.5c-8.2-3.8-15.3-9.6-20.6-16.8c-11.4,3.2-22.5,8.6-32.7,16
		C100.6,113.2,91.3,135.9,92.3,162.5z"/>
	<path class="st9" d="M374.4,445.5H83.9c15,13.6,31.6,25.5,49.4,35.2h211c18.2,0,33-14.8,33-33C377.3,446.5,376,445.5,374.4,445.5z"
		/>
	<path class="st10" d="M135.8,447.8c0-1.3,1.3-2.3,2.9-2.3H83.9c15,13.6,31.6,25.5,49.5,35.2h35.4
		C150.5,480.7,135.8,466,135.8,447.8z"/>
	<path class="st11" d="M361.1,239.8h-349c-4.9,0-9.2,2.3-11.8,5.9C0.1,249.1,0,252.6,0,256c0,79.7,36.5,150.9,93.6,197.9h250.8
		c7.6,0,14-5.8,14.7-13.5l16.7-184.5C376.6,247.2,369.8,239.8,361.1,239.8z"/>
	<path class="st9" d="M60.6,255.9c-0.8-8.7,6-16.1,14.7-16.1H12.1c-4.9,0-9.2,2.3-11.8,5.9C0.1,249.1,0,252.6,0,256
		c0,71.8,29.6,136.8,77.3,183.2L60.6,255.9z"/>
	<path class="st6" d="M240.6,428.5c-0.7,0-1.4-0.1-2.1-0.3l-119.3-33.7c-4.2-1.2-6.6-5.5-5.5-9.7c1.2-4.2,5.5-6.6,9.7-5.5L242.8,413
		c4.2,1.2,6.6,5.5,5.5,9.7C247.2,426.2,244.1,428.5,240.6,428.5z"/>
	<path class="st7" d="M213.3,415.2c0-4.3,3.2-7.8,7.3-8.5l-97.1-27.4c-4.2-1.2-8.6,1.3-9.7,5.5c-1.2,4.2,1.3,8.6,5.5,9.7l97.6,27.5
		C214.7,420.5,213.3,418,213.3,415.2z"/>
	<path class="st6" d="M132.5,428.5c-3.4,0-6.6-2.3-7.6-5.8c-1.2-4.2,1.3-8.6,5.5-9.7l119.3-33.7c4.2-1.2,8.6,1.3,9.7,5.5
		c1.2,4.2-1.3,8.6-5.5,9.7l-119.3,33.7C134,428.4,133.2,428.5,132.5,428.5z"/>
	<path class="st7" d="M217,394.6c0-2.9,1.5-5.5,3.7-7.1L130.4,413c-4.2,1.2-6.6,5.5-5.5,9.7c1,3.5,4.1,5.8,7.6,5.8
		c0.7,0,1.4-0.1,2.1-0.3L224,403C220,402.3,217,398.8,217,394.6z"/>
	<path class="st6" d="M234.7,352.3c-1.8-2-2.2-4.9-1.1-7.4c2.7-5.9,4.1-12.4,4.1-19.2c0-26.9-22.9-48.8-51.1-48.8
		s-51.1,21.8-51.1,48.8c0,6.8,1.5,13.3,4.1,19.2c1.1,2.5,0.7,5.3-1.1,7.4c-4,4.5-4.4,11.1-1.1,16.2l2.8,4.2
		c2.9,4.3,7.3,7.3,12.4,8.4l6,1.2c2.3,0.5,3.9,2.4,3.9,4.8v5.8c0,1.9,0.9,3.8,2.4,5c12.7,10.1,30.7,10.1,43.5,0c1.5-1.2,2.4-3,2.4-5
		V387c0-2.3,1.6-4.3,3.9-4.8l6-1.2c5.1-1,9.5-4.1,12.4-8.4l2.8-4.2C239.1,363.4,238.6,356.8,234.7,352.3z"/>
	<path class="st7" d="M185.7,397.8c-1.1-1.2-1.7-3-1.7-5V387c0-2.3-1.2-4.3-2.8-4.8L177,381c-3.6-1-6.8-4.1-8.8-8.4l-2-4.2
		c-2.4-5-2-11.6,0.8-16.2c1.3-2,1.6-4.9,0.8-7.4c-1.9-5.9-2.9-12.4-2.9-19.2c0-24.2,13.1-44.2,30.4-48.1c-2.8-0.4-5.6-0.7-8.6-0.7
		c-28.2,0-51.1,21.8-51.1,48.8c0,6.8,1.5,13.3,4.1,19.2c1.1,2.5,0.7,5.3-1.1,7.4c-4,4.5-4.4,11.1-1.1,16.2l2.8,4.2
		c2.9,4.3,7.3,7.3,12.4,8.4l6,1.2c2.3,0.5,3.9,2.4,3.9,4.8v5.8c0,1.9,0.9,3.8,2.4,5c8.8,6.9,20,9.1,30.3,6.5
		C191.8,403.1,188.6,401,185.7,397.8z"/>
	<path class="st7" d="M195.9,373.5l-7-9.2c-1.2-1.6-3.4-1.6-4.6,0l-7,9.2c-2.1,2.8,0.1,7,3.3,6.4l3.9-1.6c1.4-0.6,3-0.6,4.4,0
		l3.9,1.6C195.9,380.5,198.1,376.3,195.9,373.5z"/>
	<path class="st8" d="M184,374.7l3.2-11.1c0-0.1,0.1-0.2,0.1-0.3c-1.1-0.3-2.2,0.1-3,1.1l-7,9.2c-2.1,2.8,0.1,7,3.3,6.4l3.9-1.6
		c0.1,0,0.1,0,0.2-0.1C183.9,377.3,183.6,376,184,374.7z"/>
	<path class="st7" d="M197.4,349.2c-3.3,2.7-4,7.4-1.8,11c2.2,3.6,7.2,7.8,18.7,7.8c19.5,0,14.9-26,1.2-24.7
		C207.2,344.1,200.9,346.2,197.4,349.2z"/>
	<path class="st8" d="M217.6,343.4c-0.7-0.1-1.4-0.1-2.1,0c-8.3,0.8-14.6,2.9-18.1,5.8c-3.3,2.7-4,7.4-1.8,11
		c2.2,3.6,7.2,7.8,18.7,7.8c1.2,0,2.3-0.1,3.4-0.3C203,365.1,206.5,344.7,217.6,343.4z"/>
	<path class="st7" d="M175.8,349.2c3.3,2.7,4,7.4,1.8,11c-2.2,3.6-7.2,7.8-18.7,7.8c-19.5,0-14.9-26-1.2-24.7
		C166,344.1,172.2,346.2,175.8,349.2z"/>
	<path class="st8" d="M167.9,345.3c-2.9-0.9-6.3-1.6-10.2-1.9C144,342,139.4,368,158.9,368c2.6,0,4.9-0.2,6.9-0.6
		C157.3,362.3,159.9,348.5,167.9,345.3z"/>
</g>
<g>
	<path class="st6" d="M442.5,91.7c-8.2,29.2-38.9,46.4-68.1,38.2c-4.2-1.2-7.9-2.6-11.3-4.8l-29.4,9.8l11.2-25.1
		c-9.7-13.4-13.4-30.8-8.6-47.9c8.2-29.2,38.9-46.4,68.1-38.2C433.5,31.8,450.7,62.5,442.5,91.7z"/>
	<g class="st12">
		<path class="st6" d="M444.3,80.8c-7.1-11-17.9-19.4-31.6-23.2c-29.2-8.2-59.9,8.9-68.1,38.2c-1.1,3.8-1.7,7.3-1.9,11
			c-8.2-13-11.1-28.9-6.7-44.5c8.2-29.2,38.9-46.4,68.1-38.2C430.1,30.9,446.2,55.1,444.3,80.8z"/>
	</g>
	<path class="st6" d="M344.8,109.7l-2.1,4.7c-0.1-2.5-0.1-5.4,0.1-7.7C343.7,107.7,344.2,108.7,344.8,109.7z"/>
	<path class="st6" d="M330.8,137.3c-0.9-1.1-1.3-2.8-0.8-4.3l10.6-23.2c-9.8-14.6-13-32.4-8.2-49.4c8.9-31.5,41.5-49.8,73-40.9
		s49.8,41.5,40.9,73c-8.9,31.5-41.5,49.8-73,40.9c-3.8-1.1-7.5-2.5-10.7-4.2l-27.5,9C333.3,138.8,331.7,138.8,330.8,137.3z
		 M403.2,27.4c-27.3-7.7-55.6,8.1-63.3,35.5c-4.3,15.2-1.5,31.5,8,44.5c0.9,1.1,0.9,2.7,0.6,3.8l-7.7,17.1l20.8-6.9
		c1-0.5,2.1-0.2,3.1,0.5c3.6,1.8,6.9,3.2,10.7,4.2c27.3,7.7,55.6-8.1,63.3-35.5S430.5,35.1,403.2,27.4z"/>
	<path class="st0" d="M383.5,97.2c-2.3-0.6-3.4-2.6-2.7-4.9l3.5-12.5c0.6-2.3,2.6-3.4,4.9-2.7c5.3,1.5,10.7-1.5,12.2-6.8
		c1.5-5.3-1.5-10.7-6.8-12.2c-5.3-1.5-10.7,1.5-12.2,6.8c-0.6,2.3-2.6,3.4-4.9,2.7c-2.3-0.6-3.4-2.6-2.7-4.9
		c2.7-9.5,12.4-14.9,21.9-12.3c9.5,2.7,14.9,12.4,12.3,21.9c-2.2,8-9.9,13.2-18,13l-2.6,9.1C387.9,96.4,385.8,97.9,383.5,97.2z"/>
	<path class="st0" d="M378.1,106.4c-1.1-1.9-0.3-4.6,1.5-5.3c1.9-1.1,4.2-0.4,5.3,1.5c1.1,1.9,0.4,4.2-1.5,5.3
		C381.3,109.3,379.2,108.3,378.1,106.4z"/>
	<g>
	</g>
	<g>
	</g>
	<g>
	</g>
	<g>
	</g>
	<g>
	</g>
	<g>
	</g>
	<g>
	</g>
	<g>
	</g>
	<g>
	</g>
	<g>
	</g>
	<g>
	</g>
	<g>
	</g>
	<g>
	</g>
	<g>
	</g>
	<g>
	</g>
</g>
<g>
	<path class="st6" d="M473.9,232.6c-22.3,20.6-57.5,19.2-78-3.2c-2.9-3.2-5.3-6.4-7.1-10.1l-30.1-7.1l22.7-15.5
		c-1.3-16.5,4.7-33.3,17.8-45.3c22.3-20.6,57.5-19.2,78,3.2S496.3,212.1,473.9,232.6z"/>
	<g class="st12">
		<path class="st6" d="M481.2,224.3c-0.3-13.1-5.1-25.9-14.7-36.3c-20.6-22.3-55.7-23.8-78-3.2c-2.9,2.7-5.2,5.4-7.3,8.4
			c-0.2-15.4,5.7-30.5,17.6-41.4c22.3-20.6,57.5-19.2,78,3.2C495.3,174.3,496.3,203.4,481.2,224.3z"/>
	</g>
	<path class="st6" d="M381.3,196.8l-4.3,2.9c1.2-2.2,2.7-4.6,4.2-6.5C381.4,194.5,381.4,195.6,381.3,196.8z"/>
	<path class="st6" d="M355,213c-0.2-1.4,0.4-3.1,1.6-4.1l21.2-14.2c-0.7-17.6,5.9-34.4,18.9-46.4c24.1-22.2,61.4-20.7,83.6,3.4
		s20.7,61.4-3.4,83.6s-61.4,20.7-83.6-3.4c-2.7-2.9-5.1-6.1-6.9-9.2l-28.2-6.7C356.3,215.6,354.9,214.7,355,213z M474.2,157.3
		c-19.2-20.9-51.6-22.2-72.5-3c-11.6,10.7-17.8,26.1-16.5,42c0.2,1.4-0.7,2.8-1.5,3.6l-15.5,10.5l21.3,5.1c1.1,0,1.9,0.9,2.4,2.1
		c2.1,3.4,4.2,6.3,6.9,9.2c19.2,20.9,51.6,22.2,72.5,3C492.1,210.5,493.4,178.2,474.2,157.3z"/>
	<path class="st0" d="M420.8,206.5c-1.6-1.7-1.5-4,0.2-5.6l9.6-8.8c1.7-1.6,4-1.5,5.6,0.2c3.7,4.1,9.9,4.3,13.9,0.6
		c4.1-3.7,4.3-9.9,0.6-13.9c-3.7-4.1-9.9-4.3-13.9-0.6c-1.7,1.6-4,1.5-5.6-0.2c-1.6-1.7-1.5-4,0.2-5.6c7.3-6.7,18.4-6.2,25.1,1
		c6.7,7.3,6.2,18.4-1,25.1c-6.1,5.6-15.3,6.1-22.1,1.6l-7,6.4C425,208,422.4,208.2,420.8,206.5z"/>
	<path class="st0" d="M411.4,211.4c0.1-2.2,2.1-4.1,4.1-3.7c2.2,0.1,3.8,1.8,3.7,4.1c-0.1,2.2-1.8,3.8-4.1,3.7
		C412.6,215.6,411.3,213.6,411.4,211.4z"/>
	<g>
	</g>
	<g>
	</g>
	<g>
	</g>
	<g>
	</g>
	<g>
	</g>
	<g>
	</g>
	<g>
	</g>
	<g>
	</g>
	<g>
	</g>
	<g>
	</g>
	<g>
	</g>
	<g>
	</g>
	<g>
	</g>
	<g>
	</g>
	<g>
	</g>
</g>
</svg>
