<svg id="Layer_35" enable-background="new 0 0 64 64" height="512" viewBox="0 0 64 64" width="512" xmlns="http://www.w3.org/2000/svg"><path d="m62 54v4c0 2.21-1.79 4-4 4h-52c-2.21 0-4-1.79-4-4v-4h2 56z" fill="#969faa"/><path d="m8 16h48c2.209 0 4 1.791 4 4v34h-56v-34c0-2.209 1.791-4 4-4z" fill="#ccd1d9"/><path d="m55 50c.55 0 1-.45 1-1v-28c0-.55-.45-1-1-1h-46c-.55 0-1 .45-1 1v28c0 .55.45 1 1 1z" fill="#69d6f4"/><path d="m50 36.85v1.15h-36v-1.15c0-.88.2-1.73.55-2.49.05-.12.11-.24.18-.36h34.54c.47.85.73 1.83.73 2.85z" fill="#e6e9ed"/><path d="m14 42h36v4h-36z" fill="#e6e9ed"/><path d="m14 46h36v4h-36z" fill="#969faa"/><path d="m14 38h36v4h-36z" fill="#969faa"/><path d="m32 31c2.21 0 4-1.79 4-4v2l9.26 1.98c1.76.38 3.2 1.51 4.01 3.02h-34.54c.81-1.51 2.25-2.64 4.01-3.02l9.26-1.98v-2c0 2.21 1.79 4 4 4z" fill="#969faa"/><path d="m43 10.16v5.84 2c0-.27-.03-.54-.08-.81-.18-.95-.72-1.75-1.46-2.31-.7-.53-1.55-.84-2.46-.88-.06 0-.11 0-.17 0-1.12 0-2.15-.63-2.65-1.64l-.18-.36c-1.96 1.3-4.25 2-6.61 2h-4.22c-.06 0-.11 0-.17.01-2.02.07-3.79 1.58-3.98 3.6-.01.13-.02.26-.02.39v-2-3.39c0-5.86 4.75-10.61 10.61-10.61 1.41 0 2.78.28 4.06.81 1.27.53 2.45 1.31 3.44 2.3l.89.89c.9.3 1.64.87 2.17 1.6.53.72.83 1.62.83 2.56z" fill="#fcd770"/><g fill="#f0d0b4"><path d="m32 27c1.45 0 2.8-.44 3.91-1.19l.09.19v1c0 2.21-1.79 4-4 4s-4-1.79-4-4v-1l.09-.19c2.95 1.14 3.43 1.19 3.91 1.19z"/><path d="m42.92 17.19c.05.27.08.54.08.81 0 .73-.19 1.41-.53 2h-.01c-.69 1.2-1.98 2-3.46 2l-.27-.07c.18-.61.27-1.26.27-1.93v-6c.91.04 1.76.35 2.46.88.74.56 1.28 1.36 1.46 2.31z"/><path d="m39 14v6c0 .67-.09 1.32-.27 1.93-.46 1.6-1.47 2.97-2.82 3.88-1.11.75-2.46 1.19-3.91 1.19-.48 0-.96-.05-3.91-1.19-.38-.26-.72-.54-1.04-.86-.83-.83-1.45-1.86-1.78-3.02-.18-.61-.27-1.26-.27-1.93v-5.99c.06-.01.11-.01.17-.01h4.22c2.36 0 4.65-.7 6.61-2l.18.36c.5 1.01 1.53 1.64 2.65 1.64z"/><path d="m25 20c0 .67.09 1.32.27 1.93l-.27.07c-1.48 0-2.77-.81-3.46-2h-.01c-.34-.59-.53-1.27-.53-2 0-.13.01-.26.02-.39.19-2.02 1.96-3.53 3.98-3.6z"/></g><path d="m61 53v-33c0-2.757-2.243-5-5-5h-12v-4.838c0-2.24-1.377-4.23-3.451-5.027l-.735-.735c-2.193-2.193-5.108-3.4-8.208-3.4-6.399 0-11.606 5.207-11.606 11.606v2.394h-12c-2.757 0-5 2.243-5 5v33h-2v5c0 2.757 2.243 5 5 5h52c2.757 0 5-2.243 5-5v-5zm-39.7-31.637c.848.933 2.026 1.483 3.273 1.592.516 1.293 1.358 2.421 2.428 3.28v1.956l-8.467 1.814c-3.207.688-5.534 3.567-5.534 6.846v12.149h-4v-28h12.034c.091.12.164.251.266.363zm18.7-1.363v-4.781c.982.369 1.746 1.176 1.939 2.166.18.92-.041 1.814-.622 2.52-.361.439-.837.743-1.36.92.028-.271.043-.546.043-.825zm-25 19h34v2h-34zm0 4h34v2h-34zm0-6v-.149c0-.65.139-1.272.373-1.851h33.255c.233.578.372 1.201.372 1.851v.149zm1.838-4c.602-.497 1.316-.867 2.115-1.038l9.085-1.947c.914 1.198 2.342 1.985 3.962 1.985s3.048-.787 3.962-1.985l9.085 1.947c.798.171 1.513.541 2.115 1.038zm12.205-5.573c.916.366 1.912.573 2.957.573s2.041-.207 2.957-.573c-.21 1.451-1.449 2.573-2.957 2.573s-2.747-1.122-2.957-2.573zm2.957-1.427c-3.309 0-6-2.691-6-6v-5h3.395c2.198 0 4.337-.554 6.245-1.611.574.784 1.414 1.313 2.36 1.513v5.098c0 3.309-2.691 6-6 6zm-7.957-5.174c-.478-.162-.918-.429-1.263-.809-.575-.633-.848-1.455-.766-2.315.108-1.131.91-2.079 1.986-2.486v4.784c0 .279.015.554.043.826zm-9.043 26.174h34v2h-34zm30.467-16.994-8.467-1.815v-1.956c1.063-.855 1.902-1.974 2.419-3.258 1.34-.112 2.577-.75 3.442-1.8.047-.057.086-.118.13-.177h12.009v28h-4v-12.149c0-3.279-2.327-6.158-5.533-6.845zm-13.861-27.006c2.565 0 4.979.999 6.793 2.813l1.061 1.061.224.075c1.385.461 2.316 1.753 2.316 3.213v3.885c-.882-.654-1.983-1.047-3.172-1.047-.746 0-1.417-.415-1.751-1.082l-.689-1.378-.942.628c-1.799 1.199-3.89 1.832-6.051 1.832h-4.223c-1.188 0-2.287.415-3.172 1.085v-1.479c0-5.296 4.31-9.606 9.606-9.606zm-26.606 17c0-1.654 1.346-3 3-3h12v1h.028c.001.339.034.671.102 1h-11.13c-1.103 0-2 .897-2 2v28c0 1.103.897 2 2 2h46c1.103 0 2-.897 2-2v-28c0-1.103-.897-2-2-2h-11.11c.067-.328.103-.662.103-1h.007v-1h12c1.654 0 3 1.346 3 3v33h-54zm56 38c0 1.654-1.346 3-3 3h-52c-1.654 0-3-1.346-3-3v-3h58z"/><path d="m27 57h10v2h-10z"/><path d="m39 57h2v2h-2z"/><path d="m23 57h2v2h-2z"/><path d="m51 27h2v-4h-6v2h4z"/><path d="m43 23h2v2h-2z"/><path d="m11 23h2v2h-2z"/><path d="m11 27h2v2h-2z"/><path d="m11 31h2v2h-2z"/></svg>