<?xml version="1.0" encoding="utf-8"?>
<!-- Generator: Adobe Illustrator 24.0.0, SVG Export Plug-In . SVG Version: 6.00 Build 0)  -->
<svg version="1.1" id="Layer_1" xmlns="http://www.w3.org/2000/svg" xmlns:xlink="http://www.w3.org/1999/xlink" x="0px" y="0px"
	 viewBox="0 0 512 512" style="enable-background:new 0 0 512 512;" xml:space="preserve">
<style type="text/css">
	.st0{fill:#15DABD;}
	.st1{fill:#232E7A;}
	.st2{fill:#3342AE;}
	.st3{fill:#77D2FF;}
	.st4{fill:#4FBBFF;}
	.st5{fill:#0080F4;}
	.st6{fill:#1A9172;}
	.st7{fill:#27A3FF;}
	.st8{fill:#25AE88;}
	.st9{fill:#61B872;}
	.st10{fill:#4159CE;}
	.st11{fill:#2B3B89;}
	.st12{fill:#B8FFFD;}
	.st13{fill:#176EA3;}
	.st14{fill:#B5FCFF;}
	.st15{fill:#99E0E0;}
	.st16{fill:#3D3D3D;}
	.st17{fill:#AAE8DC;}
	.st18{fill:#F3F3F3;}
	.st19{fill:#E4E4E4;}
	.st20{fill:#293A8E;}
	.st21{fill:#2E4099;}
	.st22{fill:#55897F;}
	.st23{fill:#E5E5E5;}
</style>
<circle class="st0" cx="255.8" cy="259" r="248.7"/>
<polygon class="st2" points="211.1,320.5 211.1,421.2 233.4,370.9 233.4,275.8 "/>
<polygon class="st10" points="233.4,275.8 160.7,275.8 132.7,275.8 110.4,320.5 211.1,320.5 "/>
<rect x="110.4" y="320.5" class="st1" width="100.7" height="100.7"/>
<polygon class="st10" points="401.3,275.8 328.5,275.8 300.6,275.8 278.2,320.5 378.9,320.5 "/>
<polygon class="st2" points="378.9,320.5 378.9,421.2 401.3,370.9 401.3,275.8 "/>
<polygon class="st1" points="278.2,320.5 278.2,370.9 278.2,421.2 378.9,421.2 378.9,320.5 "/>
<polygon class="st2" points="211.1,141.5 211.1,242.2 233.4,191.9 233.4,96.8 "/>
<polygon class="st10" points="233.4,96.8 132.7,96.8 110.4,141.5 211.1,141.5 "/>
<polygon class="st1" points="110.4,141.5 110.4,242.2 160.7,242.2 211.1,242.2 211.1,141.5 "/>
<polygon class="st2" points="378.9,141.5 378.9,242.2 401.3,191.9 401.3,96.8 "/>
<polygon class="st10" points="401.3,96.8 300.6,96.8 278.2,141.5 378.9,141.5 "/>
<polygon class="st1" points="278.2,141.5 278.2,191.9 278.2,242.2 328.5,242.2 378.9,242.2 378.9,141.5 "/>
<g>
	<rect x="155.1" y="242.2" class="st7" width="11.2" height="134.3"/>
	<rect x="323" y="186.3" class="st7" width="11.2" height="134.3"/>
	<rect x="155.1" y="186.3" class="st7" width="123.1" height="11.2"/>
	<rect x="211.1" y="365.3" class="st7" width="123.1" height="11.2"/>
</g>
</svg>
