<?xml version="1.0" encoding="utf-8"?>
<!-- Generator: Adobe Illustrator 24.0.0, SVG Export Plug-In . SVG Version: 6.00 Build 0)  -->
<svg version="1.1" id="Layer_1" xmlns="http://www.w3.org/2000/svg" xmlns:xlink="http://www.w3.org/1999/xlink" x="0px" y="0px"
	 viewBox="0 0 512 512" style="enable-background:new 0 0 512 512;" xml:space="preserve">
<style type="text/css">
	.st0{fill:#15DABD;}
	.st1{fill:#232E7A;}
	.st2{fill:#3342AE;}
	.st3{fill:#77D2FF;}
	.st4{fill:#4FBBFF;}
	.st5{fill:#0080F4;}
	.st6{fill:#1A9172;}
	.st7{fill:#27A3FF;}
	.st8{fill:#25AE88;}
	.st9{fill:#61B872;}
	.st10{fill:#4159CE;}
	.st11{fill:#2B3B89;}
	.st12{fill:#B8FFFD;}
	.st13{fill:#176EA3;}
	.st14{fill:#B5FCFF;}
	.st15{fill:#99E0E0;}
	.st16{fill:#3D3D3D;}
	.st17{fill:#AAE8DC;}
	.st18{fill:#F3F3F3;}
	.st19{fill:#E4E4E4;}
	.st20{fill:#293A8E;}
	.st21{fill:#2E4099;}
	.st22{fill:#55897F;}
	.st23{fill:#E5E5E5;}
</style>
<circle class="st0" cx="255.8" cy="259" r="248.7"/>
<g>
	<path class="st1" d="M227.3,291.5v-2v-2v-46.6v-2h0.2c-0.1,0.7-0.2,1.3-0.2,2c0-13.2,20.9-24.6,51.5-30.4H117.1
		c-10.8,0-19.5,8.7-19.5,19.5v63.6c0,10.8,8.7,19.5,19.5,19.5h110.1V291.5z"/>
</g>
<g>
	<path class="st2" d="M227.4,388.7h-0.2v-48.6v-2v-2v-23H117.1c-10.8,0-19.5,8.7-19.5,19.5v63.6c0,10.8,8.7,19.5,19.5,19.5h155.1
		C246.7,410,229.3,400.1,227.4,388.7z"/>
</g>
<path class="st2" d="M391.4,210.5H117.1c-10.8,0-19.5-8.7-19.5-19.5v-63.6c0-10.8,8.7-19.5,19.5-19.5h274.2
	c10.8,0,19.5,8.7,19.5,19.5V191C410.9,201.8,402.1,210.5,391.4,210.5z"/>
<circle class="st3" cx="149" cy="159.2" r="18.9"/>
<circle class="st0" cx="362.3" cy="151.1" r="5.4"/>
<circle class="st0" cx="340.7" cy="151.1" r="5.4"/>
<circle class="st0" cx="373.1" cy="167.3" r="5.4"/>
<circle class="st0" cx="351.5" cy="167.3" r="5.4"/>
<circle class="st0" cx="319.1" cy="151.1" r="5.4"/>
<circle class="st0" cx="329.9" cy="167.3" r="5.4"/>
<circle class="st0" cx="297.5" cy="151.1" r="5.4"/>
<circle class="st0" cx="308.3" cy="167.3" r="5.4"/>
<circle class="st0" cx="275.9" cy="151.1" r="5.4"/>
<circle class="st0" cx="286.7" cy="167.3" r="5.4"/>
<circle class="st4" cx="149" cy="261.8" r="18.9"/>
<circle class="st3" cx="149" cy="364.4" r="18.9"/>
<g>
	<path class="st5" d="M324.5,365.8c-53.7,0-97.2-15.4-97.2-34.4v57.4h0.2c3,18.1,45.3,32.4,97,32.4s94.1-14.3,97-32.4h0.2v-57.4
		C421.7,350.4,378.1,365.8,324.5,365.8z"/>
	<path class="st6" d="M227.3,329.3v2c0-0.7,0.1-1.4,0.2-2H227.3z"/>
	<path class="st6" d="M421.5,329.3c0.1,0.7,0.2,1.3,0.2,2v-2H421.5z"/>
</g>
<g>
	<path class="st7" d="M324.5,307.7c-53.7,0-97.2-15.4-97.2-34.4v60.1h0.2c3,18.1,45.3,32.4,97,32.4s94.1-14.3,97-32.4h0.2v-60.1
		C421.7,292.3,378.1,307.7,324.5,307.7z"/>
	<path class="st8" d="M227.3,271.3v2c0-0.7,0.1-1.4,0.2-2H227.3z"/>
	<path class="st8" d="M421.5,271.3c0.1,0.7,0.2,1.3,0.2,2v-2H421.5z"/>
</g>
<ellipse class="st3" cx="324.5" cy="217.9" rx="97.2" ry="34.4"/>
<g>
	<path class="st4" d="M324.5,252.4c-53.7,0-97.2-15.4-97.2-34.4v57.4h0.2c3,18.1,45.3,32.4,97,32.4s94.1-14.3,97-32.4h0.2v-57.4
		C421.7,237,378.1,252.4,324.5,252.4z"/>
	<path class="st9" d="M227.3,215.9v2c0-0.7,0.1-1.4,0.2-2H227.3z"/>
	<path class="st9" d="M421.5,215.9c0.1,0.7,0.2,1.3,0.2,2v-2H421.5z"/>
</g>
</svg>
