<?xml version="1.0"?>
<svg xmlns="http://www.w3.org/2000/svg" height="512px" viewBox="0 0 512 512" width="512px" class=""><g><path d="m512 256c0 141.386719-114.613281 256-256 256s-256-114.613281-256-256 114.613281-256 256-256 256 114.613281 256 256zm0 0" fill="#382b73" data-original="#382B73" class="" style="fill:#0F7666" data-old_color="#0f7666"/><path d="m477.460938 256c0 122.308594-99.152344 221.460938-221.460938 221.460938s-221.460938-99.152344-221.460938-221.460938 99.152344-221.460938 221.460938-221.460938 221.460938 99.152344 221.460938 221.460938zm0 0" fill="#473080" data-original="#473080" class="" style="fill:#15DABD" data-old_color="#15dabd"/><path d="m434.171875 242.171875c.128906-.195313.191406-.453125.320313-.644531.066406-.128906.128906-.257813.191406-.386719.066406-.191406.195312-.386719.257812-.578125.066406-.128906.128906-.320312.195313-.449219.0625-.195312.128906-.386719.191406-.578125.066406-.128906.128906-.324218.128906-.453125.066407-.191406.128907-.382812.191407-.511719.066406-.195312.066406-.324218.128906-.515624.066406-.195313.066406-.320313.128906-.515626.066406-.191406.066406-.320312.128906-.515624.066406-.191407.066406-.320313.128906-.511719.066407-.195313.066407-.386719.066407-.515625 0-.191406.0625-.320313.0625-.515625 0-.191407.066406-.386719.066406-.511719 0-.128906.0625-.324219.0625-.453125 0-.191406 0-.386719.066406-.578125 0-.128906 0-.320312 0-.449219 0-.195312 0-.386719 0-.578125 0-.128906 0-.324218 0-.453125 0-.191406 0-.382812 0-.578125 0-.128906 0-.257812 0-.449218 0-.195313 0-.386719-.066406-.644532 0-.128906 0-.257812-.0625-.386718 0-.191407-.066406-.449219-.066406-.640626 0-.128906-.0625-.257812-.0625-.324218 0-.253906-.066407-.449219-.128907-.707032 0-.0625-.066406-.191406-.066406-.257812-1.15625-6.109375-4.824218-11.703125-10.613281-15.050781-10.546875-6.109375-23.992187-2.441407-30.101563 8.042969-.835937 1.476562-1.480468 3.019531-1.992187 4.566406h-23.414063c-2.894531-18.976563-17.882812-34.027344-36.921874-36.984375v-23.738281c1.351562-.449219 2.574218-.964844 3.796874-1.671876 1.863282-1.027343 3.601563-2.3125 5.144532-3.859374.515625-.511719.964844-1.09375 1.480468-1.671876.707032-.835937 1.351563-1.800781 1.863282-2.765624.195312-.320313.386718-.640626.515625-.964844.0625-.128906.128906-.191406.191406-.320313.128906-.195312.195313-.449219.324219-.644531.0625-.128906.128906-.257812.191406-.386719.066406-.191406.195312-.382812.257812-.578125.0625-.128906.128907-.320312.191407-.449218.066406-.191407.128906-.386719.195312-.578126.0625-.128906.128907-.324218.128907-.453124.0625-.191407.128906-.382813.191406-.511719.066406-.195313.066406-.324219.128906-.515625.066406-.191406.066406-.320313.128906-.515625.0625-.191407.0625-.320313.128906-.511719.0625-.195312.0625-.324219.128907-.515625.0625-.195313.0625-.386719.0625-.515625 0-.191406.066406-.320312.066406-.515625 0-.191406.0625-.382813.0625-.511719s.066406-.324218.066406-.453125c0-.191406 0-.382812.0625-.578125 0-.128906 0-.320312 0-.449218 0-.191407 0-.386719 0-.578126 0-.128906 0-.324218 0-.453124 0-.191407 0-.382813 0-.578126 0-.128906 0-.257812 0-.449218s0-.386719-.0625-.644532c0-.128906 0-.257812-.066406-.382812 0-.195312-.0625-.453125-.0625-.644531 0-.128907-.066406-.257813-.066406-.320313 0-.257812-.0625-.453125-.128907-.710937 0-.0625-.0625-.191407-.0625-.253907-1.15625-6.113281-4.824218-11.707031-10.613281-15.054687-10.550781-6.109375-23.992187-2.441406-30.101562 8.042969-1.417969 2.507812-2.316407 5.144531-2.703125 7.847656 0 .0625 0 .128906-.0625.191406-.066406.515625-.128906 1.027344-.128906 1.542969v.195313c0 .511718-.066407 1.027343 0 1.542968 0 .515625.0625 1.027344.0625 1.542969v.257813c.066406.515624.128906 1.027343.195312 1.542968v.128906c.0625.515626.191406.964844.320312 1.480469 0 .0625 0 .128907.0625.191407.128907.515624.257813.964843.453126 1.480468 0 .0625.0625.191406.0625.257813.195312.511719.386718.964843.578124 1.476562.195313.453125.453126.964844.644532 1.417969.0625.0625.0625.191406.128906.257812.257812.449219.515625.898438.773438 1.285157.0625.0625.0625.128906.125.191406.257812.386719.515624.835937.839843 1.222656 0 .066407.0625.066407.0625.128907.320313.386718.644531.835937.964844 1.222656.0625.0625.128906.191406.191406.257812.324219.386719.710938.769532 1.09375 1.09375.066407.0625.066407.0625.128907.128906.324218.320313.707031.640626 1.09375.964844.066406.0625.128906.128906.195312.191406.382812.320313.835938.644532 1.21875.964844.066406.0625.195312.128906.257812.191406.453126.324219.902344.582032 1.417969.902344 1.285157.773438 2.699219 1.351563 4.050781 1.800782.0625 0 .128907.0625.191407.0625v23.671874c-19.101563 2.894532-34.21875 17.945313-37.175781 37.050782h-52.746094c-2.957032-19.105469-18.007813-34.15625-37.175782-37.050782v-23.671874c.0625 0 .128907 0 .191407-.0625 1.417969-.449219 2.765625-1.09375 4.054687-1.800782.449219-.257812.964844-.578125 1.414063-.902344.0625-.0625.191406-.128906.257812-.191406.449219-.320312.835938-.644531 1.222657-.964844l.191406-.191406c.386718-.324218.707031-.644531 1.09375-.964844.0625-.066406.0625-.066406.128906-.128906.386719-.386718.707031-.707031 1.09375-1.09375.0625-.066406.128906-.195312.191406-.257812.324219-.386719.644532-.773438.964844-1.222656 0-.0625.066406-.0625.066406-.128907.320313-.386719.578125-.769531.835938-1.222656.0625-.0625.0625-.128906.128906-.191406.257812-.449219.511719-.835938.769531-1.285157.066407-.066406.066407-.195312.128907-.257812.257812-.453125.449218-.902344.644531-1.417969.191406-.449219.386719-.964843.578125-1.476562 0-.066407.066406-.195313.066406-.257813.191406-.515625.320312-.964844.449219-1.480468 0-.0625 0-.128907.0625-.191407.128906-.453125.195312-.964843.324219-1.480469 0-.066406 0-.066406 0-.128906.0625-.515625.128906-1.027344.191406-1.542968 0-.066407 0-.195313 0-.257813.0625-.515625.0625-1.027344.0625-1.542969s0-1.03125-.0625-1.542968c0-.066407 0-.128907 0-.195313-.0625-.515625-.0625-1.027344-.128906-1.542969 0-.0625 0-.128906-.0625-.191406-.386719-2.703125-1.289063-5.339844-2.703126-7.847656-6.109374-10.550782-19.554687-14.152344-30.101562-8.042969-5.789062 3.347656-9.519531 8.941406-10.613281 15.054687 0 .0625-.066407.191407-.066407.253907-.0625.257812-.0625.453125-.128906.710937 0 .125-.0625.253906-.0625.320313 0 .191406-.066406.449219-.066406.644531 0 .125 0 .253906-.0625.382812 0 .195313 0 .386719-.0625.644532v.449218.578126.453124.578126.449218c0 .195313 0 .386719.0625.578125 0 .128907 0 .324219.0625.453125 0 .191406.066406.382813.066406.511719 0 .195313.0625.324219.0625.515625s.066406.386719.066406.515625c0 .191406.0625.320313.128907.515625.0625.191406.0625.320312.128906.511719.0625.195312.0625.324219.128906.515625.0625.191406.0625.320312.128907.515625.0625.191406.128906.386719.191406.511719.0625.128906.128906.324218.128906.453124.0625.191407.128906.386719.191406.578126.066406.128906.128906.320312.195313.449218.0625.195313.191406.386719.257812.578125.0625.128907.128907.257813.191407.386719.128906.195312.191406.449219.320312.644531.066406.128907.128906.191407.195312.320313.191407.324218.320313.644531.511719.964844.582031.964843 1.222657 1.929687 1.867188 2.765624.449219.578126.964843 1.09375 1.480469 1.671876 1.542968 1.546874 3.277343 2.832031 5.144531 3.859374 1.222656.644532 2.507812 1.222657 3.796875 1.671876v23.738281c-18.976563 2.957031-33.964844 18.007812-36.921875 36.984375h-23.414063c-.449218-1.546875-1.15625-3.089844-1.992187-4.566406-6.113281-10.550782-19.554688-14.152344-30.105469-8.042969-5.789062 3.347656-9.519531 8.941406-10.613281 15.050781 0 .066406-.0625.195312-.0625.257812-.0625.257813-.0625.453126-.128907.707032 0 .128906-.0625.257812-.0625.324218 0 .191407-.066406.449219-.066406.640626 0 .128906 0 .257812-.0625.386718 0 .195313 0 .386719-.066406.644532v.449218.578125.453125.578125.449219c0 .191406 0 .386719.066406.578125 0 .128906 0 .324219.0625.453125 0 .191406.066406.382812.066406.511719 0 .195312.0625.324219.0625.515625s.066407.386718.066407.515625c0 .191406.0625.320312.125.511719.066406.195312.066406.324218.128906.515624.066406.195313.066406.320313.128906.515626.066407.191406.066407.320312.128907.515624.066406.191407.128906.382813.195312.511719.0625.128907.128906.324219.128906.453125.0625.191406.128906.382813.191406.578125.0625.128907.128907.320313.191407.449219.066406.191406.195312.386719.257812.578125.066407.128906.128907.257813.195313.386719.128906.191406.191406.449218.320312.644531.0625.128906.128906.191406.191406.320313.195313.320312.324219.644531.515626.964843.578124.964844 1.222656 1.929688 1.867187 2.765625.449219.578125.964844 1.09375 1.476563 1.671875 1.546874 1.542969 3.28125 2.832031 5.148437 3.859375.640625.324219 1.285156.644532 1.929687.902344.640626.257812 1.285157.511719 1.992188.707031.644531.191407 1.351562.386719 2.058594.578125.320312.066406.707031.128906 1.03125.191406 2.441406.386719 4.949218.386719 7.394531 0 .386719-.0625.707031-.125 1.03125-.191406.707031-.128906 1.414063-.386718 2.121094-.578125 1.414062-.449219 2.765625-1.09375 4.050781-1.800781.453125-.257812.964844-.578125 1.417969-.902344.0625-.0625.191406-.128906.253906-.191406.453125-.320312.839844-.644531 1.222656-.964844.066407-.066406.128907-.128906.195313-.191406.386718-.324219.707031-.644531 1.09375-.964844.0625-.066406.0625-.066406.128906-.128906.382812-.386719.707031-.710938 1.09375-1.09375.0625-.066406.125-.195312.191406-.257812.320313-.386719.644532-.773438.964844-1.222657 0-.066406.0625-.066406.0625-.128906.324219-.386719.582031-.773437.835938-1.222656.066406-.0625.066406-.128907.128906-.191407.257812-.453124.515625-.835937.773437-1.289062.0625-.0625.0625-.191406.128907-.253906.257812-.453125.449218-.902344.644531-1.417969.191406-.449219.382812-.964844.578125-1.476563 0-.066406.0625-.128906.0625-.195312h23.605468c3.28125 21.226562 21.613282 37.5625 43.804688 37.5625 6.433594 0 12.542969-1.347656 18.011719-3.855469l3.34375 5.144531 19.425781 30.167969c-9.136719 8.101563-14.925781 19.9375-14.925781 33.125 0 10.804688 3.859375 20.710938 10.359375 28.429688l-2.894532 2.894531-15.375 15.371094c-4.695312-2.378906-10.226562-3.152344-15.695312-1.671875-8.230469 2.1875-14.085938 8.75-15.820312 16.53125v.128906c-.195313 1.027344-.386719 2.121094-.453126 3.152344v.191406c0 .515625-.0625 1.09375-.0625 1.609375v.0625c0 .515625.0625 1.09375.0625 1.609375v.128906c.066407.515625.128907 1.027344.195313 1.542969 0 .066406 0 .128906.0625.257812.066406.449219.195313.898438.324219 1.351563 0 .0625.0625.128906.0625.257813 0 .0625 0 .0625.0625.128906.128906.449218.257812.898437.386718 1.285156 0 .0625.066407.191406.128907.257812.128906.449219.320312.898438.515625 1.347657 0 .066406 0 .066406.0625.128906.195312.515625.453125.964844.644531 1.417969.0625.0625.0625.128906.128906.257812.515625.898438 1.027344 1.800782 1.671875 2.636719.066406.0625.128906.191406.191406.257813.324219.382812.582032.769531.902344 1.15625.0625.0625.191406.191406.257813.257812.257812.320312.578125.578125.835937.898438.0625.066406.191406.195312.257813.257812.320312.324219.707031.644531 1.09375.964844.128906.128906.257812.195312.386719.324218.382812.320313.769531.578126 1.15625.898438.128906.066406.191406.128906.320312.191406.386719.257813.835938.582032 1.289062.839844l.0625.0625c.578126.320312 1.15625.644531 1.738282.902344.0625 0 .0625.0625.128906.0625.253906.128906.578125.257812.835938.386718.0625 0 .0625.0625.128906.0625.253906.128907.578125.195313.835937.324219.0625 0 .0625.0625.128907.0625.253906.128907.578124.191407.835937.257813.0625 0 .128906.0625.128906.0625.253907.066406.578125.128906.835938.195312.0625 0 .128906.0625.191406.0625.257813.066406.515625.128906.773437.195313.0625 0 .191407.0625.253907.0625.257812.066406.515625.066406.773437.128906.128906 0 .257813.0625.320313.0625.257812 0 .453125.066406.710937.066406.125 0 .253906 0 .382813.0625.195312 0 .386719 0 .644531.066407h.449219.578125.515625.578125.515625c.195312 0 .386719-.066407.578125-.066407.128906 0 .324218 0 .453125-.0625.253906 0 .449219-.066406.707031-.066406.128906 0 .257812 0 .386719-.0625.320312-.0625.640625-.128906.964843-.191406h.0625c.707032-.128907 1.480469-.324219 2.1875-.582031h.0625c.324219-.128907.644532-.191407.902344-.320313.128906-.0625.257813-.0625.320313-.128906.195312-.0625.449219-.191407.644531-.257813.128906-.0625.320312-.128906.449219-.191406.191406-.066406.320312-.128906.515625-.257812.191406-.0625.320312-.191407.449218-.257813.128907-.0625.320313-.191406.449219-.257813.128907-.0625.324219-.191406.453125-.257812.128906-.0625.320313-.191406.449219-.253906.128906-.066406.257813-.195313.449219-.257813.195312-.128906.320312-.195312.515625-.324219.128906-.0625.257812-.191406.386719-.253906.191406-.128906.320312-.257812.511718-.386718.128906-.066407.195313-.128907.324219-.257813.191406-.128906.386719-.320313.578125-.449219.0625-.066406.128906-.128906.257812-.195312.191407-.191406.386719-.320313.578126-.515625.0625-.0625.128906-.125.191406-.191407.195312-.191406.386718-.386718.582031-.578124.0625-.066407.128906-.128907.128906-.195313.191407-.191406.382813-.382813.578125-.640625.0625-.066406.0625-.128906.128906-.195312.191407-.191407.382813-.449219.511719-.640626.066407-.066406.066407-.128906.128907-.195312.195312-.191406.324218-.449219.515624-.640625.066407-.066406.128907-.195313.191407-.257813.128906-.195312.324219-.386718.453125-.644531.0625-.128906.128906-.257812.257812-.386719.125-.191406.191406-.382812.320313-.511718 1.09375-1.867188 1.863281-3.859375 2.316406-5.855469 0-.0625 0-.0625 0-.128906.0625-.320313.128906-.578125.191406-.898438 0-.128906.066407-.257812.066407-.386719.0625-.191406.0625-.449218.125-.644531 0-.191406.066406-.386719.066406-.578125 0-.128906.0625-.320312.0625-.449218 0-.195313.066406-.449219.066406-.644532 0-.128906 0-.257812 0-.386718 0-.257813 0-.449219 0-.707032 0-.128906 0-.191406 0-.320312 0-.257813 0-.515625 0-.707032 0-.128906 0-.195312 0-.324218 0-.253906 0-.511719-.066406-.707032 0-.128906 0-.191406 0-.257812 0-.253906-.0625-.511719-.0625-.707031 0-.128907 0-.191407-.066406-.320313-.0625-.257812-.0625-.449218-.125-.707031 0-.128906-.066407-.195313-.066407-.324219-.0625-.253906-.0625-.449218-.128906-.707031-.0625-.320313-.128906-.640625-.257813-.964844-.386718-1.542969-.964843-2.957031-1.671874-4.308593l18.910156-18.910157c6.882812 4.375 15.050781 6.945313 23.800781 6.945313 9.777344 0 18.84375-3.148438 26.179687-8.554688l18.074219 18.074219c-1.609375 2.316406-2.765625 4.953125-3.410156 7.785156v.128907c-.191406 1.027343-.386719 2.121093-.449219 3.152343v.191407c0 .515624-.066406 1.09375-.066406 1.609374v.0625c0 .515626.066406 1.03125.066406 1.609376v.128906c.0625.511718.128906 1.027344.191406 1.542968 0 .0625 0 .128907.066407.257813.0625.449219.191406.898437.320312 1.351563 0 .0625.0625.128906.0625.253906 0 .066406 0 .066406.066407.128906.128906.453125.257812.902344.386718 1.289062 0 .0625.0625.191407.128906.257813.125.449219.320313.898437.511719 1.347656 0 .066407.066407.066407.066407.128907.191406.515624.449218.964843.640624 1.417968.066407.0625.066407.125.128907.253906.515625.902344 1.03125 1.800782 1.671875 2.640626.066406.0625.128906.191406.195312.253906.320313.386718.578125.773437.898438 1.160156.066406.0625.195312.191406.257812.257812.257813.320313.578125.578126.835938.898438.066406.066406.195312.195312.257812.257812.320313.320313.707032.644532 1.09375.964844.128906.128906.257813.191406.386719.320313.386719.324219.769531.582031 1.15625.902343.128906.0625.195313.128907.324219.191407.382812.257812.835937.582031 1.285156.835937l.0625.066406c.582031.320313 1.160156.644532 1.738281.898438.0625 0 .0625.066406.128907.066406.257812.128906.578124.257813.835937.386719.0625 0 .0625.0625.128906.0625.257813.128906.578125.191406.835938.320313.0625 0 .0625.066406.128906.066406.257813.128906.578125.191406.835937.257812.0625 0 .128907.0625.128907.0625.257812.066406.578125.128906.835937.195313.0625 0 .128906.0625.191406.0625.257813.066406.515626.128906.773438.191406.0625 0 .191406.066406.257812.066406.257813.0625.515626.0625.769532.128907.128906 0 .257812.0625.324218.0625.257813 0 .449219.066406.707032.066406.128906 0 .257812 0 .386718.0625.191407 0 .382813 0 .640626.066406h.453124.578126.515624.578126.511718c.195313 0 .386719-.066406.582032-.066406.128906 0 .320312 0 .449218-.0625.257813 0 .449219-.066406.707032-.066406.128906 0 .257812 0 .386718-.0625.320313-.066407.644532-.128907.964844-.195313h.0625c.707031-.125 1.480469-.320313 2.1875-.578125h.066406c.320313-.128906.640625-.191406.898438-.320312.128906-.066407.257812-.066407.324218-.128907.191407-.0625.449219-.191406.640626-.257812.128906-.0625.320312-.128907.449218-.191407.195313-.066406.324219-.128906.515625-.257812.195313-.066406.320313-.191406.449219-.257812.128906-.0625.324219-.191407.453125-.257813.128906-.0625.320313-.191406.449219-.257813.128906-.0625.320312-.191406.449218-.257812.128907-.0625.257813-.191406.449219-.253906.195313-.128906.324219-.195313.515625-.324219.128906-.0625.257813-.191406.386719-.257813.191406-.128906.320313-.253906.515625-.382812.128906-.066406.191406-.128906.320312-.257812.191407-.128907.386719-.324219.578126-.453126.066406-.0625.128906-.125.257812-.191406.195312-.191406.386719-.320312.578125-.515625.066406-.0625.128906-.128906.195313-.191406.191406-.191406.386718-.386719.578124-.578125.0625-.066406.128907-.128906.128907-.195312.191406-.191407.386719-.382813.578125-.640626.066406-.066406.066406-.128906.128906-.195312.191406-.191406.386719-.449219.515625-.640625.0625-.066406.128906-.128906.128906-.195313.191407-.191406.320313-.449218.511719-.640624.066406-.066407.128906-.195313.195312-.257813.128907-.195313.320313-.386719.449219-.644531.066407-.128906.128907-.257813.257813-.386719.128906-.191406.191406-.386719.320312-.515625 1.09375-1.863281 1.867188-3.855469 2.316406-5.851562 0-.0625 0-.0625 0-.128907.066407-.320312.128907-.578125.191407-.898437 0-.128906.066406-.257813.066406-.386719.0625-.195313.0625-.386719.128906-.644531 0-.191406.0625-.386719.0625-.578125 0-.128907.066407-.320313.066407-.449219 0-.195312.0625-.453125.0625-.644531 0-.128907 0-.257813 0-.386719 0-.257812 0-.449219 0-.707031 0-.128907 0-.191407 0-.320313 0-.257812 0-.515625 0-.707031 0-.128906 0-.195313 0-.324219 0-.257812 0-.511718-.0625-.707031 0-.128906 0-.191406 0-.257813 0-.257812-.066407-.511718-.066407-.707031 0-.128906 0-.191406-.0625-.320312-.066406-.257813-.066406-.449219-.128906-.707031 0-.128907-.066406-.195313-.066406-.324219-.0625-.257813-.0625-.449219-.125-.707031-.066407-.320313-.128907-.640626-.257813-.964844-3.152344-11.769532-15.246094-18.714844-26.953125-15.566406-.511719.128906-1.027343.324218-1.476562.453124l-19.363281-19.363281c5.402343-7.332031 8.554687-16.402343 8.554687-26.179687 0-13.183594-5.789063-25.019532-14.921875-33.125l19.425781-30.164063 3.34375-5.148437c5.53125 2.445312 11.578125 3.859375 18.011719 3.859375 22.191406 0 40.519531-16.273438 43.800781-37.5625h23.605469c0 .0625.066406.128906.066406.191406.191406.515625.386719.964844.578125 1.480469.191407.449218.449219.964844.644531 1.414062.0625.066406.0625.195313.128907.257813.253906.449219.511719.902343.769531 1.289062.066406.0625.066406.125.128906.191407.257813.386718.515625.835937.835938 1.222656 0 .0625.066406.0625.066406.128906.320312.386719.640625.835938.964844 1.222656.0625.0625.128906.191406.191406.253906.320312.386719.707031.773438 1.09375 1.09375.0625.066407.0625.066407.128906.128907.320313.324219.707032.644531 1.09375.964843.0625.066407.128906.128907.191406.195313.386719.320313.835938.640625 1.222657.964844.066406.0625.195312.128906.257812.191406.449219.320313.902344.578125 1.414063.902344 1.289062.769531 2.703125 1.347656 4.054687 1.800781.707031.257812 1.414063.449219 2.121094.578125.320313.0625.707031.128906 1.027344.191406 2.511719.453125 5.019531.453125 7.398437 0 1.738282-.320312 3.410156-.769531 5.082032-1.476562.644531-.257813 1.285156-.582031 1.929687-.902344 1.863281-1.027344 3.601563-2.316406 5.144531-3.859375.515625-.515625.964844-1.09375 1.480469-1.671875.707031-.835937 1.351563-1.800781 1.863281-2.765625.195313-.320312.386719-.644531.515625-.964844.835938-.515625.835938-.578125.902344-.707031zm-178.171875 55.1875c-6.433594 0-12.542969 1.351563-18.011719 3.859375l-22.703125-35.3125c7.523438-6.691406 12.800782-15.953125 14.40625-26.371094h52.746094c1.605469 10.417969 6.816406 19.679688 14.40625 26.371094l-22.832031 35.3125c-5.46875-2.445312-11.578125-3.859375-18.011719-3.859375zm0 0" fill="#382b73" data-original="#382B73" class="" style="fill:#0F7666" data-old_color="#0f7666"/><path d="m97.574219 226.667969h94.875v-95.195313h-13.507813v81.6875h-81.367187zm0 0" fill="#f06ea9" data-original="#F06EA9" class="" style="fill:#1E4099" data-old_color="#0F296A"/><path d="m185.695312 219.914062v-88.441406h6.753907v95.195313h-94.875v-6.753907zm0 0" fill="#e43d91" data-original="#E43D91" class="" style="fill:#0F214F" data-old_color="#0F296A"/><path d="m173.410156 213.160156 33.769532 52.421875 48.820312 75.773438 48.820312-75.773438 33.769532-52.421875zm120.667969 44.0625-38.078125 59.109375-38.078125-59.046875-19.683594-30.550781h115.457031zm0 0" fill="#fff" data-original="#FFF" class="" style="fill:#FFFFFF" data-old_color="#ffffff"/><path d="m326.175781 219.914062h-140.351562l70.175781 108.898438zm-12.414062 6.753907-57.761719 89.664062-57.761719-89.597656h115.523438zm0 0" fill="#d1d3d4" data-original="#D1D3D4" class="" style="fill:#798FBC" data-old_color="#6D82AF"/><path d="m414.425781 226.667969h-94.875v-95.195313h13.507813v81.6875h81.367187zm0 0" fill="#f06ea9" data-original="#F06EA9" class="" style="fill:#1E4099" data-old_color="#0F296A"/><path d="m326.304688 219.914062v-88.441406h-6.753907v95.195313h94.875v-6.753907zm0 0" fill="#e43d91" data-original="#E43D91" class="" style="fill:#0F214F" data-old_color="#0F296A"/><path d="m325.144531 388.375-9.582031 9.582031-29.652344-29.652343-27.917968-27.851563-29.714844 29.71875-29.78125 29.78125-9.582032-9.585937 30.164063-30.230469 38.914063-38.851563 36.472656 36.40625zm0 0" fill="#f06ea9" data-original="#F06EA9" class="" style="fill:#1E4099" data-old_color="#0F296A"/><path d="m320.449219 393.070312-62.261719-62.199218-64.386719 64.386718 4.695313 4.695313 59.496094-59.5 57.570312 57.503906zm0 0" fill="#e43d91" data-original="#E43D91" class="" style="fill:#0F214F" data-old_color="#0F296A"/><path d="m198.238281 226.667969 19.683594 30.554687c-3.152344 3.28125-6.753906 6.109375-10.804687 8.296875l-33.769532-52.421875h54.609375c1.347657 4.246094 2.121094 8.8125 2.121094 13.570313zm0 0" fill="#bcbec0" data-original="#BCBEC0"/><path d="m230.140625 219.914062c0-24.472656-19.84375-44.316406-44.320313-44.316406-24.472656 0-44.316406 19.84375-44.316406 44.316406 0 24.476563 19.84375 44.320313 44.316406 44.320313 24.476563 0 44.320313-19.84375 44.320313-44.320313zm0 0" fill="#ef5a9d" data-original="#EF5A9D" class="" style="fill:#0F296A" data-old_color="#0f296a"/><path d="m203.0625 197.53125c0 9.519531-7.71875 17.238281-17.238281 17.238281s-17.238281-7.71875-17.238281-17.238281 7.71875-17.238281 17.238281-17.238281 17.238281 7.71875 17.238281 17.238281zm0 0" fill="#f06ea9" data-original="#F06EA9" class="" style="fill:#1E4099" data-old_color="#0F296A"/><path d="m338.589844 213.160156-33.769532 52.421875c-3.988281-2.183593-7.65625-5.015625-10.804687-8.296875l19.679687-30.550781h-31.902343c0-4.761719.707031-9.261719 2.121093-13.574219zm0 0" fill="#bcbec0" data-original="#BCBEC0"/><path d="m357.503906 188.578125c-17.308594-17.304687-45.367187-17.304687-62.675781 0-17.304687 17.308594-17.304687 45.367187 0 62.675781 17.308594 17.304688 45.367187 17.304688 62.675781 0 17.304688-17.308594 17.304688-45.367187 0-62.675781zm0 0" fill="#ef5a9d" data-original="#EF5A9D" class="" style="fill:#0F296A" data-old_color="#0f296a"/><path d="m343.414062 197.53125c0 9.519531-7.71875 17.238281-17.238281 17.238281s-17.238281-7.71875-17.238281-17.238281 7.71875-17.238281 17.238281-17.238281 17.238281 7.71875 17.238281 17.238281zm0 0" fill="#f06ea9" data-original="#F06EA9" class="" style="fill:#1E4099" data-old_color="#0F296A"/><path d="m294.464844 357.691406c-2.316406 3.988282-5.144532 7.589844-8.554688 10.613282l-27.917968-27.851563-29.714844 29.71875c-3.539063-2.832031-6.625-6.238281-9.199219-10.035156l38.914063-38.914063zm0 0" fill="#a72973" data-original="#A72973" class="active-path" style="fill:#0F214F" data-old_color="#A72973"/><path d="m287.332031 297.472656c-17.304687-17.304687-45.367187-17.304687-62.671875 0-17.308594 17.308594-17.308594 45.367188 0 62.675782 17.304688 17.308593 45.367188 17.308593 62.671875 0 17.308594-17.308594 17.308594-45.367188 0-62.675782zm0 0" fill="#ef5a9d" data-original="#EF5A9D" class="" style="fill:#0F296A" data-old_color="#0f296a"/><path d="m273.25 306.429688c0-9.519532-7.71875-17.238282-17.238281-17.238282-9.523438 0-17.238281 7.71875-17.238281 17.238282 0 9.523437 7.714843 17.238281 17.238281 17.238281 9.519531 0 17.238281-7.714844 17.238281-17.238281zm0 0" fill="#f06ea9" data-original="#F06EA9" class="" style="fill:#1E4099" data-old_color="#0F296A"/><path d="m207.691406 131.476562c0-12.152343-9.851562-22-22-22-12.148437 0-21.996094 9.847657-21.996094 22 0 12.148438 9.847657 21.996094 21.996094 21.996094 12.148438 0 22-9.847656 22-21.996094zm0 0" fill="#fff" data-original="#FFF" class="" style="fill:#FFFFFF" data-old_color="#ffffff"/><path d="m196.695312 140.992188c-10.546874 6.113281-23.992187 2.445312-30.101562-8.039063-1.160156-1.996094-1.929688-4.117187-2.445312-6.238281-1.15625 5.207031-.449219 10.804687 2.445312 15.757812 6.109375 10.546875 19.554688 14.152344 30.101562 8.039063 8.554688-4.953125 12.542969-14.730469 10.484376-23.863281-1.285157 5.855468-4.886719 11.128906-10.484376 14.34375zm0 0" fill="#d1d3d4" data-original="#D1D3D4" class="" style="fill:#798FBC" data-old_color="#6D82AF"/><path d="m103.246094 198.34375c-11.734375-3.144531-23.796875 3.820312-26.9375 15.554688-3.144532 11.734374 3.816406 23.796874 15.550781 26.941406 11.734375 3.144531 23.796875-3.820313 26.941406-15.554688s-3.820312-23.796875-15.554687-26.941406zm0 0" fill="#fff" data-original="#FFF" class="" style="fill:#FFFFFF" data-old_color="#ffffff"/><path d="m108.574219 229.113281c-10.546875 6.109375-23.992188 2.445313-30.101563-8.039062-1.15625-1.996094-1.929687-4.117188-2.445312-6.238281-1.15625 5.207031-.449219 10.804687 2.445312 15.757812 6.109375 10.546875 19.554688 14.148438 30.101563 8.039062 8.554687-4.953124 12.542969-14.730468 10.484375-23.863281-1.285156 5.855469-4.886719 11.128907-10.484375 14.34375zm0 0" fill="#d1d3d4" data-original="#D1D3D4" class="" style="fill:#798FBC" data-old_color="#6D82AF"/><path d="m348.289062 131.476562c0-12.148437-9.851562-22-22-22-12.148437 0-21.996093 9.851563-21.996093 22 0 12.148438 9.847656 21.996094 21.996093 21.996094 12.148438 0 22-9.847656 22-21.996094zm0 0" fill="#fff" data-original="#FFF" class="" style="fill:#FFFFFF" data-old_color="#ffffff"/><path d="m315.304688 140.992188c10.546874 6.113281 23.992187 2.445312 30.101562-8.039063 1.160156-1.996094 1.929688-4.117187 2.445312-6.238281 1.15625 5.207031.449219 10.804687-2.445312 15.757812-6.109375 10.546875-19.554688 14.152344-30.101562 8.039063-8.554688-4.953125-12.542969-14.730469-10.484376-23.863281 1.285157 5.855468 4.886719 11.128906 10.484376 14.34375zm0 0" fill="#d1d3d4" data-original="#D1D3D4" class="" style="fill:#798FBC" data-old_color="#6D82AF"/><path d="m436.402344 219.597656c0-12.148437-9.847656-21.996094-21.996094-21.996094s-21.996094 9.847657-21.996094 21.996094c0 12.148438 9.847656 21.996094 21.996094 21.996094s21.996094-9.847656 21.996094-21.996094zm0 0" fill="#fff" data-original="#FFF" class="" style="fill:#FFFFFF" data-old_color="#ffffff"/><path d="m403.425781 229.113281c10.546875 6.109375 23.992188 2.445313 30.101563-8.039062 1.15625-1.996094 1.929687-4.117188 2.445312-6.238281 1.15625 5.207031.449219 10.804687-2.445312 15.757812-6.109375 10.546875-19.554688 14.148438-30.101563 8.039062-8.554687-4.953124-12.542969-14.730468-10.484375-23.863281 1.285156 5.855469 4.886719 11.128907 10.484375 14.34375zm0 0" fill="#d1d3d4" data-original="#D1D3D4" class="" style="fill:#798FBC" data-old_color="#6D82AF"/><path d="m215.679688 395.203125c0-12.148437-9.851563-22-22-22-12.148438 0-21.996094 9.851563-21.996094 22s9.847656 21.996094 21.996094 21.996094c12.148437 0 22-9.847657 22-21.996094zm0 0" fill="#fff" data-original="#FFF" class="" style="fill:#FFFFFF" data-old_color="#ffffff"/><path d="m182.671875 404.710938c10.550781 6.109374 23.992187 2.445312 30.105469-8.039063 1.15625-1.996094 1.929687-4.117187 2.441406-6.238281 1.160156 5.207031.453125 10.804687-2.441406 15.757812-6.113282 10.546875-19.554688 14.148438-30.105469 8.039063-8.554687-4.953125-12.542969-14.730469-10.484375-23.863281 1.289062 5.855468 4.890625 11.128906 10.484375 14.34375zm0 0" fill="#d1d3d4" data-original="#D1D3D4" class="" style="fill:#798FBC" data-old_color="#6D82AF"/><path d="m340.320312 395.183594c0-12.148438-9.847656-21.996094-21.996093-21.996094-12.148438 0-21.996094 9.847656-21.996094 21.996094 0 12.148437 9.847656 21.996094 21.996094 21.996094 12.148437 0 21.996093-9.847657 21.996093-21.996094zm0 0" fill="#fff" data-original="#FFF" class="" style="fill:#FFFFFF" data-old_color="#ffffff"/><path d="m307.328125 404.710938c10.550781 6.109374 23.992187 2.445312 30.101563-8.039063 1.160156-1.996094 1.929687-4.117187 2.445312-6.238281 1.15625 5.207031.449219 10.804687-2.445312 15.757812-6.109376 10.546875-19.550782 14.148438-30.101563 8.039063-8.554687-4.953125-12.542969-14.730469-10.484375-23.863281 1.285156 5.855468 4.890625 11.128906 10.484375 14.34375zm0 0" fill="#d1d3d4" data-original="#D1D3D4" class="" style="fill:#798FBC" data-old_color="#6D82AF"/></g> </svg>
