<?xml version="1.0" encoding="utf-8"?>
<!-- Generator: Adobe Illustrator 24.0.0, SVG Export Plug-In . SVG Version: 6.00 Build 0)  -->
<svg version="1.1" id="Layer_1" xmlns="http://www.w3.org/2000/svg" xmlns:xlink="http://www.w3.org/1999/xlink" x="0px" y="0px"
	 viewBox="0 0 512 512" style="enable-background:new 0 0 512 512;" xml:space="preserve">
<style type="text/css">
	.st0{fill:#15DABD;}
	.st1{fill:#232E7A;}
	.st2{fill:#3342AE;}
	.st3{fill:#77D2FF;}
	.st4{fill:#4FBBFF;}
	.st5{fill:#0080F4;}
	.st6{fill:#1A9172;}
	.st7{fill:#27A3FF;}
	.st8{fill:#25AE88;}
	.st9{fill:#61B872;}
	.st10{fill:#4159CE;}
	.st11{fill:#2B3B89;}
	.st12{fill:#B8FFFD;}
	.st13{fill:#176EA3;}
	.st14{fill:#B5FCFF;}
	.st15{fill:#99E0E0;}
	.st16{fill:#3D3D3D;}
	.st17{fill:#AAE8DC;}
	.st18{fill:#F3F3F3;}
	.st19{fill:#E4E4E4;}
	.st20{fill:#293A8E;}
	.st21{fill:#2E4099;}
	.st22{fill:#55897F;}
	.st23{fill:#E5E5E5;}
</style>
<circle class="st0" cx="255.8" cy="259" r="248.7"/>
<polygon class="st1" points="256,330.5 188.2,289.8 188.2,222 256,262.7 "/>
<polygon class="st11" points="256,330.5 323.8,289.8 323.8,222 256,262.7 "/>
<polygon class="st2" points="188.2,222 256,181.3 323.8,222 256,262.7 "/>
<g>
	<path class="st2" d="M250.6,55.2l-20.3,27.1l10.8,8.1l8.1-10.8v54.2h13.6V79.6l8.1,10.8l10.8-8.1l-20.3-27.1c-2.5-3-6.9-3.4-9.9-1
		C251.2,54.5,250.9,54.9,250.6,55.2z"/>
	<path class="st2" d="M262.8,432.2V378h-13.6v54.2l-8.1-10.8l-10.8,8.1l20.3,27.1c2.2,3,6.5,3.6,9.5,1.4c0.5-0.4,1-0.8,1.4-1.4
		l20.3-27.1l-10.8-8.1L262.8,432.2z"/>
	<rect x="249.2" y="147.4" class="st2" width="13.6" height="13.6"/>
	<rect x="249.2" y="350.9" class="st2" width="13.6" height="13.6"/>
	<path class="st2" d="M133.9,262.7v-13.6H79.7l10.8-8.1l-8.1-10.8l-27.1,20.3c-3,2.2-3.6,6.5-1.4,9.5c0.4,0.5,0.8,1,1.4,1.4
		l27.1,20.3l8.1-10.8l-10.8-8.1L133.9,262.7L133.9,262.7z"/>
	<path class="st2" d="M456.7,250.5l-27.1-20.3l-8.1,10.8l10.8,8.1h-54.2v13.6h54.2l-10.8,8.1l8.1,10.8l27.1-20.3
		c3-2.2,3.6-6.5,1.4-9.5C457.7,251.3,457.2,250.9,456.7,250.5z"/>
	<rect x="147.5" y="249.1" class="st2" width="13.6" height="13.6"/>
	<rect x="350.9" y="249.1" class="st2" width="13.6" height="13.6"/>
	<path class="st2" d="M128.5,149.5l-1.9-13.4l38.4,38.4l9.6-9.6l-38.4-38.4l13.4,1.9l1.9-13.4l-33.6-4.8c-3.7-0.5-7.2,2-7.7,5.7
		c-0.1,0.7-0.1,1.3,0,2l4.8,33.6L128.5,149.5z"/>
	<path class="st2" d="M383.5,362.4l1.9,13.4l-38.4-38.4l-9.6,9.6l38.4,38.4l-13.4-1.9l-1.9,13.4l33.6,4.8c0.3,0,0.6,0.1,1,0.1
		c3.7,0,6.8-3,6.8-6.8c0-0.3,0-0.6-0.1-1l-4.8-33.6L383.5,362.4z"/>
	
		<rect x="177.3" y="177.2" transform="matrix(0.7071 -0.7071 0.7071 0.7071 -76.2068 184.0398)" class="st2" width="13.6" height="13.6"/>
	
		<rect x="321.1" y="321.1" transform="matrix(0.7071 -0.7071 0.7071 0.7071 -135.7739 327.9018)" class="st2" width="13.6" height="13.6"/>
	<path class="st2" d="M164.9,337.4l-38.4,38.4l1.9-13.4l-13.4-1.9l-4.8,33.6c-0.5,3.7,2,7.1,5.7,7.7c0.3,0,0.6,0.1,1,0.1
		c0.3,0,0.6,0,1-0.1l33.6-4.8l-1.9-13.4l-13.4,1.9l38.4-38.4L164.9,337.4z"/>
	<path class="st2" d="M347.1,174.4l38.4-38.4l-1.9,13.4l13.4,1.9l4.8-33.6c0.3-2.1-0.4-4.2-1.9-5.8c-1.5-1.5-3.6-2.2-5.8-1.9
		l-33.6,4.8l1.9,13.4l13.4-1.9l-38.4,38.4L347.1,174.4z"/>
	
		<rect x="177.3" y="321.1" transform="matrix(0.7071 -0.7071 0.7071 0.7071 -177.8919 226.2185)" class="st2" width="13.6" height="13.6"/>
	
		<rect x="321.1" y="177.2" transform="matrix(0.7071 -0.7071 0.7071 0.7071 -34.0616 285.7708)" class="st2" width="13.6" height="13.6"/>
</g>
<polygon class="st7" points="283,197.5 214.8,238 228,245.9 296.2,205.5 "/>
</svg>
