<svg id="Capa_1" data-name="Capa 1" xmlns="http://www.w3.org/2000/svg" viewBox="0 0 512 512"><defs><style>.cls-1{fill:#dff3e3;}.cls-2{fill:#0ee5c3;}.cls-3{fill:#0f296a;}</style></defs><title>employee (2)</title><path class="cls-1" d="M307.76,287.63c0-.54,0-1.08.09-1.62,0,.2-.06.39-.07.59S307.78,287.29,307.76,287.63Z"/><path class="cls-2" d="M381.16,256.13H341.47c-15.11,0-28.54,9.92-32.54,23.9-.08.28-.15.57-.22.86-.17.65-.32,1.31-.44,2-.1.5-.17,1-.24,1.54s-.14,1-.18,1.59-.07,1.08-.09,1.63,0,1.23,0,1.85,0,1.07.08,1.6.09,1.19.17,1.78.14,1,.23,1.56.22,1.15.35,1.72.25,1,.39,1.5.33,1.11.51,1.66.34,1,.53,1.44.44,1.06.68,1.58.43.92.66,1.37.54,1,.83,1.49.51.87.78,1.29.64.94,1,1.41.58.8.9,1.19.73.87,1.11,1.3.65.75,1,1.1.82.8,1.24,1.2.72.67,1.09,1,.91.72,1.37,1.07.77.6,1.17.88,1,.63,1.48.94.82.52,1.24.76,1.07.55,1.61.81.85.43,1.29.62,1.15.45,1.74.66.87.34,1.31.48c.62.2,1.27.35,1.91.51.42.11.85.24,1.28.33.71.15,1.45.25,2.18.35.37.05.74.13,1.12.17a31.85,31.85,0,0,0,3.4.18h40.81a8.16,8.16,0,0,0,8.16-8.16v-49A8.16,8.16,0,0,0,381.16,256.13ZM340.35,301a12.24,12.24,0,1,1,12.24-12.24A12.24,12.24,0,0,1,340.35,301Z"/><circle class="cls-3" cx="340.35" cy="288.78" r="12.24"/><path class="cls-2" d="M337,321.24c-.38,0-.75-.11-1.13-.17-.73-.1-1.46-.19-2.18-.34-.43-.09-.85-.23-1.28-.34-.63-.15-1.28-.31-1.9-.51-.45-.14-.88-.32-1.32-.48s-1.16-.41-1.73-.66-.86-.41-1.29-.62-1.09-.52-1.61-.81-.83-.49-1.24-.75-1-.61-1.49-.95-.78-.58-1.17-.88-.92-.69-1.36-1.07-.73-.66-1.09-1-.84-.78-1.24-1.19-.67-.73-1-1.1-.75-.86-1.11-1.31-.6-.79-.89-1.19-.66-.93-1-1.4-.53-.86-.79-1.29-.56-1-.83-1.5-.44-.91-.66-1.37-.46-1-.67-1.58-.37-.95-.53-1.44-.36-1.1-.51-1.66-.27-1-.39-1.5-.25-1.14-.35-1.72-.17-1-.24-1.56-.12-1.18-.16-1.78-.07-1.06-.08-1.6c0-.24,0-.47,0-.7,0-.39,0-.77.05-1.15s0-.68,0-1,.05-.4.07-.6c0-.54.11-1.06.18-1.6s.14-1,.24-1.53c.12-.67.27-1.33.44-2,.07-.28.13-.57.22-.85a32.63,32.63,0,0,1,31.42-23.91H373V190.84H173a20.41,20.41,0,0,1-20.4-20.4V362.23a20.4,20.4,0,0,0,20.4,20.4H373V321.42H340.35A31.85,31.85,0,0,1,337,321.24Zm-66-65.11a8.16,8.16,0,1,1-8.16,8.16A8.16,8.16,0,0,1,271,256.13Zm-73.45,32.65a8.16,8.16,0,1,1,8.16,8.16A8.16,8.16,0,0,1,197.53,288.78Zm-8.16-49A8.16,8.16,0,1,1,181.2,248,8.16,8.16,0,0,1,189.37,239.81Zm24.48,122.42a8.16,8.16,0,1,1,8.16-8.16A8.16,8.16,0,0,1,213.85,362.23Zm20.4-89.78a8.16,8.16,0,1,1,8.16-8.16A8.16,8.16,0,0,1,234.25,272.45ZM271,309.18a8.16,8.16,0,1,1,8.16-8.16A8.16,8.16,0,0,1,271,309.18Zm16.32,32.65a8.17,8.17,0,1,1,8.16-8.16A8.16,8.16,0,0,1,287.3,341.83Zm16.33-102a8.16,8.16,0,1,1,8.16,8.16A8.16,8.16,0,0,1,303.63,239.81ZM320,358.15a8.16,8.16,0,1,1,8.16-8.16A8.16,8.16,0,0,1,320,358.15Z"/><path class="cls-1" d="M307.74,289.48c0-.61,0-1.23,0-1.85,0,.38-.06.76-.06,1.15C307.71,289,307.74,289.24,307.74,289.48Z"/><path class="cls-1" d="M308.93,280c4-14,17.43-23.9,32.54-23.9h-1.12A32.63,32.63,0,0,0,308.93,280Z"/><circle class="cls-3" cx="205.69" cy="288.78" r="8.16"/><circle class="cls-3" cx="189.37" cy="247.97" r="8.16"/><circle class="cls-3" cx="213.85" cy="354.07" r="8.16"/><circle class="cls-3" cx="234.25" cy="264.29" r="8.16"/><circle class="cls-3" cx="270.98" cy="301.02" r="8.16"/><circle class="cls-3" cx="270.98" cy="264.29" r="8.16"/><circle class="cls-3" cx="287.3" cy="333.67" r="8.16"/><circle class="cls-3" cx="319.95" cy="349.99" r="8.16"/><circle class="cls-3" cx="311.79" cy="239.81" r="8.16"/><path class="cls-2" d="M173,190.84H373V150H173a20.41,20.41,0,0,0,0,40.81Z"/><path class="cls-3" d="M381.16,252.05h-4.08V150A4.08,4.08,0,0,0,373,146H173a24.51,24.51,0,0,0-24.48,24.49V362.23A24.51,24.51,0,0,0,173,386.71H373a4.08,4.08,0,0,0,4.08-4.08V325.5h4.08a12.25,12.25,0,0,0,12.24-12.24v-49A12.25,12.25,0,0,0,381.16,252.05ZM173,154.11H368.92v32.65H173a16.33,16.33,0,0,1,0-32.65Zm102,110.18a4.08,4.08,0,1,1-4.08-4.08A4.08,4.08,0,0,1,275.06,264.29Zm8.16,69.38a4.08,4.08,0,1,1,4.08,4.08A4.09,4.09,0,0,1,283.22,333.67Zm85.7,44.88H352.59v-20.4a12.25,12.25,0,0,0-12.24-12.24h-8.91a12.24,12.24,0,1,0,0,8.16h8.91a4.08,4.08,0,0,1,4.08,4.08v20.4H291.38V345.16a12.24,12.24,0,1,0-8.16,0v33.39H242.41V309.18a4.09,4.09,0,0,1,4.09-4.08h13a12.24,12.24,0,1,0,0-8.16h-13a12.26,12.26,0,0,0-12.25,12.24v69.37H173a16.34,16.34,0,0,1-16.32-16.32v-4.08h45.64a12.24,12.24,0,1,0,0-8.16H156.72V325.5h40.81a12.25,12.25,0,0,0,12.24-12.24v-13a12.24,12.24,0,1,0-8.16,0v13a4.08,4.08,0,0,1-4.08,4.08H156.72V252.05h21.15a12.24,12.24,0,1,0,0-8.16H156.72V219.41h61.21a12.25,12.25,0,0,1,12.24,12.24V252.8a12.25,12.25,0,1,0,8.16,0V231.65a20.43,20.43,0,0,0-20.4-20.41H156.72V188.67l.22.16a25,25,0,0,0,3.05,2.28l.52.32a23.72,23.72,0,0,0,3.46,1.72c.16.07.34.13.51.19a25,25,0,0,0,3.87,1.12l.36,0a23.89,23.89,0,0,0,4.33.41H266.9V252.8a12.24,12.24,0,1,0,8.16,0V194.92h93.86v8.16H328.11a20.43,20.43,0,0,0-20.4,20.41v4.83a12.24,12.24,0,1,0,8.16,0v-4.83a12.26,12.26,0,0,1,12.24-12.25h40.81v40.81H340.35A36.74,36.74,0,0,0,306,275.91l-.12.33c-.32.86-.61,1.74-.85,2.63-.13.43-.23.86-.34,1.31-.16.63-.31,1.27-.42,1.93s-.21,1.24-.29,1.87-.14,1.1-.19,1.66c0,.23-.07.46-.08.7,0,.43,0,.84,0,1.26s-.06.78-.06,1.18c0,.22,0,.43,0,.65,0,.69.06,1.38.1,2.06s.08,1.08.15,1.61c.09.76.21,1.51.34,2.26.08.42.15.86.24,1.28.18.83.4,1.65.64,2.47.1.31.19.64.29.95.28.87.59,1.72.94,2.57.11.25.21.51.32.76q.56,1.28,1.2,2.49c.13.25.27.5.41.75.43.78.89,1.53,1.38,2.28.19.29.39.57.58.85.48.68,1,1.35,1.5,2,.26.32.53.63.8.94s.65.81,1,1.19c.19.2.4.37.59.57s.61.59.92.88c.56.53,1.12,1.06,1.71,1.56.38.32.78.61,1.17.91.54.42,1.08.84,1.64,1.23s1.19.76,1.79,1.13c.41.24.8.51,1.21.73.92.51,1.86,1,2.82,1.4l.4.19a36.55,36.55,0,0,0,14.55,3h28.57v53.05ZM324,350a4.08,4.08,0,1,1-4.08-4.08A4.08,4.08,0,0,1,324,350ZM266.9,301A4.08,4.08,0,1,1,271,305.1,4.08,4.08,0,0,1,266.9,301Zm-57.13,53.05a4.08,4.08,0,1,1,4.08,4.08A4.08,4.08,0,0,1,209.77,354.07Zm-8.16-65.29a4.08,4.08,0,1,1,4.08,4.08A4.08,4.08,0,0,1,201.61,288.78ZM185.28,248a4.09,4.09,0,1,1,4.09,4.08A4.09,4.09,0,0,1,185.28,248Zm53.05,16.32a4.08,4.08,0,1,1-4.08-4.08A4.08,4.08,0,0,1,238.33,264.29Zm77.54-24.48a4.08,4.08,0,1,1-4.08-4.08A4.08,4.08,0,0,1,315.87,239.81Zm69.37,73.45a4.08,4.08,0,0,1-4.08,4.08H340.35A28.4,28.4,0,0,1,322.5,311l-.4-.31c-.51-.43-1-.88-1.46-1.34l-.67-.64c-.43-.43-.83-.89-1.23-1.35-.22-.25-.44-.5-.64-.76-.4-.5-.78-1-1.15-1.54-.16-.22-.31-.45-.46-.68-.38-.57-.73-1.15-1.07-1.75l-.33-.61c-.33-.62-.63-1.26-.92-1.91-.09-.21-.18-.42-.26-.63-.27-.64-.51-1.29-.72-2l-.24-.79c-.18-.62-.34-1.24-.48-1.87-.07-.35-.14-.7-.2-1-.1-.56-.19-1.13-.26-1.7s-.08-.88-.11-1.32-.07-1-.08-1.54,0-1,0-1.46,0-1,.08-1.51.09-.86.15-1.29.13-1,.22-1.45.22-1.05.35-1.57c.07-.3.15-.61.23-.9,3.46-12.08,15-20.9,28.6-20.9h39.69a4.08,4.08,0,0,1,4.08,4.08Z"/><path class="cls-3" d="M340.35,272.45a16.33,16.33,0,1,0,16.33,16.33A16.35,16.35,0,0,0,340.35,272.45Zm0,24.49a8.16,8.16,0,1,1,8.16-8.16A8.17,8.17,0,0,1,340.35,296.94Z"/></svg>