<?xml version="1.0" encoding="utf-8"?>
<!-- Generator: Adobe Illustrator 24.0.0, SVG Export Plug-In . SVG Version: 6.00 Build 0)  -->
<svg version="1.1" id="Layer_1" xmlns="http://www.w3.org/2000/svg" xmlns:xlink="http://www.w3.org/1999/xlink" x="0px" y="0px"
	 viewBox="0 0 512 512" style="enable-background:new 0 0 512 512;" xml:space="preserve">
<style type="text/css">
	.st0{fill:#15DABD;}
	.st1{fill:#232E7A;}
	.st2{fill:#3342AE;}
	.st3{fill:#77D2FF;}
	.st4{fill:#4FBBFF;}
	.st5{fill:#0080F4;}
	.st6{fill:#1A9172;}
	.st7{fill:#27A3FF;}
	.st8{fill:#25AE88;}
	.st9{fill:#61B872;}
	.st10{fill:#4159CE;}
	.st11{fill:#2B3B89;}
	.st12{fill:#B8FFFD;}
	.st13{fill:#176EA3;}
	.st14{fill:#B5FCFF;}
	.st15{fill:#99E0E0;}
	.st16{fill:#3D3D3D;}
	.st17{fill:#AAE8DC;}
	.st18{fill:#F3F3F3;}
	.st19{fill:#E4E4E4;}
	.st20{fill:#293A8E;}
	.st21{fill:#2E4099;}
	.st22{fill:#55897F;}
	.st23{fill:#E5E5E5;}
</style>
<circle class="st0" cx="256" cy="259" r="248.7"/>
<path class="st2" d="M413.4,142.1v39c-0.4,52.9-15.4,104.6-43.6,149.4c-17.8,28.7-39.2,54.9-63.8,77.9c-14.9,14.4-31.2,27.5-48.5,39
	c-17.3-11.5-33.5-24.5-48.5-39c-24.6-23-46.1-49.3-63.8-77.9c-28.1-44.8-43.2-96.5-43.6-149.4v-39c30.4-13.2,53.1-39.5,61.8-71.4
	h188.1C360.3,102.6,383,128.8,413.4,142.1z"/>
<path class="st20" d="M413.4,142.1v39c-0.4,52.9-15.4,104.6-43.6,149.4c-17.8,28.7-39.2,54.9-63.8,77.9
	c-14.9,14.4-31.2,27.5-48.5,39c0,0-2.3-1.5-6.5-4.4c14.8-10.5,28.8-22,42-34.6c24.6-23,46.1-49.3,63.8-77.9
	c28.1-44.8,43.2-96.5,43.6-149.4v-39c-30.4-13.2-53.1-39.5-61.8-71.4h13C360.3,102.6,383,128.8,413.4,142.1z"/>
<path class="st21" d="M445.9,330.4l-39,39l39,39H306c24.6-23,46.1-49.3,63.8-77.9H445.9z"/>
<path class="st17" d="M186.1,200.5H329c7.2,0,13,5.8,13,13v110.4c0,7.2-5.8,13-13,13H186.1c-7.2,0-13-5.8-13-13V213.5
	C173.1,206.3,178.9,200.5,186.1,200.5z"/>
<path class="st22" d="M341.9,213.5v110.4c0,7.2-5.8,13-13,13h-13c7.2,0,13-5.8,13-13V213.5c0-7.2-5.8-13-13-13h13
	C336.1,200.5,341.9,206.3,341.9,213.5z"/>
<path class="st23" d="M309.5,135.6v64.9h-26v-52c0-7.2-5.8-13-13-13h-26c-7.2,0-13,5.8-13,13v52h-26v-64.9c0-14.3,11.6-26,26-26h52
	C297.8,109.6,309.5,121.2,309.5,135.6z"/>
<path class="st21" d="M209.1,408.4H69.2l39-39l-39-39h76.1C163,359.1,184.4,385.3,209.1,408.4z"/>
<path d="M282.7,246c-3-11.5-13.3-19.5-25.1-19.5c-14.3,0-25.9,11.6-26,25.9c0,11.8,8,22.2,19.5,25.1v33.4h13v-33.4
	C277.9,274,286.2,259.8,282.7,246z"/>
</svg>
