<?xml version="1.0" encoding="utf-8"?>
<!-- Generator: Adobe Illustrator 24.0.0, SVG Export Plug-In . SVG Version: 6.00 Build 0)  -->
<svg version="1.1" id="Layer_1" xmlns="http://www.w3.org/2000/svg" xmlns:xlink="http://www.w3.org/1999/xlink" x="0px" y="0px"
	 viewBox="0 0 512 512" style="enable-background:new 0 0 512 512;" xml:space="preserve">
<style type="text/css">
	.st0{fill:#15DABD;}
	.st1{fill:#232E7A;}
	.st2{fill:#3342AE;}
	.st3{fill:#77D2FF;}
	.st4{fill:#4FBBFF;}
	.st5{fill:#0080F4;}
	.st6{fill:#1A9172;}
	.st7{fill:#27A3FF;}
	.st8{fill:#25AE88;}
	.st9{fill:#61B872;}
	.st10{fill:#4159CE;}
	.st11{fill:#2B3B89;}
	.st12{fill:#B8FFFD;}
	.st13{fill:#176EA3;}
	.st14{fill:#B5FCFF;}
	.st15{fill:#99E0E0;}
	.st16{fill:#3D3D3D;}
	.st17{fill:#AAE8DC;}
	.st18{fill:#F3F3F3;}
	.st19{fill:#E4E4E4;}
	.st20{fill:#293A8E;}
	.st21{fill:#2E4099;}
	.st22{fill:#55897F;}
	.st23{fill:#E5E5E5;}
</style>
<circle class="st0" cx="256" cy="259" r="248.7"/>
<path class="st12" d="M282.1,107.7c-7.1-5.4-15.5-8.2-24.4-8.2c-8.9,0-17.4,2.9-24.5,8.3c-2.6,2-3.1,5.6-1.1,8.2
	c2,2.6,5.6,3.1,8.2,1.1c5.1-3.8,11.1-5.9,17.4-5.9c6.3,0,12.3,2,17.4,5.8c2.6,2,6.3,1.4,8.2-1.1
	C285.2,113.3,284.7,109.6,282.1,107.7L282.1,107.7z"/>
<path class="st12" d="M292,89.8c-9.9-7.5-21.8-11.5-34.3-11.5c-12.5,0-24.4,4-34.3,11.6c-2.6,2-3.1,5.6-1.1,8.2
	c2,2.6,5.6,3.1,8.2,1.1c7.9-6,17.3-9.2,27.2-9.2c9.9,0,19.3,3.2,27.2,9.2c2.6,2,6.2,1.4,8.2-1.1C295.1,95.4,294.6,91.8,292,89.8z"/>
<path class="st12" d="M301.4,72.4c-12.7-9.6-27.8-14.7-43.7-14.7c-15.9,0-31.1,5.1-43.8,14.8c-2.6,2-3.1,5.6-1.1,8.2
	c2,2.6,5.6,3.1,8.2,1.1c10.6-8.1,23.3-12.4,36.7-12.4c13.3,0,26,4.3,36.6,12.3c2.6,2,6.2,1.5,8.2-1.1
	C304.5,78.1,304,74.4,301.4,72.4z"/>
<path class="st7" d="M257.7,125.6c-3.2,0-5.9,2.6-5.9,5.9V183c0,3.2,2.6,5.9,5.9,5.9c3.2,0,5.9-2.6,5.9-5.9v-51.5
	C263.5,128.3,260.9,125.6,257.7,125.6z"/>
<path class="st7" d="M281.8,212.9h-48.3v-25.7c0-3.6,2.9-6.4,6.4-6.4h35.4c3.6,0,6.4,2.9,6.4,6.4L281.8,212.9L281.8,212.9z"/>
<path class="st13" d="M275.4,180.8h-24.1c3.6,0,6.4,2.9,6.4,6.4v25.7h24.1v-25.7C281.8,183.7,278.9,180.8,275.4,180.8z"/>
<path class="st14" d="M378.3,294.2H137v-81.2c0-4.4,3.6-8,8-8h225.2c4.4,0,8,3.6,8,8L378.3,294.2L378.3,294.2z"/>
<path class="st15" d="M370.3,204.9h-24.1c4.4,0,8,3.6,8,8v81.2h24.1v-81.2C378.3,208.5,374.7,204.9,370.3,204.9z"/>
<path class="st2" d="M378.3,229H137v-16.1c0-4.4,3.6-8,8-8h225.2c4.4,0,8,3.6,8,8L378.3,229L378.3,229z"/>
<path class="st13" d="M370.3,204.9h-24.1c4.4,0,8,3.6,8,8V229h24.1v-16.1C378.3,208.5,374.7,204.9,370.3,204.9z"/>
<path class="st16" d="M151.1,434.4h-19.3c-3.6,0-6.4-2.9-6.4-6.4v-45.8h32.2V428C157.5,431.5,154.7,434.4,151.1,434.4z"/>
<path class="st16" d="M383.5,434.4h-19.3c-3.6,0-6.4-2.9-6.4-6.4v-45.8H390V428C390,431.5,387.1,434.4,383.5,434.4z"/>
<path class="st2" d="M398,375.5H117.3v-74.1c0-8.9,7.2-16.1,16.1-16.1h248.5c8.9,0,16.1,7.2,16.1,16.1V375.5z"/>
<path class="st13" d="M381.9,285.3h-24.1c8.9,0,16.1,7.2,16.1,16.1v74.1H398v-74.1C398,292.5,390.8,285.3,381.9,285.3L381.9,285.3z"
	/>
<path class="st7" d="M137,285.3h-29.9c-7.5,0-13.6-6.1-13.6-13.6v-0.2c0-7.5,6.1-13.6,13.6-13.6h4.9c13.8,0,25,11.2,25,25V285.3z"/>
<path class="st13" d="M378.3,285.3h29.9c7.5,0,13.6-6.1,13.6-13.6v-0.2c0-7.5-6.1-13.6-13.6-13.6h-4.9c-13.8,0-25,11.2-25,25
	L378.3,285.3L378.3,285.3z"/>
<path class="st17" d="M161.6,347.9h-44.2v-40.2h44.2c11.1,0,20.1,9,20.1,20.1C181.7,338.9,172.7,347.9,161.6,347.9z"/>
<path class="st17" d="M353.8,347.9H398v-40.2h-44.2c-11.1,0-20.1,9-20.1,20.1C333.7,338.9,342.7,347.9,353.8,347.9z"/>
<path class="st17" d="M373.9,307.7H398v40.2h-24.1V307.7z"/>
<path class="st18" d="M398,393.1H117.3c-6.7,0-12.1-5.4-12.1-12.1c0-6.7,5.4-12.1,12.1-12.1H398c6.7,0,12.1,5.4,12.1,12.1
	C410.1,387.7,404.7,393.1,398,393.1z"/>
<path class="st19" d="M398,369h-24.1c6.7,0,12.1,5.4,12.1,12.1s-5.4,12.1-12.1,12.1H398c6.7,0,12.1-5.4,12.1-12.1
	C410.1,374.4,404.7,369,398,369z"/>
<g>
	<path class="st14" d="M208.2,307.9c-3.2,0-5.9,2.6-5.9,5.9v28c0,3.2,2.6,5.9,5.9,5.9s5.9-2.6,5.9-5.9v-28
		C214,310.5,211.4,307.9,208.2,307.9z"/>
	<path class="st14" d="M232.9,307.9c-3.2,0-5.9,2.6-5.9,5.9v28c0,3.2,2.6,5.9,5.9,5.9c3.2,0,5.9-2.6,5.9-5.9v-28
		C238.8,310.5,236.2,307.9,232.9,307.9z"/>
	<path class="st14" d="M257.7,307.9c-3.2,0-5.9,2.6-5.9,5.9v28c0,3.2,2.6,5.9,5.9,5.9c3.2,0,5.9-2.6,5.9-5.9v-28
		C263.5,310.5,260.9,307.9,257.7,307.9z"/>
	<path class="st14" d="M282.4,307.9c-3.2,0-5.9,2.6-5.9,5.9v28c0,3.2,2.6,5.9,5.9,5.9s5.9-2.6,5.9-5.9v-28
		C288.3,310.5,285.6,307.9,282.4,307.9z"/>
	<path class="st14" d="M307.2,307.9c-3.2,0-5.9,2.6-5.9,5.9v28c0,3.2,2.6,5.9,5.9,5.9s5.9-2.6,5.9-5.9v-28
		C313,310.5,310.4,307.9,307.2,307.9z"/>
</g>
</svg>
