<?xml version="1.0" encoding="utf-8"?>
<!-- Generator: Adobe Illustrator 24.0.0, SVG Export Plug-In . SVG Version: 6.00 Build 0)  -->
<svg version="1.1" id="Layer_1" xmlns="http://www.w3.org/2000/svg" xmlns:xlink="http://www.w3.org/1999/xlink" x="0px" y="0px"
	 viewBox="0 0 512 512" style="enable-background:new 0 0 512 512;" xml:space="preserve">
<style type="text/css">
	.st0{fill:#15DABD;}
	.st1{fill:#232E7A;}
	.st2{fill:#3342AE;}
	.st3{fill:#77D2FF;}
	.st4{fill:#4FBBFF;}
	.st5{fill:#0080F4;}
	.st6{fill:#1A9172;}
	.st7{fill:#27A3FF;}
	.st8{fill:#25AE88;}
	.st9{fill:#61B872;}
	.st10{fill:#4159CE;}
	.st11{fill:#2B3B89;}
	.st12{fill:#B8FFFD;}
	.st13{fill:#176EA3;}
	.st14{fill:#B5FCFF;}
	.st15{fill:#99E0E0;}
	.st16{fill:#3D3D3D;}
	.st17{fill:#AAE8DC;}
	.st18{fill:#F3F3F3;}
	.st19{fill:#E4E4E4;}
	.st20{fill:#293A8E;}
	.st21{fill:#2E4099;}
	.st22{fill:#55897F;}
	.st23{fill:#E5E5E5;}
</style>
<g>
	<circle class="st0" cx="256" cy="256" r="200"/>
	<polygon class="st1" points="256.1,313.5 201.6,280.8 201.6,226.3 256.1,259 	"/>
	<polygon class="st11" points="256.1,313.5 310.7,280.8 310.7,226.3 256.1,259 	"/>
	<polygon class="st2" points="201.6,226.3 256.1,193.5 310.7,226.3 256.1,259 	"/>
	<g>
		<path class="st2" d="M251.8,92.1l-16.4,21.8l8.7,6.5l6.5-8.7v43.6h10.9v-43.6l6.5,8.7l8.7-6.5l-16.4-21.8c-2-2.4-5.5-2.8-8-0.8
			C252.3,91.6,252,91.8,251.8,92.1z"/>
		<path class="st2" d="M261.6,395.3v-43.6h-10.9v43.6l-6.5-8.7l-8.7,6.5l16.4,21.8c1.8,2.4,5.2,2.9,7.6,1.1c0.4-0.3,0.8-0.7,1.1-1.1
			l16.4-21.8l-8.7-6.5L261.6,395.3z"/>
		<rect x="250.7" y="166.3" class="st2" width="10.9" height="10.9"/>
		<rect x="250.7" y="329.9" class="st2" width="10.9" height="10.9"/>
		<path class="st2" d="M158,259v-10.9h-43.6l8.7-6.5l-6.5-8.7l-21.8,16.4c-2.4,1.8-2.9,5.2-1.1,7.6c0.3,0.4,0.7,0.8,1.1,1.1
			l21.8,16.4l6.5-8.7l-8.7-6.5L158,259L158,259z"/>
		<path class="st2" d="M417.6,249.2l-21.8-16.4l-6.5,8.7l8.7,6.5h-43.6V259h43.6l-8.7,6.5l6.5,8.7l21.8-16.4
			c2.4-1.8,2.9-5.2,1.1-7.6C418.3,249.8,418,249.5,417.6,249.2z"/>
		<rect x="168.9" y="248.1" class="st2" width="10.9" height="10.9"/>
		<rect x="332.5" y="248.1" class="st2" width="10.9" height="10.9"/>
		<path class="st2" d="M153.6,167.9l-1.5-10.8l30.8,30.8l7.7-7.7l-30.8-30.8l10.8,1.5l1.5-10.8l-27-3.9c-3-0.4-5.8,1.6-6.2,4.6
			c-0.1,0.5-0.1,1.1,0,1.6l3.9,27L153.6,167.9z"/>
		<path class="st2" d="M358.7,339.1l1.5,10.8l-30.8-30.8l-7.7,7.7l30.8,30.8l-10.8-1.5l-1.5,10.8l27,3.9c0.3,0,0.5,0.1,0.8,0.1
			c3,0,5.5-2.4,5.5-5.5c0-0.3,0-0.5-0.1-0.8l-3.9-27L358.7,339.1z"/>
		
			<rect x="192.8" y="190.2" transform="matrix(0.7071 -0.7071 0.7071 0.7071 -80.2986 197.5285)" class="st2" width="10.9" height="10.9"/>
		
			<rect x="308.5" y="305.9" transform="matrix(0.7071 -0.7071 0.7071 0.7071 -128.202 313.2212)" class="st2" width="10.9" height="10.9"/>
		<path class="st2" d="M182.9,319.1L152,349.9l1.5-10.8l-10.8-1.5l-3.9,27c-0.4,3,1.6,5.7,4.6,6.2c0.3,0,0.5,0.1,0.8,0.1
			c0.3,0,0.5,0,0.8-0.1l27-3.9l-1.5-10.8l-10.8,1.5l30.8-30.8L182.9,319.1z"/>
		<path class="st2" d="M329.4,188l30.8-30.8l-1.5,10.8l10.8,1.5l3.9-27c0.2-1.7-0.3-3.4-1.5-4.6c-1.2-1.2-2.9-1.8-4.6-1.5l-27,3.9
			l1.5,10.8l10.8-1.5l-30.8,30.8L329.4,188z"/>
		
			<rect x="192.9" y="305.9" transform="matrix(0.7071 -0.7071 0.7071 0.7071 -162.0729 231.4482)" class="st2" width="10.9" height="10.9"/>
		
			<rect x="308.5" y="190.2" transform="matrix(0.7071 -0.7071 0.7071 0.7071 -46.4057 279.3397)" class="st2" width="10.9" height="10.9"/>
	</g>
	<polygon class="st7" points="277.9,206.6 223,239.1 233.7,245.5 288.5,212.9 	"/>
</g>
</svg>
