<?xml version="1.0" encoding="utf-8"?>
<!-- Generator: Adobe Illustrator 24.0.0, SVG Export Plug-In . SVG Version: 6.00 Build 0)  -->
<svg version="1.1" id="Layer_1" xmlns="http://www.w3.org/2000/svg" xmlns:xlink="http://www.w3.org/1999/xlink" x="0px" y="0px"
	 viewBox="0 0 512 512" style="enable-background:new 0 0 512 512;" xml:space="preserve">
<style type="text/css">
	.st0{fill:#15DABD;}
	.st1{fill:#232E7A;}
	.st2{fill:#3342AE;}
	.st3{fill:#77D2FF;}
	.st4{fill:#4FBBFF;}
	.st5{fill:#0080F4;}
	.st6{fill:#1A9172;}
	.st7{fill:#27A3FF;}
	.st8{fill:#25AE88;}
	.st9{fill:#61B872;}
	.st10{fill:#4159CE;}
	.st11{fill:#2B3B89;}
	.st12{fill:#B8FFFD;}
	.st13{fill:#176EA3;}
	.st14{fill:#B5FCFF;}
	.st15{fill:#99E0E0;}
	.st16{fill:#3D3D3D;}
	.st17{fill:#AAE8DC;}
	.st18{fill:#F3F3F3;}
	.st19{fill:#E4E4E4;}
	.st20{fill:#293A8E;}
	.st21{fill:#2E4099;}
	.st22{fill:#55897F;}
	.st23{fill:#E5E5E5;}
</style>
<g>
	<circle class="st0" cx="256" cy="256" r="200"/>
	<g>
		<path class="st1" d="M242,117.5l10.4-0.8l6.8,84.2l-10.4,0.8L242,117.5z"/>
		<path class="st1" d="M141,159.8l6.4-8.2l76.9,59.9l-6.4,8.2L141,159.8z"/>
		<path class="st1" d="M140,136.4l93.4-33l3.5,9.8l-93.4,33L140,136.4z"/>
		<path class="st1" d="M253.6,116.3l4.4-9.4l118.4,55.7l-4.4,9.4L253.6,116.3z"/>
		<path class="st1" d="M147.2,155.2l0.9-10.4l216,19.6l-0.9,10.4L147.2,155.2z"/>
		<path class="st1" d="M377.9,182.3l10.4-1l6.1,62.8l-10.4,1L377.9,182.3z"/>
		<path class="st1" d="M298.3,247.9l0.8-10.4l83.1,6.7l-0.8,10.4L298.3,247.9z"/>
		<path class="st1" d="M361.8,342.9l23-82.4l10,2.8l-23,82.4L361.8,342.9z"/>
		<path class="st1" d="M263.9,371.5l92.7-24.8l2.7,10.1l-92.7,24.8L263.9,371.5z"/>
		<path class="st1" d="M166.6,355.7l209.1-104.1l4.6,9.3L171.3,365L166.6,355.7z"/>
		<path class="st1" d="M116.9,292.1l9.6-4.1l30.3,71.5l-9.6,4.1L116.9,292.1z"/>
		<path class="st1" d="M112.1,271.8l14.8-113.2l10.3,1.4l-14.8,113.2L112.1,271.8z"/>
		<path class="st1" d="M126.6,267.2l83.9-28.6l3.4,9.9L130,277.1L126.6,267.2z"/>
		<path class="st1" d="M162.4,378.5l0.8-10.4l82.7,6.1l-0.8,10.4L162.4,378.5z"/>
		<path class="st1" d="M253.8,369.1l114.1-183.2l8.9,5.5L262.6,374.6L253.8,369.1z"/>
		<path class="st1" d="M123.8,289.2l6.2-8.4l120.5,89.6l-6.2,8.4L123.8,289.2z"/>
		<path class="st1" d="M114.5,270.5L235,112.6l8.3,6.3L122.8,276.8L114.5,270.5z"/>
		<path class="st1" d="M280.9,278.8l7.1-7.6l71.5,67l-7.1,7.6L280.9,278.8z"/>
		<path class="st1" d="M153.8,356.5l66.9-91.2l8.4,6.2l-66.9,91.2L153.8,356.5z"/>
		<path class="st1" d="M284.5,215l77.2-40.1l4.7,9.4l-76.6,40.1L284.5,215z"/>
	</g>
	<circle class="st2" cx="252.1" cy="243.2" r="46.9"/>
	<path class="st1" d="M218.8,276.5c18.2,18.2,48,18.2,66.2,0c18.2-18.2,18.2-48,0-66.2L218.8,276.5z"/>
	<g>
		<circle class="st7" cx="246.9" cy="107.6" r="15.6"/>
		<circle class="st7" cx="116.6" cy="279.7" r="15.6"/>
	</g>
	<g>
		<circle class="st7" cx="252.1" cy="378.7" r="15.6"/>
		<circle class="st7" cx="377.3" cy="175.4" r="15.6"/>
		<circle class="st7" cx="137.4" cy="149.3" r="15.6"/>
	</g>
	<circle class="st7" cx="366.8" cy="352.6" r="15.6"/>
	<circle class="st7" cx="387.7" cy="253.6" r="15.6"/>
	<circle class="st7" cx="158.3" cy="368.3" r="15.6"/>
</g>
</svg>
