<svg id="Layer_1" data-name="Layer 1" xmlns="http://www.w3.org/2000/svg" viewBox="0 0 1581.05 393.37"><defs><style>.cls-1{fill:#2b345d;}</style></defs><title>tftechlogo</title><path class="cls-1" d="M175.26,95.42v12.44a2.8,2.8,0,0,1-3,3H133.21A1.28,1.28,0,0,0,132,112v184.8a2.8,2.8,0,0,1-3,3H114a2.81,2.81,0,0,1-3-3V112a1.28,1.28,0,0,0-1.18-1.19H73.08a2.8,2.8,0,0,1-3-3V95.42a2.8,2.8,0,0,1,3-3H172.3A2.8,2.8,0,0,1,175.26,95.42Z"/><path class="cls-1" d="M285.76,92.46h15.1a2.8,2.8,0,0,1,3,3V296.81a2.8,2.8,0,0,1-3,3h-15.1a2.81,2.81,0,0,1-3-3V206.48a1.26,1.26,0,0,0-1.18-1.18H228.9a1.27,1.27,0,0,0-1.19,1.18v90.33a2.8,2.8,0,0,1-3,3h-15.1a2.8,2.8,0,0,1-3-3V95.42a2.8,2.8,0,0,1,3-3h15.1a2.8,2.8,0,0,1,3,3v90a1.27,1.27,0,0,0,1.19,1.19h52.71a1.26,1.26,0,0,0,1.18-1.19v-90A2.81,2.81,0,0,1,285.76,92.46Z"/><path class="cls-1" d="M425.87,297.4l-30.51-92.1c-.29-.89-.59-.89-1.18-.89H368.71a1.27,1.27,0,0,0-1.18,1.18v91.22a2.8,2.8,0,0,1-3,3H349.46a2.8,2.8,0,0,1-3-3V95.13a2.79,2.79,0,0,1,3-3h48.87c28.72,0,48.27,22.8,48.27,56.86,0,26.35-11.84,45.6-30.8,52.71-.89.3-1.18.6-.89,1.48l32.28,93.29c.59,2.07-.3,3.26-2.36,3.26H429.42A3.84,3.84,0,0,1,425.87,297.4ZM367.53,111.71v74.63a1.27,1.27,0,0,0,1.18,1.19h26.65c18.07,0,30.21-15.11,30.21-38.21,0-23.69-12.14-38.79-30.21-38.79H368.71A1.27,1.27,0,0,0,367.53,111.71Z"/><path class="cls-1" d="M568.65,110.82H500a1.29,1.29,0,0,0-1.19,1.19v73.44a1.28,1.28,0,0,0,1.19,1.19h43.24a2.8,2.8,0,0,1,3,3v12.74a2.8,2.8,0,0,1-3,3H500a1.28,1.28,0,0,0-1.19,1.18v73.74a1.28,1.28,0,0,0,1.19,1.19h68.7a2.81,2.81,0,0,1,3,3v12.44a2.81,2.81,0,0,1-3,3H480.7a2.8,2.8,0,0,1-3-3V95.42a2.8,2.8,0,0,1,3-3h87.95a2.81,2.81,0,0,1,3,3v12.44A2.8,2.8,0,0,1,568.65,110.82Z"/><path class="cls-1" d="M695.73,110.82H627a1.28,1.28,0,0,0-1.19,1.19v73.44a1.27,1.27,0,0,0,1.19,1.19h43.24a2.8,2.8,0,0,1,3,3v12.74a2.8,2.8,0,0,1-3,3H627a1.27,1.27,0,0,0-1.19,1.18v73.74a1.27,1.27,0,0,0,1.19,1.19h68.7a2.81,2.81,0,0,1,3,3v12.44a2.81,2.81,0,0,1-3,3h-88a2.81,2.81,0,0,1-3-3V95.42a2.81,2.81,0,0,1,3-3h88a2.81,2.81,0,0,1,3,3v12.44A2.8,2.8,0,0,1,695.73,110.82Z"/><path class="cls-1" d="M822.22,110.82H754.11a1.29,1.29,0,0,0-1.19,1.19v73.44a1.28,1.28,0,0,0,1.19,1.19h42.94a2.8,2.8,0,0,1,3,3v12.74a2.8,2.8,0,0,1-3,3H754.11a1.28,1.28,0,0,0-1.19,1.18v90.33a2.79,2.79,0,0,1-2.95,3H734.86a2.8,2.8,0,0,1-3-3V95.42a2.8,2.8,0,0,1,3-3h87.36a2.81,2.81,0,0,1,3,3v12.44A2.8,2.8,0,0,1,822.22,110.82Z"/><path class="cls-1" d="M846.54,250.31V141.92c0-31.1,20.73-51.83,50.94-51.83,30.5,0,51.53,20.73,51.53,51.83V250.31c0,31.1-21,51.83-51.53,51.83C867.27,302.14,846.54,281.41,846.54,250.31ZM928,251.5V141c0-19.25-12.44-32.58-30.5-32.58-17.77,0-29.91,13.33-29.91,32.58V251.5c0,18.95,12.14,32.28,29.91,32.28C915.54,283.78,928,270.45,928,251.5Z"/><path class="cls-1" d="M986.66,296.81V95.42a2.8,2.8,0,0,1,3-3h15.1a2.8,2.8,0,0,1,3,3v184.8a1.27,1.27,0,0,0,1.19,1.19h67.81a2.81,2.81,0,0,1,3,3v12.44a2.81,2.81,0,0,1-3,3H989.62A2.8,2.8,0,0,1,986.66,296.81Z"/><path class="cls-1" d="M1104,296.81V95.42a2.81,2.81,0,0,1,3-3h45.6c30.51,0,50.06,21.32,50.06,55.09v97.14c0,33.75-19.55,55.08-50.06,55.08h-45.6A2.81,2.81,0,0,1,1104,296.81Zm22.22-15.4,26.06-.3c17.47,0,28.72-14.21,29-37.31V148.44c0-23.1-11-37.62-29-37.62h-26.06A1.28,1.28,0,0,0,1125,112V280.22A1.27,1.27,0,0,0,1126.18,281.41Z"/><path class="cls-1" d="M1218.46,288.5c0-6.07,5.11-10.86,10.39-10.86a10.91,10.91,0,0,1,10.53,10.86c0,6.23-4.47,11.18-10.53,11.18S1218.46,294.73,1218.46,288.5Z"/><path class="cls-1" d="M1316.91,189.52v10a1.51,1.51,0,0,1-1.6,1.6H1294.4a.69.69,0,0,0-.64.64v96.27a1.51,1.51,0,0,1-1.6,1.6H1280a1.51,1.51,0,0,1-1.6-1.6V201.81a.69.69,0,0,0-.63-.64H1258a1.51,1.51,0,0,1-1.6-1.6v-10a1.51,1.51,0,0,1,1.6-1.6h57.31A1.51,1.51,0,0,1,1316.91,189.52Z"/><path class="cls-1" d="M1383.5,201.17h-35.92a.68.68,0,0,0-.63.64v34.64a.68.68,0,0,0,.63.64h22a1.51,1.51,0,0,1,1.59,1.6v10.05a1.51,1.51,0,0,1-1.59,1.6h-22a.68.68,0,0,0-.63.64v34.81a.68.68,0,0,0,.63.64h35.92a1.5,1.5,0,0,1,1.6,1.59v10.06a1.51,1.51,0,0,1-1.6,1.6h-50.28a1.51,1.51,0,0,1-1.6-1.6V189.52a1.51,1.51,0,0,1,1.6-1.6h50.28a1.51,1.51,0,0,1,1.6,1.6v10A1.51,1.51,0,0,1,1383.5,201.17Z"/><path class="cls-1" d="M1398.37,272.06V215.38c0-17.56,11.49-28.74,28.74-28.74,17.4,0,28.9,11.18,28.9,28.74v2.55a1.51,1.51,0,0,1-1.6,1.6l-12.14.64a1.51,1.51,0,0,1-1.59-1.6v-4.15c0-8.78-5.43-14.53-13.57-14.53s-13.42,5.75-13.42,14.53v58.75c0,8.63,5.28,14.53,13.42,14.53s13.57-5.9,13.57-14.53V269a1.5,1.5,0,0,1,1.59-1.59l12.14.63a1.51,1.51,0,0,1,1.6,1.6v2.4c0,17.56-11.5,28.9-28.9,28.9C1409.86,301,1398.37,289.62,1398.37,272.06Z"/><path class="cls-1" d="M1515.1,187.92h12.13a1.51,1.51,0,0,1,1.6,1.6V298.08a1.51,1.51,0,0,1-1.6,1.6H1515.1a1.51,1.51,0,0,1-1.6-1.6V251a.69.69,0,0,0-.64-.64h-24.1a.69.69,0,0,0-.64.64v47.1a1.51,1.51,0,0,1-1.6,1.6h-12.13a1.51,1.51,0,0,1-1.6-1.6V189.52a1.51,1.51,0,0,1,1.6-1.6h12.13a1.51,1.51,0,0,1,1.6,1.6v46.93a.69.69,0,0,0,.64.64h24.1a.69.69,0,0,0,.64-.64V189.52A1.51,1.51,0,0,1,1515.1,187.92Z"/></svg>