<?xml version="1.0" encoding="utf-8"?>
<!-- Generator: Adobe Illustrator 24.0.0, SVG Export Plug-In . SVG Version: 6.00 Build 0)  -->
<svg version="1.1" id="Layer_1" xmlns="http://www.w3.org/2000/svg" xmlns:xlink="http://www.w3.org/1999/xlink" x="0px" y="0px"
	 viewBox="0 0 512 512" style="enable-background:new 0 0 512 512;" xml:space="preserve">
<style type="text/css">
	.st0{fill:#15DABD;}
	.st1{fill:#232E7A;}
	.st2{fill:#3342AE;}
	.st3{fill:#77D2FF;}
	.st4{fill:#4FBBFF;}
	.st5{fill:#0080F4;}
	.st6{fill:#1A9172;}
	.st7{fill:#27A3FF;}
	.st8{fill:#25AE88;}
	.st9{fill:#61B872;}
	.st10{fill:#4159CE;}
	.st11{fill:#2B3B89;}
	.st12{fill:#B8FFFD;}
	.st13{fill:#176EA3;}
	.st14{fill:#B5FCFF;}
	.st15{fill:#99E0E0;}
	.st16{fill:#3D3D3D;}
	.st17{fill:#AAE8DC;}
	.st18{fill:#F3F3F3;}
	.st19{fill:#E4E4E4;}
	.st20{fill:#293A8E;}
	.st21{fill:#2E4099;}
	.st22{fill:#55897F;}
	.st23{fill:#E5E5E5;}
</style>
<g>
	<circle class="st0" cx="256" cy="256" r="200"/>
	<g>
		<path class="st1" d="M233,282.2v-1.6v-1.6v-37.5v-1.6h0.1c-0.1,0.5-0.1,1.1-0.1,1.6c0-10.6,16.8-19.8,41.4-24.4h-130
			c-8.7,0-15.7,7-15.7,15.7v51.2c0,8.7,7,15.7,15.7,15.7H233V282.2z"/>
	</g>
	<g>
		<path class="st2" d="M233.2,360.3H233v-39.1v-1.6V318v-18.5h-88.6c-8.7,0-15.7,7-15.7,15.7v51.2c0,8.7,7,15.7,15.7,15.7h124.7
			C248.7,377.4,234.7,369.5,233.2,360.3z"/>
	</g>
	<path class="st2" d="M365,217H144.5c-8.7,0-15.7-7-15.7-15.7v-51.2c0-8.7,7-15.7,15.7-15.7H365c8.7,0,15.7,7,15.7,15.7v51.2
		C380.7,210,373.7,217,365,217z"/>
	<circle class="st3" cx="170.1" cy="175.8" r="15.2"/>
	<circle class="st0" cx="341.6" cy="169.2" r="4.3"/>
	<circle class="st0" cx="324.2" cy="169.2" r="4.3"/>
	<circle class="st0" cx="350.3" cy="182.3" r="4.3"/>
	<circle class="st0" cx="332.9" cy="182.3" r="4.3"/>
	<circle class="st0" cx="306.9" cy="169.2" r="4.3"/>
	<circle class="st0" cx="315.5" cy="182.3" r="4.3"/>
	<circle class="st0" cx="289.5" cy="169.2" r="4.3"/>
	<circle class="st0" cx="298.2" cy="182.3" r="4.3"/>
	<circle class="st0" cx="272.1" cy="169.2" r="4.3"/>
	<circle class="st0" cx="280.8" cy="182.3" r="4.3"/>
	<circle class="st4" cx="170.1" cy="258.3" r="15.2"/>
	<circle class="st3" cx="170.1" cy="340.8" r="15.2"/>
	<g>
		<path class="st5" d="M311.2,341.9c-43.2,0-78.2-12.4-78.2-27.7v46.1h0.1c2.4,14.5,36.4,26.1,78,26.1s75.6-11.5,78-26.1h0.1v-46.1
			C389.4,329.5,354.4,341.9,311.2,341.9z"/>
		<path class="st6" d="M233,312.6v1.6c0-0.5,0.1-1.1,0.1-1.6H233z"/>
		<path class="st6" d="M389.2,312.6c0.1,0.5,0.1,1.1,0.1,1.6v-1.6H389.2z"/>
	</g>
	<g>
		<path class="st7" d="M311.2,295.2c-43.2,0-78.2-12.4-78.2-27.7v48.3h0.1c2.4,14.5,36.4,26.1,78,26.1s75.6-11.5,78-26.1h0.1v-48.3
			C389.4,282.8,354.4,295.2,311.2,295.2z"/>
		<path class="st8" d="M233,265.9v1.6c0-0.5,0.1-1.1,0.1-1.6H233z"/>
		<path class="st8" d="M389.2,265.9c0.1,0.5,0.1,1.1,0.1,1.6v-1.6H389.2z"/>
	</g>
	<ellipse class="st3" cx="311.2" cy="223" rx="78.2" ry="27.7"/>
	<g>
		<path class="st4" d="M311.2,250.7c-43.2,0-78.2-12.4-78.2-27.7v46.1h0.1c2.4,14.5,36.4,26.1,78,26.1s75.6-11.5,78-26.1h0.1V223
			C389.4,238.3,354.4,250.7,311.2,250.7z"/>
		<path class="st9" d="M233,221.4v1.6c0-0.5,0.1-1.1,0.1-1.6H233z"/>
		<path class="st9" d="M389.2,221.4c0.1,0.5,0.1,1.1,0.1,1.6v-1.6H389.2z"/>
	</g>
</g>
</svg>
