<?xml version="1.0" encoding="utf-8"?>
<!-- Generator: Adobe Illustrator 24.0.0, SVG Export Plug-In . SVG Version: 6.00 Build 0)  -->
<svg version="1.1" id="Layer_1" xmlns="http://www.w3.org/2000/svg" xmlns:xlink="http://www.w3.org/1999/xlink" x="0px" y="0px"
	 viewBox="0 0 512 512" style="enable-background:new 0 0 512 512;" xml:space="preserve">
<style type="text/css">
	.st0{fill:#15DABD;}
	.st1{fill:#232E7A;}
	.st2{fill:#3342AE;}
	.st3{fill:#77D2FF;}
	.st4{fill:#4FBBFF;}
	.st5{fill:#0080F4;}
	.st6{fill:#1A9172;}
	.st7{fill:#27A3FF;}
	.st8{fill:#25AE88;}
	.st9{fill:#61B872;}
	.st10{fill:#4159CE;}
	.st11{fill:#2B3B89;}
	.st12{fill:#B8FFFD;}
	.st13{fill:#176EA3;}
	.st14{fill:#B5FCFF;}
	.st15{fill:#99E0E0;}
	.st16{fill:#3D3D3D;}
	.st17{fill:#AAE8DC;}
	.st18{fill:#F3F3F3;}
	.st19{fill:#E4E4E4;}
	.st20{fill:#293A8E;}
	.st21{fill:#2E4099;}
	.st22{fill:#55897F;}
	.st23{fill:#E5E5E5;}
</style>
<g>
	<circle class="st0" cx="256" cy="256" r="200"/>
	<polygon class="st2" points="220,305.5 220,386.5 238,346 238,269.5 	"/>
	<polygon class="st10" points="238,269.5 179.5,269.5 157,269.5 139,305.5 220,305.5 	"/>
	<rect x="139" y="305.5" class="st1" width="81" height="81"/>
	<polygon class="st10" points="373,269.5 314.5,269.5 292,269.5 274,305.5 355,305.5 	"/>
	<polygon class="st2" points="355,305.5 355,386.5 373,346 373,269.5 	"/>
	<polygon class="st1" points="274,305.5 274,346 274,386.5 355,386.5 355,305.5 	"/>
	<polygon class="st2" points="220,161.5 220,242.5 238,202 238,125.5 	"/>
	<polygon class="st10" points="238,125.5 157,125.5 139,161.5 220,161.5 	"/>
	<polygon class="st1" points="139,161.5 139,242.5 179.5,242.5 220,242.5 220,161.5 	"/>
	<polygon class="st2" points="355,161.5 355,242.5 373,202 373,125.5 	"/>
	<polygon class="st10" points="373,125.5 292,125.5 274,161.5 355,161.5 	"/>
	<polygon class="st1" points="274,161.5 274,202 274,242.5 314.5,242.5 355,242.5 355,161.5 	"/>
	<g>
		<rect x="175" y="242.5" class="st7" width="9" height="108"/>
		<rect x="310" y="197.5" class="st7" width="9" height="108"/>
		<rect x="175" y="197.5" class="st7" width="99" height="9"/>
		<rect x="220" y="341.5" class="st7" width="99" height="9"/>
	</g>
</g>
</svg>
