<?xml version="1.0" encoding="utf-8"?>
<!-- Generator: Adobe Illustrator 23.0.1, SVG Export Plug-In . SVG Version: 6.00 Build 0)  -->
<svg version="1.1" id="Layer_1" xmlns="http://www.w3.org/2000/svg" xmlns:xlink="http://www.w3.org/1999/xlink" x="0px" y="0px"
	 viewBox="0 0 160 90" style="enable-background:new 0 0 160 90;" xml:space="preserve">
<style type="text/css">
	.st0{fill:#111112;}
	.st1{clip-path:url(#SVGID_2_);fill:#111112;}
	.st2{clip-path:url(#SVGID_4_);fill:#111112;}
	.st3{clip-path:url(#SVGID_6_);fill:#111112;}
	.st4{clip-path:url(#SVGID_8_);fill:#111112;}
	.st5{clip-path:url(#SVGID_10_);fill:#111112;}
	.st6{clip-path:url(#SVGID_12_);fill:#4C91CF;}
	.st7{clip-path:url(#SVGID_14_);fill:#5AA672;}
	.st8{clip-path:url(#SVGID_16_);fill:#4C91CF;}
	.st9{clip-path:url(#SVGID_18_);fill:#5AA672;}
	.st10{clip-path:url(#SVGID_20_);fill:#111112;}
	.st11{clip-path:url(#SVGID_22_);fill:#111112;}
	.st12{clip-path:url(#SVGID_24_);fill:#111112;}
	.st13{clip-path:url(#SVGID_26_);fill:#111112;}
	.st14{clip-path:url(#SVGID_28_);fill:#111112;}
	.st15{clip-path:url(#SVGID_30_);fill:#111112;}
	.st16{clip-path:url(#SVGID_32_);fill:#111112;}
	.st17{clip-path:url(#SVGID_34_);fill:#111112;}
	.st18{clip-path:url(#SVGID_36_);fill:#111112;}
	.st19{clip-path:url(#SVGID_38_);fill:#111112;}
	.st20{clip-path:url(#SVGID_40_);fill:#111112;}
	.st21{clip-path:url(#SVGID_42_);fill:#111112;}
	.st22{clip-path:url(#SVGID_44_);fill:#111112;}
	.st23{clip-path:url(#SVGID_46_);fill:#111112;}
	.st24{clip-path:url(#SVGID_48_);fill:#111112;}
	.st25{clip-path:url(#SVGID_50_);fill:#111112;}
	.st26{clip-path:url(#SVGID_52_);fill:#111112;}
</style>
<g>
	<rect x="74.3" y="41.8" class="st0" width="11" height="2.5"/>
	<rect x="58.7" y="41.8" class="st0" width="11" height="2.5"/>
	<polygon class="st0" points="1.5,24.7 1.5,27.4 7.2,27.4 7.2,44.2 10.4,44.2 10.4,27.4 16.2,27.4 16.2,24.7 	"/>
	<polygon class="st0" points="35.1,44.2 31.9,44.2 31.9,35.4 22.9,35.4 22.9,44.2 19.7,44.2 19.7,24.7 22.9,24.7 22.9,32.7 
		31.8,32.7 31.8,24.7 35.1,24.7 35.1,44.2 	"/>
	<g>
		<g>
			<defs>
				<rect id="SVGID_1_" x="1.5" y="24.4" width="157.1" height="41.2"/>
			</defs>
			<clipPath id="SVGID_2_">
				<use xlink:href="#SVGID_1_"  style="overflow:visible;"/>
			</clipPath>
			<path class="st1" d="M44,36.4v7.8h-3.2V24.7h5.5c2.5,0,4.4,0.5,5.6,1.4c1.2,0.9,1.8,2.4,1.8,4.3c0,2.4-1.3,4.1-3.8,5.2l5.5,8.6
				h-3.6l-4.6-7.8L44,36.4L44,36.4L44,36.4z M44,33.8h2.2c1.5,0,2.6-0.3,3.2-0.8c0.7-0.6,1-1.4,1-2.5c0-1.1-0.3-1.9-1.1-2.4
				c-0.7-0.5-1.8-0.7-3.2-0.7H44V33.8"/>
		</g>
		<g>
			<defs>
				<rect id="SVGID_3_" x="1.5" y="24.4" width="157.1" height="41.2"/>
			</defs>
			<clipPath id="SVGID_4_">
				<use xlink:href="#SVGID_3_"  style="overflow:visible;"/>
			</clipPath>
			<polygon class="st2" points="92.9,44.2 89.7,44.2 89.7,24.7 100.7,24.7 100.7,27.4 92.9,27.4 92.9,33.5 100.3,33.5 100.3,36.2 
				92.9,36.2 			"/>
		</g>
		<g>
			<defs>
				<rect id="SVGID_5_" x="1.5" y="24.4" width="157.1" height="41.2"/>
			</defs>
			<clipPath id="SVGID_6_">
				<use xlink:href="#SVGID_5_"  style="overflow:visible;"/>
			</clipPath>
			<path class="st3" d="M122.2,34.4c0,3.2-0.8,5.6-2.4,7.4c-1.6,1.8-3.8,2.6-6.7,2.6c-3,0-5.2-0.9-6.8-2.6c-1.6-1.8-2.4-4.2-2.4-7.4
				s0.8-5.7,2.4-7.4c1.6-1.7,3.8-2.6,6.8-2.6c2.9,0,5.2,0.9,6.7,2.6C121.4,28.7,122.2,31.2,122.2,34.4 M107.3,34.4
				c0,2.4,0.5,4.2,1.4,5.5c1,1.3,2.4,1.9,4.3,1.9c1.9,0,3.3-0.6,4.3-1.8c1-1.2,1.4-3,1.4-5.5c0-2.4-0.5-4.2-1.4-5.4
				c-1-1.3-2.4-1.9-4.3-1.9c-1.9,0-3.4,0.6-4.3,1.9C107.8,30.2,107.3,32,107.3,34.4"/>
		</g>
		<g>
			<defs>
				<rect id="SVGID_7_" x="1.5" y="24.4" width="157.1" height="41.2"/>
			</defs>
			<clipPath id="SVGID_8_">
				<use xlink:href="#SVGID_7_"  style="overflow:visible;"/>
			</clipPath>
			<polygon class="st4" points="126.9,44.2 126.9,24.7 130.1,24.7 130.1,41.5 138.4,41.5 138.4,44.2 126.9,44.2 			"/>
		</g>
		<g>
			<defs>
				<rect id="SVGID_9_" x="1.5" y="24.4" width="157.1" height="41.2"/>
			</defs>
			<clipPath id="SVGID_10_">
				<use xlink:href="#SVGID_9_"  style="overflow:visible;"/>
			</clipPath>
			<path class="st5" d="M158.2,34.2c0,3.2-0.9,5.7-2.7,7.4c-1.8,1.7-4.3,2.6-7.7,2.6h-5.5V24.7h6c3.1,0,5.5,0.8,7.2,2.5
				C157.3,28.9,158.2,31.2,158.2,34.2 M154.8,34.4c0-4.7-2.2-7-6.5-7h-2.8v14.2h2.3C152.5,41.5,154.8,39.1,154.8,34.4"/>
		</g>
		<g>
			<defs>
				<rect id="SVGID_11_" x="1.5" y="24.4" width="157.1" height="41.2"/>
			</defs>
			<clipPath id="SVGID_12_">
				<use xlink:href="#SVGID_11_"  style="overflow:visible;"/>
			</clipPath>
			<rect x="74.3" y="24.8" class="st6" width="11" height="2.5"/>
		</g>
		<g>
			<defs>
				<rect id="SVGID_13_" x="1.5" y="24.4" width="157.1" height="41.2"/>
			</defs>
			<clipPath id="SVGID_14_">
				<use xlink:href="#SVGID_13_"  style="overflow:visible;"/>
			</clipPath>
			<rect x="74.3" y="33" class="st7" width="10.5" height="2.5"/>
		</g>
		<g>
			<defs>
				<rect id="SVGID_15_" x="1.5" y="24.4" width="157.1" height="41.2"/>
			</defs>
			<clipPath id="SVGID_16_">
				<use xlink:href="#SVGID_15_"  style="overflow:visible;"/>
			</clipPath>
			<rect x="58.7" y="24.8" class="st8" width="11" height="2.5"/>
		</g>
		<g>
			<defs>
				<rect id="SVGID_17_" x="1.5" y="24.4" width="157.1" height="41.2"/>
			</defs>
			<clipPath id="SVGID_18_">
				<use xlink:href="#SVGID_17_"  style="overflow:visible;"/>
			</clipPath>
			<rect x="58.7" y="33" class="st9" width="10.5" height="2.5"/>
		</g>
		<g>
			<defs>
				<rect id="SVGID_19_" x="1.5" y="24.4" width="157.1" height="41.2"/>
			</defs>
			<clipPath id="SVGID_20_">
				<use xlink:href="#SVGID_19_"  style="overflow:visible;"/>
			</clipPath>
			<path class="st10" d="M8.5,56.1c0.6,0.4,0.9,1.1,1.1,1.9H8.4c-0.1-0.5-0.3-0.9-0.7-1.1c-0.4-0.3-0.8-0.4-1.4-0.4
				c-0.4,0-0.8,0.1-1.1,0.3c-0.3,0.2-0.6,0.4-0.8,0.8c-0.2,0.4-0.3,0.8-0.3,1.4s0.1,1,0.3,1.4c0.2,0.4,0.4,0.6,0.8,0.8
				c0.3,0.2,0.7,0.3,1.1,0.3c0.6,0,1-0.1,1.4-0.4c0.4-0.3,0.6-0.7,0.7-1.1h1.2c-0.1,0.8-0.5,1.4-1.1,1.9s-1.3,0.7-2.2,0.7
				c-0.6,0-1.2-0.1-1.7-0.4s-0.9-0.7-1.2-1.2C3.1,60.2,3,59.6,3,58.9s0.1-1.3,0.4-1.9c0.3-0.5,0.7-0.9,1.2-1.2s1.1-0.4,1.7-0.4
				C7.2,55.4,7.9,55.6,8.5,56.1"/>
		</g>
		<g>
			<defs>
				<rect id="SVGID_21_" x="1.5" y="24.4" width="157.1" height="41.2"/>
			</defs>
			<clipPath id="SVGID_22_">
				<use xlink:href="#SVGID_21_"  style="overflow:visible;"/>
			</clipPath>
			<path class="st11" d="M17.6,55.8c0.5,0.3,0.9,0.7,1.2,1.2c0.3,0.5,0.4,1.1,0.4,1.9c0,0.7-0.2,1.3-0.4,1.8
				c-0.3,0.5-0.7,0.9-1.2,1.2c-0.5,0.3-1.1,0.4-1.7,0.4s-1.2-0.1-1.7-0.4c-0.5-0.3-0.9-0.7-1.2-1.2c-0.3-0.5-0.4-1.1-0.4-1.8
				c0-0.7,0.2-1.3,0.4-1.9c0.3-0.5,0.7-0.9,1.2-1.2c0.5-0.3,1.1-0.4,1.7-0.4C16.5,55.4,17.1,55.5,17.6,55.8 M14.7,56.7
				c-0.3,0.2-0.6,0.4-0.8,0.8c-0.2,0.4-0.3,0.8-0.3,1.4s0.1,1,0.3,1.4c0.2,0.4,0.5,0.6,0.8,0.8c0.3,0.2,0.7,0.3,1.1,0.3
				c0.4,0,0.8-0.1,1.1-0.3c0.3-0.2,0.6-0.4,0.8-0.8c0.2-0.4,0.3-0.8,0.3-1.4c0-0.6-0.1-1-0.3-1.4c-0.2-0.4-0.5-0.6-0.8-0.8
				c-0.3-0.2-0.7-0.3-1.1-0.3S15.1,56.5,14.7,56.7"/>
		</g>
		<g>
			<defs>
				<rect id="SVGID_23_" x="1.5" y="24.4" width="157.1" height="41.2"/>
			</defs>
			<clipPath id="SVGID_24_">
				<use xlink:href="#SVGID_23_"  style="overflow:visible;"/>
			</clipPath>
			<path class="st12" d="M28,56.1c0.5,0.5,0.7,1.2,0.7,2.2v3.9h-1.1v-3.8c0-0.7-0.2-1.2-0.5-1.6c-0.3-0.4-0.8-0.6-1.4-0.6
				c-0.6,0-1.1,0.2-1.5,0.6c-0.4,0.4-0.6,1-0.6,1.7v3.6h-1.1v-6.8h1.1v1.6c0.2-0.6,0.5-1,0.9-1.3c0.4-0.3,0.9-0.4,1.5-0.4
				C26.8,55.4,27.5,55.6,28,56.1"/>
		</g>
		<g>
			<defs>
				<rect id="SVGID_25_" x="1.5" y="24.4" width="157.1" height="41.2"/>
			</defs>
			<clipPath id="SVGID_26_">
				<use xlink:href="#SVGID_25_"  style="overflow:visible;"/>
			</clipPath>
			<path class="st13" d="M37.7,56.1c0.5,0.5,0.7,1.2,0.7,2.2v3.9h-1.1v-3.8c0-0.7-0.2-1.2-0.5-1.6c-0.3-0.4-0.8-0.6-1.4-0.6
				c-0.6,0-1.1,0.2-1.5,0.6c-0.4,0.4-0.6,1-0.6,1.7v3.6h-1.1v-6.8h1.1v1.6c0.2-0.6,0.5-1,0.9-1.3c0.4-0.3,0.9-0.4,1.5-0.4
				C36.6,55.4,37.2,55.6,37.7,56.1"/>
		</g>
		<g>
			<defs>
				<rect id="SVGID_27_" x="1.5" y="24.4" width="157.1" height="41.2"/>
			</defs>
			<clipPath id="SVGID_28_">
				<use xlink:href="#SVGID_27_"  style="overflow:visible;"/>
			</clipPath>
			<path class="st14" d="M48.2,59.1h-5.4c0,0.8,0.2,1.3,0.7,1.7c0.4,0.4,0.9,0.6,1.5,0.6c0.6,0,1-0.1,1.4-0.4
				c0.4-0.3,0.6-0.6,0.7-1.1h1.2c-0.1,0.5-0.3,0.9-0.6,1.3c-0.3,0.4-0.6,0.7-1.1,0.9c-0.4,0.2-1,0.3-1.5,0.3c-0.6,0-1.2-0.1-1.7-0.4
				c-0.5-0.3-0.9-0.7-1.2-1.2c-0.3-0.5-0.4-1.1-0.4-1.8s0.1-1.3,0.4-1.9c0.3-0.5,0.7-0.9,1.2-1.2c0.5-0.3,1.1-0.4,1.7-0.4
				c0.7,0,1.2,0.1,1.7,0.4c0.5,0.3,0.9,0.6,1.1,1.1c0.3,0.5,0.4,1,0.4,1.6C48.2,58.7,48.2,58.9,48.2,59.1 M46.8,57.3
				c-0.2-0.3-0.4-0.6-0.8-0.8c-0.3-0.2-0.7-0.2-1.1-0.2c-0.6,0-1.1,0.2-1.6,0.6c-0.4,0.4-0.6,0.9-0.7,1.7h4.3
				C47.1,58.1,47,57.7,46.8,57.3"/>
		</g>
		<g>
			<defs>
				<rect id="SVGID_29_" x="1.5" y="24.4" width="157.1" height="41.2"/>
			</defs>
			<clipPath id="SVGID_30_">
				<use xlink:href="#SVGID_29_"  style="overflow:visible;"/>
			</clipPath>
			<path class="st15" d="M56.6,56.1c0.6,0.4,0.9,1.1,1.1,1.9h-1.2c-0.1-0.5-0.3-0.9-0.7-1.1c-0.4-0.3-0.8-0.4-1.4-0.4
				c-0.4,0-0.8,0.1-1.1,0.3c-0.3,0.2-0.6,0.4-0.8,0.8c-0.2,0.4-0.3,0.8-0.3,1.4s0.1,1,0.3,1.4c0.2,0.4,0.4,0.6,0.8,0.8
				c0.3,0.2,0.7,0.3,1.1,0.3c0.6,0,1-0.1,1.4-0.4c0.4-0.3,0.6-0.7,0.7-1.1h1.2c-0.1,0.8-0.5,1.4-1.1,1.9s-1.3,0.7-2.2,0.7
				c-0.6,0-1.2-0.1-1.7-0.4s-0.9-0.7-1.2-1.2c-0.3-0.5-0.4-1.1-0.4-1.8s0.1-1.3,0.4-1.9c0.3-0.5,0.7-0.9,1.2-1.2s1.1-0.4,1.7-0.4
				C55.4,55.4,56.1,55.6,56.6,56.1"/>
		</g>
		<g>
			<defs>
				<rect id="SVGID_31_" x="1.5" y="24.4" width="157.1" height="41.2"/>
			</defs>
			<clipPath id="SVGID_32_">
				<use xlink:href="#SVGID_31_"  style="overflow:visible;"/>
			</clipPath>
			<path class="st16" d="M64.1,61.3v1h-0.8c-0.7,0-1.2-0.2-1.6-0.5c-0.3-0.3-0.5-0.9-0.5-1.7v-3.7h-1v-1h1v-1.7h1.1v1.7h1.7v1h-1.7
				v3.7c0,0.4,0.1,0.7,0.2,0.9c0.2,0.2,0.4,0.2,0.8,0.2L64.1,61.3L64.1,61.3z"/>
		</g>
		<g>
			<defs>
				<rect id="SVGID_33_" x="1.5" y="24.4" width="157.1" height="41.2"/>
			</defs>
			<clipPath id="SVGID_34_">
				<use xlink:href="#SVGID_33_"  style="overflow:visible;"/>
			</clipPath>
			<path class="st17" d="M67.1,53c0.1-0.1,0.3-0.2,0.6-0.2s0.4,0.1,0.6,0.2c0.1,0.1,0.2,0.3,0.2,0.5s-0.1,0.4-0.2,0.5
				c-0.1,0.1-0.3,0.2-0.6,0.2c-0.2,0-0.4-0.1-0.6-0.2c-0.1-0.1-0.2-0.3-0.2-0.5C66.9,53.3,67,53.1,67.1,53 M68.2,62.3h-1.1v-6.8h1.1
				V62.3z"/>
		</g>
		<g>
			<defs>
				<rect id="SVGID_35_" x="1.5" y="24.4" width="157.1" height="41.2"/>
			</defs>
			<clipPath id="SVGID_36_">
				<use xlink:href="#SVGID_35_"  style="overflow:visible;"/>
			</clipPath>
			<path class="st18" d="M77.3,56.1c0.5,0.5,0.7,1.2,0.7,2.2v3.9h-1.1v-3.8c0-0.7-0.2-1.2-0.5-1.6c-0.3-0.4-0.8-0.6-1.4-0.6
				s-1.1,0.2-1.5,0.6c-0.4,0.4-0.6,1-0.6,1.7v3.6h-1.1v-6.8H73v1.6c0.2-0.6,0.5-1,0.9-1.3c0.4-0.3,0.9-0.4,1.5-0.4
				C76.2,55.4,76.8,55.6,77.3,56.1"/>
		</g>
		<g>
			<defs>
				<rect id="SVGID_37_" x="1.5" y="24.4" width="157.1" height="41.2"/>
			</defs>
			<clipPath id="SVGID_38_">
				<use xlink:href="#SVGID_37_"  style="overflow:visible;"/>
			</clipPath>
			<path class="st19" d="M86,55.9c0.4,0.3,0.8,0.8,0.9,1.3v-1.7h1.1v6.9c0,0.6-0.1,1.2-0.4,1.7c-0.3,0.5-0.6,0.9-1.1,1.1
				c-0.5,0.3-1,0.4-1.7,0.4c-0.9,0-1.7-0.2-2.2-0.7c-0.6-0.4-0.9-1.1-1.1-1.8h1.1c0.1,0.4,0.4,0.8,0.7,1.1c0.4,0.3,0.8,0.4,1.4,0.4
				c0.6,0,1.1-0.2,1.5-0.6c0.4-0.4,0.6-0.9,0.6-1.6v-1.8c-0.2,0.6-0.5,1-0.9,1.3c-0.4,0.3-1,0.5-1.7,0.5c-0.6,0-1.1-0.1-1.6-0.4
				c-0.5-0.3-0.8-0.7-1.1-1.2c-0.3-0.5-0.4-1.1-0.4-1.8c0-0.7,0.1-1.3,0.4-1.9s0.6-0.9,1.1-1.2s1-0.4,1.6-0.4
				C85,55.4,85.6,55.6,86,55.9 M83,57.1c-0.4,0.4-0.6,1.1-0.6,1.8s0.2,1.4,0.6,1.8c0.4,0.4,1,0.7,1.7,0.7c0.4,0,0.8-0.1,1.2-0.3
				c0.3-0.2,0.6-0.5,0.8-0.9c0.2-0.4,0.3-0.8,0.3-1.3c0-0.5-0.1-0.9-0.3-1.3c-0.2-0.4-0.5-0.7-0.8-0.9c-0.3-0.2-0.7-0.3-1.2-0.3
				C84,56.4,83.4,56.6,83,57.1"/>
		</g>
		<g>
			<defs>
				<rect id="SVGID_39_" x="1.5" y="24.4" width="157.1" height="41.2"/>
			</defs>
			<clipPath id="SVGID_40_">
				<use xlink:href="#SVGID_39_"  style="overflow:visible;"/>
			</clipPath>
			<path class="st20" d="M100.2,61.3v1h-0.8c-0.7,0-1.2-0.2-1.6-0.5c-0.3-0.3-0.5-0.9-0.5-1.7v-3.7h-1v-1h1v-1.7h1.1v1.7h1.7v1h-1.7
				v3.7c0,0.4,0.1,0.7,0.2,0.9c0.2,0.2,0.4,0.2,0.8,0.2L100.2,61.3L100.2,61.3z"/>
		</g>
		<g>
			<defs>
				<rect id="SVGID_41_" x="1.5" y="24.4" width="157.1" height="41.2"/>
			</defs>
			<clipPath id="SVGID_42_">
				<use xlink:href="#SVGID_41_"  style="overflow:visible;"/>
			</clipPath>
			<path class="st21" d="M108.7,56.1c0.5,0.5,0.7,1.2,0.7,2.2v3.9h-1.1v-3.8c0-0.7-0.2-1.2-0.5-1.6c-0.3-0.4-0.8-0.6-1.4-0.6
				s-1.1,0.2-1.5,0.6c-0.4,0.4-0.6,1-0.6,1.7v3.6h-1.1v-9.1h1.1v4c0.2-0.6,0.5-1,0.9-1.3c0.4-0.3,0.9-0.4,1.5-0.4
				C107.5,55.4,108.2,55.6,108.7,56.1"/>
		</g>
		<g>
			<defs>
				<rect id="SVGID_43_" x="1.5" y="24.4" width="157.1" height="41.2"/>
			</defs>
			<clipPath id="SVGID_44_">
				<use xlink:href="#SVGID_43_"  style="overflow:visible;"/>
			</clipPath>
			<path class="st22" d="M119.1,59.1h-5.4c0,0.8,0.2,1.3,0.7,1.7c0.4,0.4,0.9,0.6,1.5,0.6c0.6,0,1-0.1,1.4-0.4
				c0.4-0.3,0.6-0.6,0.7-1.1h1.2c-0.1,0.5-0.3,0.9-0.6,1.3c-0.3,0.4-0.6,0.7-1.1,0.9c-0.4,0.2-1,0.3-1.5,0.3c-0.6,0-1.2-0.1-1.7-0.4
				c-0.5-0.3-0.9-0.7-1.2-1.2c-0.3-0.5-0.4-1.1-0.4-1.8s0.1-1.3,0.4-1.9c0.3-0.5,0.7-0.9,1.2-1.2s1.1-0.4,1.7-0.4
				c0.7,0,1.2,0.1,1.7,0.4c0.5,0.3,0.9,0.6,1.1,1.1c0.3,0.5,0.4,1,0.4,1.6C119.1,58.7,119.1,58.9,119.1,59.1 M117.7,57.3
				c-0.2-0.3-0.4-0.6-0.8-0.8c-0.3-0.2-0.7-0.2-1.1-0.2c-0.6,0-1.1,0.2-1.6,0.6c-0.4,0.4-0.6,0.9-0.7,1.7h4.3
				C118,58.1,117.9,57.7,117.7,57.3"/>
		</g>
		<g>
			<defs>
				<rect id="SVGID_45_" x="1.5" y="24.4" width="157.1" height="41.2"/>
			</defs>
			<clipPath id="SVGID_46_">
				<use xlink:href="#SVGID_45_"  style="overflow:visible;"/>
			</clipPath>
			<path class="st23" d="M132.1,55.9c0.4,0.3,0.8,0.8,0.9,1.3v-4.1h1.1v9.1H133v-1.7c-0.2,0.6-0.5,1-0.9,1.3c-0.4,0.3-1,0.5-1.7,0.5
				c-0.6,0-1.1-0.1-1.6-0.4c-0.5-0.3-0.8-0.7-1.1-1.2c-0.3-0.5-0.4-1.1-0.4-1.8c0-0.7,0.1-1.3,0.4-1.9c0.3-0.5,0.6-0.9,1.1-1.2
				c0.5-0.3,1-0.4,1.6-0.4C131.1,55.4,131.6,55.6,132.1,55.9 M129.1,57.1c-0.4,0.4-0.6,1.1-0.6,1.8s0.2,1.4,0.6,1.8
				c0.4,0.4,1,0.7,1.7,0.7c0.4,0,0.8-0.1,1.2-0.3c0.3-0.2,0.6-0.5,0.8-0.9c0.2-0.4,0.3-0.8,0.3-1.3c0-0.5-0.1-0.9-0.3-1.3
				c-0.2-0.4-0.5-0.7-0.8-0.9c-0.3-0.2-0.7-0.3-1.2-0.3C130,56.4,129.5,56.6,129.1,57.1"/>
		</g>
		<g>
			<defs>
				<rect id="SVGID_47_" x="1.5" y="24.4" width="157.1" height="41.2"/>
			</defs>
			<clipPath id="SVGID_48_">
				<use xlink:href="#SVGID_47_"  style="overflow:visible;"/>
			</clipPath>
			<path class="st24" d="M142.6,55.8c0.5,0.3,0.9,0.7,1.2,1.2s0.4,1.1,0.4,1.9c0,0.7-0.2,1.3-0.4,1.8c-0.3,0.5-0.7,0.9-1.2,1.2
				c-0.5,0.3-1.1,0.4-1.7,0.4s-1.2-0.1-1.7-0.4c-0.5-0.3-0.9-0.7-1.2-1.2c-0.3-0.5-0.4-1.1-0.4-1.8c0-0.7,0.2-1.3,0.4-1.9
				c0.3-0.5,0.7-0.9,1.2-1.2c0.5-0.3,1.1-0.4,1.7-0.4C141.5,55.4,142.1,55.5,142.6,55.8 M139.7,56.7c-0.3,0.2-0.6,0.4-0.8,0.8
				c-0.2,0.4-0.3,0.8-0.3,1.4s0.1,1,0.3,1.4c0.2,0.4,0.5,0.6,0.8,0.8c0.3,0.2,0.7,0.3,1.1,0.3c0.4,0,0.8-0.1,1.1-0.3
				c0.3-0.2,0.6-0.4,0.8-0.8c0.2-0.4,0.3-0.8,0.3-1.4c0-0.6-0.1-1-0.3-1.4c-0.2-0.4-0.5-0.6-0.8-0.8c-0.3-0.2-0.7-0.3-1.1-0.3
				S140,56.5,139.7,56.7"/>
		</g>
		<g>
			<defs>
				<rect id="SVGID_49_" x="1.5" y="24.4" width="157.1" height="41.2"/>
			</defs>
			<clipPath id="SVGID_50_">
				<use xlink:href="#SVGID_49_"  style="overflow:visible;"/>
			</clipPath>
			<path class="st25" d="M150.5,61.3v1h-0.8c-0.7,0-1.2-0.2-1.6-0.5c-0.3-0.3-0.5-0.9-0.5-1.7v-3.7h-1v-1h1v-1.7h1.1v1.7h1.7v1h-1.7
				v3.7c0,0.4,0.1,0.7,0.2,0.9c0.2,0.2,0.4,0.2,0.8,0.2L150.5,61.3L150.5,61.3z"/>
		</g>
		<g>
			<defs>
				<rect id="SVGID_51_" x="1.5" y="24.4" width="157.1" height="41.2"/>
			</defs>
			<clipPath id="SVGID_52_">
				<use xlink:href="#SVGID_51_"  style="overflow:visible;"/>
			</clipPath>
			<path class="st26" d="M157.6,56c0.4,0.4,0.7,0.9,0.9,1.6h-1.1c-0.1-0.4-0.2-0.7-0.5-1s-0.7-0.4-1.1-0.4c-0.4,0-0.7,0.1-0.9,0.3
				s-0.3,0.4-0.3,0.8c0,0.2,0.1,0.4,0.2,0.6c0.2,0.2,0.3,0.3,0.6,0.3c0.2,0.1,0.5,0.2,0.9,0.2c0.5,0.1,0.9,0.2,1.2,0.4
				c0.3,0.1,0.6,0.3,0.8,0.6c0.2,0.3,0.3,0.6,0.3,1.1c0,0.6-0.2,1-0.6,1.3c-0.4,0.3-1,0.5-1.7,0.5c-0.8,0-1.5-0.2-2-0.6
				c-0.5-0.4-0.8-0.9-0.9-1.6h1.1c0,0.4,0.2,0.7,0.5,1c0.3,0.2,0.7,0.4,1.3,0.4c0.4,0,0.7-0.1,0.9-0.3c0.2-0.2,0.3-0.4,0.3-0.8
				c0-0.3-0.1-0.5-0.2-0.6c-0.2-0.2-0.3-0.3-0.6-0.4c-0.2-0.1-0.6-0.2-0.9-0.3c-0.5-0.1-0.9-0.2-1.2-0.3c-0.3-0.1-0.6-0.3-0.8-0.6
				c-0.2-0.2-0.3-0.6-0.3-1c0-0.6,0.2-1,0.6-1.4s1-0.5,1.7-0.5C156.5,55.4,157.1,55.6,157.6,56"/>
		</g>
	</g>
</g>
</svg>
