<?xml version="1.0" encoding="utf-8"?>
<!-- Generator: Adobe Illustrator 22.1.0, SVG Export Plug-In . SVG Version: 6.00 Build 0)  -->
<svg version="1.1" id="Layer_1" xmlns="http://www.w3.org/2000/svg" xmlns:xlink="http://www.w3.org/1999/xlink" x="0px" y="0px"
	 viewBox="0 0 910 239" style="enable-background:new 0 0 910 239;" xml:space="preserve">
<style type="text/css">
	.st0{fill:#111111;}
	.st1{clip-path:url(#SVGID_2_);fill:#111111;}
	.st2{clip-path:url(#SVGID_2_);fill:#4B91D0;}
	.st3{clip-path:url(#SVGID_2_);fill:#53C57A;}
</style>
<rect x="421.9" y="101.2" class="st0" width="64" height="14.4"/>
<rect x="331.5" y="101.2" class="st0" width="64" height="14.4"/>
<polygon class="st0" points="0,1.7 0,17.5 33.3,17.5 33.3,114.8 51.7,114.8 51.7,17.5 85.1,17.5 85.1,1.7 "/>
<polygon class="st0" points="194.7,114.8 176.1,114.8 176.1,63.9 124,63.9 124,114.8 105.5,114.8 105.5,1.8 123.9,1.8 123.9,48 
	176,48 176,1.8 194.6,1.8 194.6,114.8 "/>
<g>
	<defs>
		<rect id="SVGID_1_" width="910" height="239"/>
	</defs>
	<clipPath id="SVGID_2_">
		<use xlink:href="#SVGID_1_"  style="overflow:visible;"/>
	</clipPath>
	<path class="st1" d="M246.2,69.6v45.2h-18.4V1.8h31.8c14.7,0,25.5,2.8,32.5,8.3c7.1,5.5,10.5,13.7,10.5,24.7c0,14-7.4,24-22,30.1
		l31.8,50.1h-20.8l-26.9-45.2h-18.5V69.6z M246.2,54.4H259c8.6,0,14.9-1.7,18.6-4.8c3.9-3.2,5.8-8,5.8-14.2c0-6.4-2-11-6.2-13.9
		c-4.2-2.8-10.5-4.2-18.8-4.2h-12.2V54.4"/>
	<polygon class="st1" points="529.6,114.8 511.3,114.8 511.3,1.8 575.1,1.8 575.1,17.4 529.6,17.4 529.6,52.7 572.4,52.7 
		572.4,68.3 529.6,68.3 	"/>
	<path class="st1" d="M699.3,58.2c0,18.4-4.6,32.7-13.9,42.9c-9.3,10.2-22.3,15.2-39.1,15.2c-17.1,0-30.1-5.1-39.3-15.2
		c-9.3-10.2-13.7-24.5-13.7-43.1c0-18.6,4.6-33.1,13.9-42.9C616.4,5.1,629.4,0,646.5,0c16.9,0,29.9,5.1,38.9,15.2
		C694.7,25.3,699.3,39.8,699.3,58.2 M613,58.2c0,13.9,2.8,24.5,8.4,31.7c5.6,7.3,14,10.8,25.1,10.8c11.1,0,19.3-3.6,24.9-10.6
		c5.6-7.1,8.4-17.6,8.4-31.8c0-13.9-2.8-24.5-8.3-31.5c-5.6-7.3-13.9-10.8-24.9-10.8c-11,0-19.5,3.6-25.1,10.8
		C615.9,33.7,613,44.4,613,58.2"/>
	<polygon class="st1" points="727,114.8 727,1.8 745.4,1.8 745.4,99.1 793.3,99.1 793.3,114.9 727,114.9 	"/>
	<path class="st1" d="M908,57.2c0,18.6-5.2,32.8-15.6,42.8c-10.5,9.8-25.2,14.9-44.7,14.9h-31.7V1.8h35c18.1,0,32.1,4.8,41.9,14.7
		C903.1,26.1,908,39.8,908,57.2 M888.6,57.9c0-27.1-12.7-40.6-37.9-40.6h-16.1v82h13.2C875,99.3,888.6,85.5,888.6,57.9"/>
	<rect x="421.9" y="2.3" class="st2" width="64" height="14.4"/>
	<rect x="421.9" y="50.2" class="st3" width="60.9" height="14.4"/>
	<rect x="331.5" y="2.3" class="st2" width="64" height="14.4"/>
	<rect x="331.5" y="50.2" class="st3" width="60.9" height="14.4"/>
	<path class="st1" d="M40.7,183.8c3.3,2.6,5.3,6.3,6.1,10.8h-6.8c-0.4-2.9-1.8-5.1-3.9-6.6c-2.1-1.7-4.7-2.4-7.9-2.4
		c-2.3,0-4.4,0.6-6.3,1.5c-1.9,1.1-3.4,2.6-4.5,4.8c-1.1,2.2-1.8,4.8-1.8,8s0.6,5.8,1.8,8c1.1,2.2,2.6,3.7,4.5,4.8
		c1.9,1.1,4,1.5,6.3,1.5c3.2,0,5.8-0.8,7.9-2.4c2.1-1.7,3.4-3.9,3.9-6.6h6.8c-0.8,4.5-2.8,8.2-6.1,10.8c-3.3,2.6-7.5,4-12.5,4
		c-3.7,0-7.2-0.8-10-2.4s-5.2-4-6.8-6.9c-1.7-3.1-2.4-6.6-2.4-10.7c0-4.1,0.8-7.7,2.4-10.8c1.7-3.1,4-5.4,6.8-7.1s6.3-2.4,10-2.4
		C33.2,179.8,37.4,181.2,40.7,183.8"/>
	<path class="st1" d="M93.3,182.3c3,1.7,5.3,4,7.1,7.1c1.7,3.1,2.5,6.6,2.5,10.8c0,4.2-0.9,7.7-2.5,10.7c-1.7,3.1-4.1,5.4-7.1,6.9
		c-3,1.7-6.4,2.4-10.1,2.4c-3.7,0-7.2-0.8-10.1-2.4c-3-1.7-5.3-4-7.1-6.9c-1.8-3.1-2.5-6.6-2.5-10.7c0-4.1,0.9-7.7,2.5-10.8
		c1.7-3.1,4.1-5.4,7.1-7.1c3-1.7,6.4-2.4,10.1-2.4C86.9,179.8,90.4,180.6,93.3,182.3 M76.7,187.1c-2,1.1-3.5,2.6-4.8,4.8
		c-1.3,2.2-1.9,4.8-1.9,8c0,3.2,0.7,5.8,1.9,7.9c1.2,2.2,2.9,3.7,4.8,4.8c2,1.1,4.2,1.5,6.5,1.5c2.3,0,4.5-0.6,6.5-1.5
		c2-1.1,3.5-2.6,4.8-4.8c1.2-2.2,1.9-4.8,1.9-7.9c0-3.2-0.7-5.8-1.9-8s-2.9-3.7-4.8-4.8c-2-1.1-4.2-1.5-6.5-1.5
		C80.9,185.6,78.7,186,76.7,187.1"/>
	<path class="st1" d="M153.5,184c2.9,3,4.2,7.2,4.2,12.7v22.8h-6.5v-22.3c0-4-1-6.9-3-9c-2-2.1-4.7-3.2-8.2-3.2
		c-3.5,0-6.4,1.2-8.6,3.5c-2.2,2.3-3.2,5.7-3.2,10.1v20.8h-6.5v-39.3h6.5v9.3c1-3.2,2.8-5.6,5.3-7.4c2.5-1.8,5.5-2.5,8.8-2.5
		C147,179.6,150.6,181.2,153.5,184"/>
	<path class="st1" d="M210,184c2.9,3,4.2,7.2,4.2,12.7v22.8h-6.5v-22.3c0-4-1-6.9-3-9c-2-2.1-4.7-3.2-8.2-3.2
		c-3.5,0-6.4,1.2-8.6,3.5c-2.2,2.3-3.2,5.7-3.2,10.1v20.8h-6.5v-39.3h6.5v9.3c1-3.2,2.8-5.6,5.3-7.4c2.5-1.8,5.5-2.5,8.8-2.5
		C203.5,179.6,207.3,181.2,210,184"/>
	<path class="st1" d="M270.5,201.3h-31.4c0.1,4.5,1.4,7.8,3.9,10.1c2.4,2.2,5.4,3.4,8.8,3.4c3.2,0,5.8-0.8,7.9-2.4
		c2.1-1.7,3.4-3.7,3.9-6.4h6.9c-0.4,2.8-1.5,5.2-3.2,7.3c-1.7,2.1-3.7,3.9-6.4,5c-2.6,1.2-5.6,1.8-8.9,1.8c-3.7,0-7.2-0.8-10-2.4
		c-2.9-1.7-5.2-4-6.8-6.9c-1.7-3.1-2.4-6.6-2.4-10.7c0-4.1,0.8-7.7,2.4-10.8c1.7-3.1,4-5.4,6.8-7.1c2.9-1.7,6.3-2.4,10-2.4
		c3.9,0,7.2,0.8,10,2.4c2.9,1.7,5.1,3.7,6.5,6.5c1.5,2.8,2.2,5.7,2.2,9C270.8,199.1,270.8,200.3,270.5,201.3 M262.8,190.9
		c-1.1-2-2.6-3.4-4.5-4.4c-1.9-1-4-1.4-6.3-1.4c-3.5,0-6.6,1.1-9,3.3c-2.4,2.2-3.7,5.5-4,9.8h25.1
		C264.4,195.3,263.9,192.8,262.8,190.9"/>
	<path class="st1" d="M319.6,183.8c3.3,2.6,5.3,6.3,6.1,10.8h-6.8c-0.4-2.9-1.8-5.1-3.9-6.6c-2.1-1.7-4.7-2.4-7.9-2.4
		c-2.3,0-4.4,0.6-6.3,1.5c-1.9,1.1-3.4,2.6-4.5,4.8c-1.1,2.2-1.8,4.8-1.8,8s0.6,5.8,1.8,8c1.1,2.2,2.6,3.7,4.5,4.8
		c1.9,1.1,4,1.5,6.3,1.5c3.2,0,5.8-0.8,7.9-2.4c2.1-1.7,3.4-3.9,3.9-6.6h6.8c-0.8,4.5-2.8,8.2-6.1,10.8c-3.3,2.6-7.5,4-12.5,4
		c-3.7,0-7.2-0.8-10-2.4s-5.2-4-6.8-6.9c-1.7-3.1-2.4-6.6-2.4-10.7c0-4.1,0.8-7.7,2.4-10.8c1.7-3.1,4-5.4,6.8-7.1s6.3-2.4,10-2.4
		C312.2,179.8,316.3,181.2,319.6,183.8"/>
	<path class="st1" d="M362.9,213.9v5.7H358c-4,0-7.1-1-9-2.9c-2-1.9-3-5.1-3-9.6v-21.3h-5.8v-5.6h5.8v-9.8h6.6v9.8h10.1v5.6h-10.1
		v21.4c0,2.5,0.4,4.3,1.4,5.2c0.9,0.9,2.5,1.4,4.8,1.4H362.9z"/>
	<path class="st1" d="M380.4,165.8c0.8-0.8,1.9-1.1,3.2-1.1c1.3,0,2.4,0.3,3.2,1.1c0.8,0.8,1.2,1.7,1.2,2.9c0,1.2-0.4,2.2-1.2,2.9
		c-0.8,0.8-1.9,1.1-3.2,1.1c-1.3,0-2.4-0.3-3.2-1.1c-0.8-0.8-1.2-1.7-1.2-2.9C379.2,167.6,379.5,166.6,380.4,165.8 M386.8,219.6
		h-6.5v-39.3h6.5V219.6z"/>
	<path class="st1" d="M439.5,184c2.9,3,4.2,7.2,4.2,12.7v22.8h-6.5v-22.3c0-4-1-6.9-3-9c-2-2.1-4.7-3.2-8.2-3.2
		c-3.5,0-6.4,1.2-8.6,3.5c-2.2,2.3-3.2,5.7-3.2,10.1v20.8h-6.5v-39.3h6.5v9.3c1-3.2,2.8-5.6,5.3-7.4c2.5-1.8,5.5-2.5,8.8-2.5
		C433,179.6,436.7,181.2,439.5,184"/>
	<path class="st1" d="M490,182.7c2.6,1.9,4.5,4.5,5.5,7.7v-10h6.5v40c0,3.6-0.8,6.8-2.3,9.7c-1.5,2.9-3.6,5-6.4,6.6
		c-2.8,1.5-6,2.3-9.7,2.3c-5.3,0-9.6-1.3-13-3.9c-3.3-2.5-5.5-6.1-6.4-10.4h6.4c0.8,2.6,2.2,4.7,4.3,6.2c2.1,1.5,4.8,2.2,8.2,2.2
		c3.5,0,6.5-1.1,8.8-3.4c2.3-2.3,3.5-5.4,3.5-9.5v-10.7c-1.1,3.2-2.9,5.7-5.5,7.7c-2.6,1.9-5.8,2.9-9.7,2.9c-3.5,0-6.6-0.8-9.4-2.4
		c-2.8-1.7-4.8-4-6.4-6.9c-1.5-3.1-2.3-6.6-2.3-10.7s0.8-7.7,2.3-10.8c1.5-3.1,3.6-5.4,6.4-7.1s5.8-2.4,9.4-2.4
		C484.1,179.8,487.3,180.7,490,182.7 M472.5,189.4c-2.4,2.5-3.6,6.1-3.6,10.6c0,4.5,1.2,8,3.6,10.6c2.4,2.5,5.6,3.9,9.6,3.9
		c2.5,0,4.8-0.6,6.9-1.8c2-1.2,3.6-2.9,4.7-5.1c1.1-2.2,1.8-4.7,1.8-7.6s-0.6-5.4-1.8-7.6c-1.1-2.2-2.8-3.9-4.7-5.1
		c-2-1.2-4.3-1.8-6.9-1.8C478.1,185.6,474.9,186.9,472.5,189.4"/>
	<path class="st1" d="M571.8,213.9v5.7H567c-4,0-7.1-1-9-2.9c-2-1.9-3-5.1-3-9.6v-21.3h-5.8v-5.6h5.8v-9.8h6.6v9.8h10.1v5.6h-10.1
		v21.4c0,2.5,0.4,4.3,1.4,5.2c0.9,0.9,2.5,1.4,4.8,1.4H571.8z"/>
	<path class="st1" d="M621.1,184c2.9,3,4.2,7.2,4.2,12.7v22.8h-6.5v-22.3c0-4-1-6.9-3-9c-2-2.1-4.7-3.2-8.2-3.2
		c-3.5,0-6.4,1.2-8.6,3.5c-2.2,2.3-3.2,5.7-3.2,10.1v20.8h-6.5v-53h6.5v23c1-3.2,2.8-5.6,5.3-7.4c2.5-1.8,5.5-2.5,8.8-2.5
		C614.6,179.6,618.3,181.2,621.1,184"/>
	<path class="st1" d="M681.6,201.3h-31.4c0.1,4.5,1.4,7.8,3.9,10.1c2.4,2.2,5.4,3.4,8.8,3.4c3.2,0,5.8-0.8,7.9-2.4
		c2.1-1.7,3.4-3.7,3.9-6.4h6.9c-0.4,2.8-1.5,5.2-3.2,7.3c-1.7,2.2-3.7,3.9-6.4,5c-2.6,1.2-5.6,1.8-8.9,1.8c-3.7,0-7.2-0.8-10-2.4
		c-2.9-1.7-5.2-4-6.8-6.9c-1.7-3.1-2.4-6.6-2.4-10.7c0-4.1,0.8-7.7,2.4-10.8c1.7-3.1,4-5.4,6.8-7.1s6.3-2.4,10-2.4
		c3.9,0,7.2,0.8,10,2.4s5,3.7,6.5,6.5c1.5,2.8,2.2,5.7,2.2,9C681.8,199.1,681.7,200.3,681.6,201.3 M673.7,190.9
		c-1.1-2-2.6-3.4-4.5-4.4c-1.9-1-4-1.4-6.3-1.4c-3.5,0-6.6,1.1-9,3.3c-2.4,2.2-3.7,5.5-4,9.8h25.1
		C675.4,195.3,674.8,192.8,673.7,190.9"/>
	<path class="st1" d="M756.7,182.7c2.6,1.9,4.5,4.5,5.5,7.7v-23.7h6.5v53h-6.5v-10c-1.1,3.2-2.9,5.7-5.5,7.7
		c-2.6,1.9-5.8,2.9-9.7,2.9c-3.5,0-6.6-0.8-9.4-2.4c-2.8-1.7-4.8-4-6.4-6.9c-1.5-3.1-2.3-6.6-2.3-10.7c0-4.1,0.8-7.7,2.3-10.8
		c1.5-3.1,3.6-5.4,6.4-7.1s5.8-2.4,9.4-2.4C750.9,179.8,754.1,180.7,756.7,182.7 M739.3,189.4c-2.4,2.5-3.6,6.1-3.6,10.6
		c0,4.5,1.2,8,3.6,10.6c2.4,2.5,5.6,3.9,9.6,3.9c2.5,0,4.8-0.6,6.9-1.8c2-1.2,3.6-2.9,4.7-5.1c1.1-2.2,1.8-4.7,1.8-7.6
		s-0.6-5.4-1.8-7.6c-1.1-2.2-2.8-3.9-4.7-5.1c-2-1.2-4.3-1.8-6.9-1.8C744.9,185.6,741.7,186.9,739.3,189.4"/>
	<path class="st1" d="M817.5,182.3c3,1.7,5.3,4,7.1,7.1c1.8,3.1,2.5,6.6,2.5,10.8c0,4.2-0.9,7.7-2.5,10.7c-1.7,3.1-4.1,5.4-7.1,6.9
		c-3,1.7-6.4,2.4-10.1,2.4c-3.7,0-7.2-0.8-10.1-2.4c-3-1.7-5.3-4-7.1-6.9c-1.8-3.1-2.5-6.6-2.5-10.7c0-4.1,0.9-7.7,2.5-10.8
		c1.8-3.1,4.1-5.4,7.1-7.1c3-1.7,6.4-2.4,10.1-2.4C811.2,179.8,814.6,180.6,817.5,182.3 M800.9,187.1c-2,1.1-3.5,2.6-4.8,4.8
		c-1.2,2.2-1.9,4.8-1.9,8c0,3.2,0.7,5.8,1.9,7.9c1.2,2.2,2.9,3.7,4.8,4.8c2,1.1,4.2,1.5,6.5,1.5c2.3,0,4.5-0.6,6.5-1.5
		c2-1.1,3.5-2.6,4.8-4.8c1.2-2.2,1.9-4.8,1.9-7.9c0-3.2-0.7-5.8-1.9-8c-1.2-2.2-2.9-3.7-4.8-4.8c-2-1.1-4.2-1.5-6.5-1.5
		C805.1,185.6,802.9,186,800.9,187.1"/>
	<path class="st1" d="M863.7,213.9v5.7h-4.8c-4,0-7.1-1-9-2.9c-2-1.9-3-5.1-3-9.6v-21.3H841v-5.6h5.8v-9.8h6.6v9.8h10.1v5.6h-10.1
		v21.4c0,2.5,0.4,4.3,1.4,5.2c0.9,0.9,2.5,1.4,4.8,1.4H863.7z"/>
	<path class="st1" d="M904.7,183.3c2.6,2.3,4.3,5.4,5,9.4h-6.3c-0.3-2.3-1.2-4.3-2.9-5.7c-1.7-1.4-3.9-2.2-6.6-2.2
		c-2.3,0-4.2,0.6-5.5,1.7c-1.3,1.1-2,2.6-2,4.5c0,1.4,0.4,2.6,1.3,3.5c0.9,0.9,2,1.5,3.3,2c1.3,0.4,3.1,1,5.4,1.4
		c2.9,0.7,5.3,1.3,7.1,2.1c1.8,0.7,3.3,1.8,4.6,3.3c1.2,1.5,1.9,3.5,1.9,6.2c0,3.2-1.2,5.8-3.6,7.8c-2.4,2-5.6,3-9.6,3
		c-4.6,0-8.5-1.1-11.5-3.4c-3-2.2-4.7-5.4-5.2-9.4h6.3c0.2,2.4,1.3,4.3,3.1,5.8c1.9,1.4,4.3,2.2,7.3,2.2c2.2,0,4-0.6,5.3-1.8
		c1.2-1.1,1.9-2.6,1.9-4.5c0-1.5-0.4-2.8-1.3-3.6c-0.9-0.9-2-1.7-3.4-2.1c-1.3-0.4-3.2-1-5.5-1.5c-2.9-0.7-5.3-1.3-6.9-2
		c-1.8-0.7-3.2-1.8-4.4-3.2c-1.2-1.4-1.9-3.4-1.9-6c0-3.3,1.2-5.9,3.6-7.9c2.4-2,5.7-3.1,9.9-3.1C898.4,179.8,902,180.9,904.7,183.3
		"/>
</g>
</svg>
