<?xml version="1.0" encoding="utf-8"?>
<!-- Generator: Adobe Illustrator 23.0.1, SVG Export Plug-In . SVG Version: 6.00 Build 0)  -->
<svg version="1.1" id="Capa_1" xmlns="http://www.w3.org/2000/svg" xmlns:xlink="http://www.w3.org/1999/xlink" x="0px" y="0px"
	 viewBox="0 0 512 512" style="enable-background:new 0 0 512 512;" xml:space="preserve">
<style type="text/css">
	.st0{fill:#15DABD;}
	.st1{fill:#0F1C50;}
	.st2{fill:#060C24;}
	.st3{fill:#0F296A;}
	.st4{fill:#F0F0F0;}
	.st5{fill:#0F7666;}
</style>
<g>
	<g>
		<circle class="st0" cx="256" cy="261.9" r="203"/>
		<polygon class="st1" points="0,500.2 17.7,464.9 0,429.6 53,429.6 53,464.9 105.9,500.2 		"/>
		<g>
			<path class="st2" d="M105.9,438.4v61.8l-53-35.3c16.3-11.4,34-20.6,52.7-27.2L105.9,438.4z"/>
			<path class="st2" d="M459,464.9l-53,35.3v-61.8l0.3-0.7C425.1,444.4,442.8,453.5,459,464.9z"/>
		</g>
		<polygon class="st1" points="494.3,464.9 512,500.2 406.1,500.2 459,464.9 459,429.6 512,429.6 		"/>
		<path class="st3" d="M291.3,173.6v-61.8h26.5c3.3,0,6.4-1.9,7.9-4.9c1.5-3,1.2-6.6-0.8-9.2l-61.8-82.4c-1.7-2.2-4.3-3.5-7.1-3.5
			s-5.4,1.3-7.1,3.5l-61.8,82.4c-2,2.7-2.3,6.3-0.8,9.2c1.5,3,4.6,4.9,7.9,4.9h26.5v61.8c0,4.9,4,8.8,8.8,8.8h53
			C287.4,182.4,291.3,178.5,291.3,173.6z"/>
		<g>
			<path class="st4" d="M167.7,288.4h-8.8v-61.8c0-3.1-1.6-5.9-4.2-7.5s-5.9-1.8-8.6-0.4l-17.7,8.8c-4.4,2.2-6.1,7.5-4,11.8
				c2.2,4.4,7.5,6.1,11.8,4l4.9-2.4v47.5h-8.8c-4.9,0-8.8,4-8.8,8.8s4,8.8,8.8,8.8h35.3c4.9,0,8.8-4,8.8-8.8
				S172.6,288.4,167.7,288.4z"/>
			<path class="st4" d="M229.5,217.7H203c-9.8,0-17.7,7.9-17.7,17.7v53c0,9.8,7.9,17.7,17.7,17.7h26.5c9.8,0,17.7-7.9,17.7-17.7v-53
				C247.2,225.6,239.3,217.7,229.5,217.7z M203,288.4v-53h26.5v53H203z"/>
			<path class="st4" d="M300.1,217.7h-26.5c-9.8,0-17.7,7.9-17.7,17.7v53c0,9.8,7.9,17.7,17.7,17.7h26.5c9.8,0,17.7-7.9,17.7-17.7
				v-53C317.8,225.6,309.9,217.7,300.1,217.7z M273.7,288.4v-53h26.5v53H273.7z"/>
			<path class="st4" d="M340.9,243.5c2.1,0.9,4.6,0.9,6.7,0c1.1-0.4,2.1-1.1,2.9-1.9c1.6-1.7,2.5-3.9,2.6-6.3c0-0.6-0.1-1.2-0.2-1.8
				c-0.1-0.6-0.3-1.1-0.5-1.6c-0.2-0.5-0.4-1.1-0.8-1.5c-0.4-0.5-0.7-1-1.1-1.4c-0.9-0.8-1.8-1.4-2.9-1.9c-2.1-0.9-4.6-0.9-6.7,0
				c-1.1,0.4-2.1,1.1-2.9,1.9c-0.4,0.4-0.7,0.9-1.1,1.4c-0.4,0.4-0.6,1-0.8,1.5c-0.3,0.5-0.4,1-0.5,1.6c-0.1,0.6-0.2,1.2-0.2,1.8
				c0,2.3,0.9,4.6,2.6,6.3C338.9,242.4,339.9,243.1,340.9,243.5z"/>
			<path class="st4" d="M405.4,285c-0.2-0.5-0.4-1-0.8-1.5c-0.4-0.5-0.7-1-1.1-1.4c-0.9-0.8-1.8-1.4-2.9-1.9c-2.1-0.9-4.6-0.9-6.7,0
				c-1.1,0.4-2.1,1.1-2.9,1.9c-0.4,0.4-0.7,0.9-1.1,1.4c-0.4,0.5-0.6,1-0.8,1.5c-0.3,0.5-0.4,1-0.5,1.6c-0.1,0.6-0.2,1.2-0.2,1.8
				c0,2.3,0.9,4.6,2.6,6.3c0.9,0.8,1.8,1.4,2.9,1.9c2.1,0.9,4.6,0.9,6.7,0c1.1-0.4,2.1-1.1,2.9-1.9c1.6-1.7,2.5-3.9,2.6-6.3
				c0-0.6-0.1-1.2-0.2-1.8C405.8,286,405.6,285.5,405.4,285z"/>
			<path class="st4" d="M403.5,229.2c-3.4-3.4-9-3.4-12.5,0l-53,53c-2.3,2.2-3.2,5.5-2.4,8.6c0.8,3.1,3.2,5.5,6.3,6.3
				c3.1,0.8,6.4-0.1,8.6-2.4l53-53C406.9,238.2,406.9,232.6,403.5,229.2z"/>
		</g>
	</g>
</g>
<path class="st5" d="M423.5,147.1c5.5,19.6,8.4,40.3,8.4,61.7c0,126.5-102.5,229-229,229c-21.4,0-42.1-2.9-61.7-8.4
	c32.6,22.4,72.2,35.5,114.8,35.5c112.1,0,203-90.9,203-203C459,219.3,445.9,179.8,423.5,147.1z"/>
<path class="st3" d="M512,429.6h-53v-44.1c0,0-67.7-53-203-53s-203,53-203,53v44.1H0l17.7,35.3L0,500.2h105.9v-61.8l-0.3-0.7
	C153.8,420,204.7,411.2,256,412c51.3-0.7,102.2,8,150.3,25.8l-0.3,0.7v61.8H512l-17.7-35.3L512,429.6z"/>
</svg>
