<?xml version="1.0"?>
<svg xmlns="http://www.w3.org/2000/svg" height="512px" viewBox="-11 0 512 512.00029" width="512px" class=""><g><path d="m100.394531 464.773438 291.199219-1.449219c59.738281-44.679688 98.40625-115.984375 98.40625-196.324219 0-135.308594-109.691406-245-245-245s-245 109.691406-245 245c0 81.21875 39.53125 153.195312 100.394531 197.773438zm0 0" fill="#a3e2ff" data-original="#A3E2FF" class="" style="fill:#15DABD" data-old_color="#15dabd"/><path d="m245 512c55.566406 0 106.800781-18.507812 147.90625-49.683594-13.644531-5.195312-27.636719-9.558594-42.195312-13.011718-1.320313-.3125-2.507813-1.03125-3.414063-2.039063-.003906-.003906-.011719-.011719-.015625-.015625-.003906.019531-.007812.042969-.011719.0625-14.394531-15.9375-18.125-44.300781-18.8125-64.332031-21.859375 25.460937-46.757812 42.808593-80.589843 42.808593-33.832032 0-58.726563-17.339843-80.589844-42.808593-.691406 20.03125-4.421875 48.394531-18.816406 64.332031-.003907-.019531-.007813-.042969-.011719-.0625-.003907.003906-.007813.011719-.015625.015625-.90625 1.007813-2.09375 1.726563-3.414063 2.039063-15.910156 3.773437-31.144531 8.625-45.988281 14.472656 40.769531 30.292968 91.273438 48.222656 145.96875 48.222656zm0 0" fill="#fbbc8d" data-original="#FBBC8D" class=""/><path d="m250.3125 425.75c-.808594.019531-1.625.039062-2.445312.039062-33.832032 0-58.726563-17.339843-80.589844-42.808593-.691406 20.03125-4.421875 48.394531-18.816406 64.332031-.003907-.019531-.007813-.042969-.011719-.0625-.003907.003906-.007813.011719-.011719.015625-.910156 1.007813-2.09375 1.726563-3.414062 2.039063-15.914063 3.773437-31.148438 8.625-45.992188 14.472656 34.710938 25.789062 76.476562 42.609375 121.871094 47.042968 23.09375-25.089843 28.617187-60.945312 29.410156-85.070312zm0 0" fill="#fca870" data-original="#FCA870"/><path d="m372.21875 192.148438c-1.441406-3.761719-3.261719-7.574219-5.550781-11.167969-3.878907-6.085938-5.585938-13.285157-5.066407-20.464844 1.496094-20.644531.695313-61.027344-26.410156-73.222656-23.027344-10.359375-51.273437-4.363281-69.289062 1.628906-11.699219 3.890625-24.375 3.890625-36.074219 0-18.015625-5.992187-46.261719-11.988281-69.285156-1.628906-27.183594 12.230469-27.914063 52.808593-26.398438 73.402343.523438 7.121094-1.230469 14.246094-5.082031 20.289063-2.21875 3.480469-3.992188 7.164063-5.414062 10.8125-4.605469 11.832031-5.949219 24.664063-4.222657 37.226563l6.410157 46.675781c0 67.097656 35.816406 112.707031 66.289062 136.367187 15.902344 12.351563 35.527344 19.058594 55.742188 19.058594 20.210937 0 39.839843-6.707031 55.742187-19.058594 30.46875-23.660156 66.289063-69.269531 66.289063-136.367187l6.40625-46.664063c1.707031-12.441406.414062-25.148437-4.085938-36.886718zm0 0" fill="#f9cfa9" data-original="#F9CFA9" class=""/><path d="m245.359375 412.066406c-21.695313-23.660156-47.203125-69.269531-47.203125-136.371094l-4.5625-46.671874c-1.230469-12.5625-.273438-25.394532 3.003906-37.226563 1.011719-3.648437 2.277344-7.332031 3.855469-10.8125 2.742187-6.042969 3.992187-13.167969 3.617187-20.292969-1.074218-20.589844-.554687-61.167968 18.800782-73.398437.191406-.121094.386718-.230469.582031-.347657-17.863281-5.148437-42.445313-8.863281-62.910156.347657-27.183594 12.230469-27.910157 52.808593-26.398438 73.398437.523438 7.125-1.230469 14.25-5.082031 20.292969-2.21875 3.480469-3.992188 7.164063-5.414062 10.8125-4.601563 11.832031-5.945313 24.660156-4.222657 37.226563l6.410157 46.671874c0 67.101563 35.820312 112.710938 66.289062 136.371094 15.902344 12.351563 35.527344 19.058594 55.742188 19.058594 7.367187 0 14.65625-.902344 21.71875-2.632812-8.765626-3.019532-17.03125-8.578126-24.226563-16.425782zm0 0" fill="#fbbc8d" data-original="#FBBC8D" class=""/><path d="m220.914062 1.679688c-80.9375 11.027343-88.632812 56.917968-88.667968 73.753906-.007813 3.53125-1.964844 6.804687-5.140625 8.347656-42.097657 20.480469-19.398438 119.191406-19.398438 119.191406 4.226563.28125 8.652344 1.992188 11.953125 3.59375.808594-5.03125 2.128906-9.984375 3.988282-14.769531 1.421874-3.648437 3.195312-7.332031 5.414062-10.8125 3.851562-6.042969 5.605469-13.167969 5.082031-20.292969-1.511719-20.589844-.785156-61.167968 26.398438-73.398437 23.027343-10.363281 51.273437-4.363281 69.289062 1.628906 11.699219 3.890625 24.371094 3.890625 36.070313 0 18.015625-5.992187 46.261718-11.992187 69.289062-1.628906 27.105469 12.195312 27.90625 52.578125 26.410156 73.222656-.519531 7.179687 1.1875 14.378906 5.066407 20.464844 2.292969 3.59375 4.109375 7.40625 5.550781 11.167969 1.792969 4.675781 3.070312 9.507812 3.855469 14.414062 4.160156-2.015625 10.109375-4.210938 15.195312-3.488281.621094-21.585938 2.613281-44.855469 2.613281-44.855469 23.988282-117.472656-85.820312-168.414062-172.96875-156.539062zm0 0" fill="#3342ae" data-original="#3342AE"/><path d="m220.914062 1.679688c-80.9375 11.027343-88.632812 56.917968-88.667968 73.753906-.007813 3.53125-1.964844 6.804687-5.136719 8.347656-42.101563 20.480469-19.402344 119.191406-19.402344 119.191406 4.226563.28125 8.652344 1.992188 11.953125 3.59375.808594-5.03125 2.128906-9.984375 3.992188-14.769531 1.417968-3.648437 3.195312-7.332031 5.414062-10.8125 3.847656-6.042969 5.601563-13.167969 5.078125-20.292969-1.511719-20.589844-.78125-61.167968 26.398438-73.398437 20.464843-9.210938 45.046875-5.492188 62.910156-.347657-30.648437-60.878906 23.640625-85.910156 25.882813-86.9101558-9.605469-.1640622-19.144532.3828128-28.421876 1.6445318zm0 0" fill="#232e7a" data-original="#232E7A" class=""/><path d="m383.074219 170.867188c4.347656 0 8.707031 1.019531 12.605469 2.949218 10.421874 5.167969 16.722656 16.425782 15.671874 28.015625-.445312 4.90625-1.046874 9.550781-1.78125 13.945313 6.066407-6.738282 9.808594-15.964844 9.808594-26.148438 0-20.628906-15.34375-37.351562-34.273437-37.351562-12.648438 0-23.691407 7.476562-29.632813 18.589844zm0 0" fill="#e1e3f7" data-original="#E1E3F7"/><path d="m385.105469 152.277344c-12.648438 0-23.691407 7.476562-29.628907 18.589844h27.597657c4.347656 0 8.707031 1.019531 12.605469 2.949218 3.519531 1.746094 6.554687 4.195313 9.007812 7.109375.527344-.914062.695312-2.03125.371094-3.125-1.128906-3.835937-1.199219-9.375 5.261718-13.460937-6.261718-7.414063-15.238281-12.0625-25.214843-12.0625zm0 0" fill="#d7d1eb" data-original="#D7D1EB"/><g fill="#27a3ff"><path d="m102.410156 260.046875c-3.539062-8.101563-5.515625-17.042969-5.515625-26.453125 0-14.414062 4.617188-27.746094 12.445313-38.609375h-25.6875c-.332032 2.265625-.410156 4.59375-.195313 6.945313 4.390625 48.445312 23.988281 71.617187 37.570313 82.039062-5.851563-5.429688-12.558594-13.585938-18.617188-23.921875zm0 0" data-original="#000000" class=""/><path d="m247.925781 236.632812c-6.59375 0-12.523437 4.027344-14.957031 10.15625l-.003906.015626.003906-.015626c2.433594-6.128906 8.363281-10.15625 14.957031-10.15625zm0 0" data-original="#000000" class=""/><path d="m396.144531 172.875c-4.0625-2.011719-8.535156-3.058594-13.070312-3.058594h-26.707031c24.894531 9.746094 42.59375 35.542969 42.59375 63.777344 0 9.410156-1.980469 18.351562-5.519532 26.457031-6.058594 10.328125-12.761718 18.484375-18.617187 23.917969 13.585937-10.425781 33.183593-33.59375 37.574219-82.039062 1.097656-12.109376-5.359376-23.65625-16.253907-29.054688zm0 0" data-original="#000000" class=""/></g><path d="m396.144531 172.875c-4.0625-2.011719-8.535156-3.058594-13.070312-3.058594h-32.675781c18.132812 4.992188 33.144531 17.511719 41.472656 33.984375l1.554687-.871093s-4.972656-16.894532 8.730469-20.113282c1.554688-.363281 2.652344-1.601562 2.964844-3.0625-2.472656-2.796875-5.496094-5.152344-8.976563-6.878906zm0 0" fill="#0080f4" data-original="#0080F4"/><path d="m352.398438 169.816406h-183.851563v17.816406c0 4.054688-3.296875 7.351563-7.351563 7.351563h-53.855468c-7.828125 10.863281-12.445313 24.195313-12.445313 38.609375 0 9.410156 1.976563 18.351562 5.519531 26.457031 8.480469 14.46875 18.246094 22.699219 25.140626 27.105469 4.679687 2.992188 10.136718 4.53125 15.691406 4.53125h62.976562c6.59375 0 12.523438-4.023438 14.957032-10.15625l13.789062-34.738281c2.433594-6.132813 8.363281-10.15625 14.957031-10.15625 6.597657 0 12.523438 4.023437 14.957031 10.15625l13.789063 34.738281c2.433594 6.132812 8.363281 10.15625 14.957031 10.15625h62.976563c5.554687 0 11.015625-1.539062 15.695312-4.53125 6.890625-4.40625 16.65625-12.636719 25.140625-27.105469 3.539063-8.105469 5.515625-17.046875 5.515625-26.457031.003907-30.445312-20.566406-56.066406-48.558593-63.777344zm0 0" fill="#5c4df4" data-original="#5C4DF4" class="active-path" style="fill:#1E3C89" data-old_color="#0F296A"/><path d="m203.65625 169.816406h.011719-35.121094v17.816406c0 4.054688-3.296875 7.351563-7.351563 7.351563h-53.855468c-7.828125 10.863281-12.445313 24.195313-12.445313 38.609375 0 9.410156 1.976563 18.351562 5.519531 26.457031 8.480469 14.46875 18.246094 22.699219 25.140626 27.105469 4.679687 2.992188 10.136718 4.53125 15.695312 4.53125h61.214844c-2.976563-.003906-5.902344-1.539062-8.410156-4.53125-3.699219-4.40625-8.933594-12.636719-13.484376-27.105469-1.898437-8.101562-2.957031-17.046875-2.957031-26.457031-.003906-30.445312 11.027344-56.066406 26.042969-63.777344zm0 0" fill="#5339e5" data-original="#5339E5" class="" style="fill:#0F296A" data-old_color="#0f296a"/><path d="m232.96875 185.878906c2.433594 6.132813 8.363281 10.15625 14.957031 10.15625 6.597657 0 12.523438-4.023437 14.957031-10.15625l6.378907-16.0625h-42.667969zm0 0" fill="#4520ca" data-original="#4520CA"/><path d="m161.195312 152.277344h-82.171874c-4.621094 0-8.402344 3.78125-8.402344 8.40625v26.949218c0 4.621094 3.78125 8.402344 8.402344 8.402344h82.171874c4.621094 0 8.402344-3.78125 8.402344-8.402344v-26.949218c0-4.625-3.78125-8.40625-8.402344-8.40625zm0 0" fill="#77d2ff" data-original="#77D2FF" class=""/><path d="m79.023438 152.277344c-4.621094 0-8.402344 3.78125-8.402344 8.40625v26.949218c0 4.621094 3.78125 8.402344 8.402344 8.402344h39.679687c-7.871094-9.894531 0-16.625 0-16.625v-10.503906c-8.367187-8.367188 0-16.628906 0-16.628906zm0 0" fill="#4fbbff" data-original="#4FBBFF" class=""/><path d="m148.121094 181.160156h-1.304688c-3.867187 0-7.003906-3.136718-7.003906-7.003906s3.136719-7.003906 7.003906-7.003906h1.304688c3.867187 0 7.003906 3.136718 7.003906 7.003906s-3.136719 7.003906-7.003906 7.003906zm0 0" fill="#f741c4" data-original="#F741C4"/><path d="m127.644531 179.410156h-36.949219c-2.902343 0-5.253906-2.351562-5.253906-5.253906 0-2.898438 2.351563-5.25 5.253906-5.25h36.949219c2.902344 0 5.253907 2.351562 5.253907 5.25 0 2.902344-2.351563 5.253906-5.253907 5.253906zm0 0" fill="#a3e2ff" data-original="#A3E2FF" class="" style="fill:#15DABD" data-old_color="#15dabd"/><path d="m113.859375 174.15625c0-2.761719 2.136719-5 4.84375-5.210938v-.039062h-28.007813c-2.902343 0-5.253906 2.351562-5.253906 5.25 0 2.902344 2.351563 5.253906 5.253906 5.253906h28.007813v-.042968c-2.707031-.210938-4.84375-2.449219-4.84375-5.210938zm0 0" fill="#77d2ff" data-original="#77D2FF" class=""/></g> </svg>
