<svg id="Layer_1" data-name="Layer 1" xmlns="http://www.w3.org/2000/svg" viewBox="0 0 782.46 62.97"><defs><style>.cls-1{fill:#f2f2f2;}.cls-2{fill:aqua;}</style></defs><title>TFT Logo</title><path class="cls-1" d="M133.72,14.63H116.2V64.86H103.72V14.63H86.2V4.49h47.73V14.63Z" transform="translate(-8.74 -3.17)"/><path class="cls-1" d="M192.81,4.49V64.86H180.33v-26h-26.6v26H141.26V4.49h12.47V30h26.6V4.49Z" transform="translate(-8.74 -3.17)"/><path class="cls-1" d="M253.6,64.86H242.39a5.19,5.19,0,0,1-4.61-2.34L226.36,43.94a4.87,4.87,0,0,0-1.49-1.49,4.6,4.6,0,0,0-2.54-.42h-4.25V65H205.6V4.49h19a39.46,39.46,0,0,1,10.78,1.28,21.83,21.83,0,0,1,7.38,3.61A13.6,13.6,0,0,1,247,14.85,18.71,18.71,0,0,1,248.29,22a17.58,17.58,0,0,1-.85,5.69,20.46,20.46,0,0,1-2.55,4.83,18.15,18.15,0,0,1-4,4,19.55,19.55,0,0,1-5.46,2.76,16.36,16.36,0,0,1,2.33,1.7,11.11,11.11,0,0,1,1.91,2.34ZM224.5,33.22a13,13,0,0,0,5.26-.85,8.62,8.62,0,0,0,3.61-2.13,8.35,8.35,0,0,0,2.12-3.18,12.27,12.27,0,0,0,.64-4c0-3-.85-5-2.76-6.53s-4.83-2.33-8.66-2.33h-6.53v19h6.32Z" transform="translate(-8.74 -3.17)"/><path class="cls-1" d="M272,14.42v15.4H292v9.5H272V55.14h25.75v9.72H259.28V4.49h38.44v9.72H272Z" transform="translate(-8.74 -3.17)"/><path class="cls-1" d="M319.7,14.42v15.4h20.06v9.5H319.7V55.14h25.74v9.72H307V4.49h38.43v9.72H319.7Z" transform="translate(-8.74 -3.17)"/><path class="cls-1" d="M367.37,14.42V31.09h21.77v9.72H367.37v24H354.89V4.49h38.44v9.72h-26Z" transform="translate(-8.74 -3.17)"/><path class="cls-1" d="M459.64,34.65a33.47,33.47,0,0,1-2.33,12.26A28.19,28.19,0,0,1,451,56.63a31.22,31.22,0,0,1-9.72,6.53,35.55,35.55,0,0,1-25.37,0,28.7,28.7,0,0,1-9.72-6.53,27.49,27.49,0,0,1-6.32-9.72,33.42,33.42,0,0,1,0-24.52,28.19,28.19,0,0,1,6.32-9.72,31.22,31.22,0,0,1,9.72-6.53,35.55,35.55,0,0,1,25.37,0A28.7,28.7,0,0,1,451,12.67a27.49,27.49,0,0,1,6.32,9.72A29.49,29.49,0,0,1,459.64,34.65Zm-12.69,0a26.07,26.07,0,0,0-1.27-8.44,18.22,18.22,0,0,0-3.61-6.32,14.27,14.27,0,0,0-5.68-4,22,22,0,0,0-7.59-1.49,17.81,17.81,0,0,0-7.59,1.49,13.57,13.57,0,0,0-5.69,4,18.86,18.86,0,0,0-3.61,6.32,26.09,26.09,0,0,0-1.27,8.44,25.41,25.41,0,0,0,1.27,8.44,18.38,18.38,0,0,0,3.61,6.32,14.23,14.23,0,0,0,5.69,4,21.91,21.91,0,0,0,7.59,1.49,17.84,17.84,0,0,0,7.59-1.49,13.47,13.47,0,0,0,5.68-4,18.69,18.69,0,0,0,3.61-6.32A25,25,0,0,0,447,34.65Z" transform="translate(-8.74 -3.17)"/><path class="cls-1" d="M504.61,54.72V64.86H468.93V4.49h12.48V54.72Z" transform="translate(-8.74 -3.17)"/><path class="cls-1" d="M566.25,34.65a33.27,33.27,0,0,1-2.34,12.26,25.49,25.49,0,0,1-6.31,9.51,30.82,30.82,0,0,1-9.72,6.32,34.75,34.75,0,0,1-12.69,2.33H512V4.49h23.2a34.74,34.74,0,0,1,12.69,2.34,28.38,28.38,0,0,1,16,15.82A31.12,31.12,0,0,1,566.25,34.65Zm-12.9,0a26.35,26.35,0,0,0-1.27-8.44,18.38,18.38,0,0,0-3.61-6.32,14.23,14.23,0,0,0-5.69-4,21.91,21.91,0,0,0-7.59-1.49H524.63V55.09h10.56a17.81,17.81,0,0,0,7.59-1.49,13.57,13.57,0,0,0,5.69-4,18.86,18.86,0,0,0,3.61-6.32A26.88,26.88,0,0,0,553.35,34.65Z" transform="translate(-8.74 -3.17)"/><path class="cls-1" d="M71.87,19H8.74V4.49H64.49a7.47,7.47,0,0,1,7.38,7.38V19Z" transform="translate(-8.74 -3.17)"/><path class="cls-1" d="M64.49,4.49H8.74V18.83H71.87V11.66a7.43,7.43,0,0,0-7.38-7.17Z" transform="translate(-8.74 -3.17)"/><polygon class="cls-1" points="63.13 36.79 18.37 36.79 18.37 22.41 63.13 22.41 63.13 36.79"/><path class="cls-1" d="M64.49,61H8.74V46.7H71.87v7A7.47,7.47,0,0,1,64.49,61Z" transform="translate(-8.74 -3.17)"/><path class="cls-2" d="M597.26,12.51H578V4.92H624.7v7.59H605.49V64.65h-8V12.51Z" transform="translate(-8.74 -3.17)"/><path class="cls-2" d="M633.36,4.92H672v7.59H641.38V30.24h28.29v7.6H641.38V57.05h31.85v7.6H633.15V4.92Z" transform="translate(-8.74 -3.17)"/><path class="cls-2" d="M726.43,17.77a18.34,18.34,0,0,0-6.32-5,17.66,17.66,0,0,0-8-1.7A21,21,0,0,0,703,12.94a19.43,19.43,0,0,0-7,5.25A22.53,22.53,0,0,0,691.65,26a27.94,27.94,0,0,0-1.7,9.5,23.77,23.77,0,0,0,5.9,16.25,20.73,20.73,0,0,0,6.95,5,22.08,22.08,0,0,0,9.29,1.91,18,18,0,0,0,9.08-2.12,19.82,19.82,0,0,0,6.53-5.9l6.74,5c-.42.63-1.27,1.48-2.33,2.76a21.44,21.44,0,0,1-4.41,3.4,35.07,35.07,0,0,1-6.74,3,29.28,29.28,0,0,1-9.08,1.27A28.87,28.87,0,0,1,699,63.37a34,34,0,0,1-9.72-7.16,32.14,32.14,0,0,1-6.1-9.93A29.12,29.12,0,0,1,681,35.07a36.83,36.83,0,0,1,2.34-12.9A28.18,28.18,0,0,1,689.69,12a26.59,26.59,0,0,1,9.93-6.53A34.69,34.69,0,0,1,712.3,3.17,31.66,31.66,0,0,1,723.93,5.5a20.77,20.77,0,0,1,9.29,7Z" transform="translate(-8.74 -3.17)"/><path class="cls-2" d="M744.16,4.92h8v24.9h31V4.92h8V64.65h-8V37.2h-31V64.65h-8Z" transform="translate(-8.74 -3.17)"/></svg>